{
.appVersion = "1069";
DisplayStrings = (
aHn
);
classes = (
{
automatic = 1;

glyphs = (
{
color = (31,255,0,1);
glyphname = A;
lastChange = "2017-10-07 14:26:38 +0000";
layers = (
{
background = {
paths = (
{
closed = 1;
nodes = (
"-277 0 LINE",
"-466 713 LINE",
"-575 713 LINE",
"-761 0 LINE",
"-708 0 LINE",
"-653 208 LINE",
"-384 208 LINE",
"-330 0 LINE"
);
},
{
closed = 1;
nodes = (
"-398 261 LINE",
"-640 261 LINE",
"-536 664 LINE",
"-502 664 LINE"
);
},
{
closed = 1;
nodes = (
"323 598 LINE",
"489 16 LINE",
"542 31 LINE",
"376 613 LINE"
);
},
{
closed = 1;
nodes = (
"554 0 LINE",
"344 713 LINE",
"253 713 LINE",
"47 0 LINE",
"101 0 LINE",
"162 208 LINE",
"439 208 LINE",
"499 0 LINE"
);
},
{
closed = 1;
nodes = (
"424 261 LINE",
"176 261 LINE",
"293 664 LINE",
"307 664 LINE"
);
}
);
};
hints = (
{
horizontal = 1;
place = "{208, 53}";
},
{
horizontal = 1;
place = "{0, 21}";
target = up;
type = BottomGhost;
},
{
horizontal = 1;
place = "{713, -20}";
target = down;
type = TopGhost;
}
);
layerId = UUID0;
paths = (
{
closed = 1;
nodes = (
"556 0 LINE",
"346 713 LINE",
"251 713 LINE",
"45 0 LINE",
"101 0 LINE",
"162 208 LINE",
"439 208 LINE",
"499 0 LINE"
);
},
{
closed = 1;
nodes = (
"424 261 LINE",
"176 261 LINE",
"293 664 LINE",
"307 664 LINE"
);
}
);
width = 600;
},
{
hints = (
{
horizontal = 1;
place = "{194, 96}";
},
{
horizontal = 1;
place = "{0, 21}";
target = up;
type = BottomGhost;
},
{
horizontal = 1;
place = "{713, -20}";
target = down;
type = TopGhost;
}
);
layerId = "64F0AA26-A009-41C1-A946-C445650DA9E2";
paths = (
{
closed = 1;
nodes = (
"558 0 LINE",
"369 713 LINE",
"229 713 LINE",
"43 0 LINE",
"143 0 LINE",
"194 194 LINE",
"409 194 LINE",
"459 0 LINE"
);
},
{
closed = 1;
nodes = (
"384 290 LINE",
"217 290 LINE",
"302 608 LINE"
);
}
);
width = 600;
}
);
unicode = 0041;
},
{
glyphname = AE;
lastChange = "2017-10-07 14:26:38 +0000";
layers = (
{
hints = (
{
place = "{430, 55}";
},
{
horizontal = 1;
place = "{0, 54}";
},
{
horizontal = 1;
place = "{208, 54}";
},
{
horizontal = 1;
place = "{351, 54}";
},
{
horizontal = 1;
place = "{659, 54}";
}
);
layerId = UUID0;
paths = (
{
closed = 1;
nodes = (
"805 0 LINE",
"805 54 LINE",
"485 54 LINE",
"485 351 LINE",
"780 351 LINE",
"780 405 LINE",
"485 405 LINE",
"485 659 LINE",
"805 659 LINE",
"805 713 LINE",
"280 713 LINE",
"94 0 LINE",
"147 0 LINE",
"202 208 LINE",
"430 208 LINE",
"430 0 LINE"
);
},
{
closed = 1;
nodes = (
"320 659 LINE",
"430 659 LINE",
"430 262 LINE",
"215 262 LINE"
);
}
);
width = 900;
},
{
background = {
paths = (
{
closed = 1;
nodes = (
"809 0 LINE",
"809 96 LINE",
"510 96 LINE",
"510 328 LINE",
"785 328 LINE",
"785 424 LINE",
"510 424 LINE",
"510 616 LINE",
"809 616 LINE",
"809 713 LINE",
"277 713 LINE",
"91 0 LINE",
"190 0 LINE",
"241 194 LINE",
"413 194 LINE",
"413 0 LINE"
);
},
{
closed = 1;
nodes = (
"351 616 LINE",
"413 616 LINE",
"413 291 LINE",
"265 291 LINE"
);
}
);
};
hints = (
{
place = "{413, 98}";
},
{
horizontal = 1;
place = "{0, 96}";
},
{
horizontal = 1;
place = "{195, 96}";
},
{
horizontal = 1;
place = "{328, 96}";
},
{
horizontal = 1;
place = "{617, 96}";
}
);
layerId = "64F0AA26-A009-41C1-A946-C445650DA9E2";
paths = (
{
closed = 1;
nodes = (
"809 0 LINE",
"809 96 LINE",
"511 96 LINE",
"511 328 LINE",
"785 328 LINE",
"785 424 LINE",
"511 424 LINE",
"511 617 LINE",
"809 617 LINE",
"809 713 LINE",
"277 713 LINE",
"91 0 LINE",
"190 0 LINE",
"242 195 LINE",
"413 195 LINE",
"413 0 LINE"
);
},
{
closed = 1;
nodes = (
"351 617 LINE",
"413 617 LINE",
"413 291 LINE",
"266 291 LINE"
);
}
);
width = 900;
}
);
unicode = 00C6;
},
{
color = (31,255,0,1);
glyphname = B;
lastChange = "2017-10-07 14:26:38 +0000";
layers = (
{
background = {
paths = (
{
closed = 1;
nodes = (
"504 208 LINE SMOOTH",
"504 251 OFFCURVE",
"492 334 OFFCURVE",
"404 368 CURVE",
"477 404 OFFCURVE",
"492 480 OFFCURVE",
"492 522 CURVE SMOOTH",
"492 534 LINE SMOOTH",
"492 593 OFFCURVE",
"468 713 OFFCURVE",
"312 713 CURVE SMOOTH",
"106 713 LINE",
"106 0 LINE",
"317 0 LINE SMOOTH",
"473 0 OFFCURVE",
"504 124 OFFCURVE",
"504 183 CURVE"
);
},
{
closed = 1;
nodes = (
"437 524 LINE SMOOTH",
"437 410 OFFCURVE",
"369 395 OFFCURVE",
"316 395 CURVE SMOOTH",
"161 395 LINE",
"161 659 LINE",
"310 659 LINE SMOOTH",
"357 659 OFFCURVE",
"437 647 OFFCURVE",
"437 533 CURVE SMOOTH"
);
},
{
closed = 1;
nodes = (
"449 186 LINE SMOOTH",
"449 72 OFFCURVE",
"362 54 OFFCURVE",
"315 54 CURVE SMOOTH",
"161 54 LINE",
"161 341 LINE",
"320 341 LINE SMOOTH",
"374 341 OFFCURVE",
"449 321 OFFCURVE",
"449 207 CURVE SMOOTH"
);
}
);
};
hints = (
{
place = "{106, 55}";
},
{
place = "{449, 55}";
},
{
horizontal = 1;
place = "{0, 54}";
},
{
horizontal = 1;
place = "{342, 53}";
},
{
horizontal = 1;
place = "{659, 54}";
}
);
layerId = UUID0;
paths = (
{
closed = 1;
nodes = (
"504 208 LINE SMOOTH",
"504 251 OFFCURVE",
"490 338 OFFCURVE",
"402 369 CURVE",
"475 404 OFFCURVE",
"492 480 OFFCURVE",
"492 522 CURVE SMOOTH",
"492 534 LINE SMOOTH",
"492 593 OFFCURVE",
"468 713 OFFCURVE",
"312 713 CURVE SMOOTH",
"106 713 LINE",
"106 0 LINE",
"317 0 LINE SMOOTH",
"473 0 OFFCURVE",
"504 124 OFFCURVE",
"504 183 CURVE"
);
},
{
closed = 1;
nodes = (
"437 524 LINE",
"437 410 OFFCURVE",
"369 395 OFFCURVE",
"316 395 CURVE SMOOTH",
"161 395 LINE",
"161 659 LINE",
"310 659 LINE SMOOTH",
"357 659 OFFCURVE",
"437 647 OFFCURVE",
"437 533 CURVE SMOOTH"
);
},
{
closed = 1;
nodes = (
"449 186 LINE",
"449 72 OFFCURVE",
"362 54 OFFCURVE",
"315 54 CURVE SMOOTH",
"161 54 LINE",
"161 342 LINE",
"314 342 LINE SMOOTH",
"368 342 OFFCURVE",
"449 321 OFFCURVE",
"449 207 CURVE SMOOTH"
);
}
);
width = 600;
},
{
hints = (
{
place = "{92, 98}";
},
{
place = "{411, 98}";
},
{
horizontal = 1;
place = "{0, 96}";
},
{
horizontal = 1;
place = "{319, 96}";
},
{
horizontal = 1;
place = "{617, 96}";
}
);
layerId = "64F0AA26-A009-41C1-A946-C445650DA9E2";
paths = (
{
closed = 1;
nodes = (
"509 218 LINE SMOOTH",
"509 255 OFFCURVE",
"495 332 OFFCURVE",
"432 368 CURVE",
"484 405 OFFCURVE",
"499 474 OFFCURVE",
"499 510 CURVE SMOOTH",
"499 522 LINE SMOOTH",
"499 585 OFFCURVE",
"472 713 OFFCURVE",
"307 713 CURVE SMOOTH",
"92 713 LINE",
"92 0 LINE",
"312 0 LINE SMOOTH",
"476 0 OFFCURVE",
"509 131 OFFCURVE",
"509 194 CURVE"
);
},
{
closed = 1;
nodes = (
"401 512 LINE",
"401 427 OFFCURVE",
"351 415 OFFCURVE",
"311 415 CURVE SMOOTH",
"190 415 LINE",
"190 617 LINE",
"305 617 LINE SMOOTH",
"341 617 OFFCURVE",
"401 607 OFFCURVE",
"401 521 CURVE SMOOTH"
);
},
{
closed = 1;
nodes = (
"411 196 LINE",
"411 109 OFFCURVE",
"347 96 OFFCURVE",
"310 96 CURVE SMOOTH",
"190 96 LINE",
"190 319 LINE",
"315 319 LINE SMOOTH",
"356 319 OFFCURVE",
"411 304 OFFCURVE",
"411 217 CURVE SMOOTH"
);
}
);
width = 600;
}
);
unicode = 0042;
},
{
color = (235,0,255,1);
glyphname = C;
lastChange = "2017-10-07 14:26:38 +0000";
layers = (
{
background = {
paths = (
{
closed = 1;
nodes = (
"441 176 LINE",
"441 63 OFFCURVE",
"346 45 OFFCURVE",
"300 45 CURVE SMOOTH",
"254 45 OFFCURVE",
"158 63 OFFCURVE",
"158 177 CURVE SMOOTH",
"158 535 LINE SMOOTH",
"158 649 OFFCURVE",
"254 666 OFFCURVE",
"300 666 CURVE SMOOTH",
"346 666 OFFCURVE",
"441 649 OFFCURVE",
"441 536 CURVE",
"496 536 LINE",
"496 596 OFFCURVE",
"453 720 OFFCURVE",
"300 720 CURVE SMOOTH",
"144 720 OFFCURVE",
"103 596 OFFCURVE",
"103 537 CURVE SMOOTH",
"103 177 LINE SMOOTH",
"103 116 OFFCURVE",
"146 -9 OFFCURVE",
"299 -9 CURVE SMOOTH",
"455 -9 OFFCURVE",
"496 115 OFFCURVE",
"496 176 CURVE"
);
}
);
};
hints = (
{
place = "{103, 55}";
},
{
place = "{441, 55}";
},
{
horizontal = 1;
place = "{0, 54}";
},
{
horizontal = 1;
place = "{659, 54}";
}
);
layerId = UUID0;
paths = (
{
closed = 1;
nodes = (
"496 536 LINE",
"496 646 OFFCURVE",
"419 720 OFFCURVE",
"300 720 CURVE SMOOTH",
"179 720 OFFCURVE",
"103 646 OFFCURVE",
"103 537 CURVE SMOOTH",
"103 174 LINE SMOOTH",
"103 65 OFFCURVE",
"179 -9 OFFCURVE",
"300 -9 CURVE SMOOTH",
"419 -9 OFFCURVE",
"496 65 OFFCURVE",
"496 175 CURVE",
"496 176 LINE",
"441 176 LINE",
"441 82 OFFCURVE",
"378 45 OFFCURVE",
"300 45 CURVE SMOOTH",
"222 45 OFFCURVE",
"158 82 OFFCURVE",
"158 176 CURVE SMOOTH",
"158 535 LINE SMOOTH",
"158 629 OFFCURVE",
"222 666 OFFCURVE",
"300 666 CURVE SMOOTH",
"378 666 OFFCURVE",
"441 629 OFFCURVE",
"441 536 CURVE"
);
}
);
width = 600;
},
{
hints = (
{
place = "{94, 98}";
},
{
place = "{409, 98}";
},
{
horizontal = 1;
place = "{0, 96}";
},
{
horizontal = 1;
place = "{617, 96}";
}
);
layerId = "64F0AA26-A009-41C1-A946-C445650DA9E2";
paths = (
{
closed = 1;
nodes = (
"409 188 LINE",
"409 101 OFFCURVE",
"335 87 OFFCURVE",
"301 87 CURVE SMOOTH",
"265 87 OFFCURVE",
"192 101 OFFCURVE",
"192 189 CURVE SMOOTH",
"192 525 LINE SMOOTH",
"192 612 OFFCURVE",
"265 624 OFFCURVE",
"301 624 CURVE SMOOTH",
"335 624 OFFCURVE",
"409 611 OFFCURVE",
"409 525 CURVE",
"507 525 LINE",
"507 589 OFFCURVE",
"460 720 OFFCURVE",
"301 720 CURVE SMOOTH",
"135 720 OFFCURVE",
"94 590 OFFCURVE",
"94 527 CURVE SMOOTH",
"94 189 LINE SMOOTH",
"94 124 OFFCURVE",
"139 -9 OFFCURVE",
"300 -9 CURVE SMOOTH",
"464 -9 OFFCURVE",
"507 123 OFFCURVE",
"507 188 CURVE"
);
}
);
width = 600;
}
);
unicode = 0043;
},
{
color = (235,0,255,1);
glyphname = D;
lastChange = "2017-10-07 14:26:38 +0000";
layers = (
{
background = {
paths = (
{
closed = 1;
nodes = (
"496 531 LINE SMOOTH",
"496 590 OFFCURVE",
"465 714 OFFCURVE",
"309 714 CURVE SMOOTH",
"103 714 LINE",
"103 0 LINE",
"313 0 LINE SMOOTH",
"466 0 OFFCURVE",
"496 125 OFFCURVE",
"496 186 CURVE"
);
},
{
closed = 1;
nodes = (
"441 187 LINE SMOOTH",
"441 73 OFFCURVE",
"358 54 OFFCURVE",
"311 54 CURVE SMOOTH",
"158 54 LINE",
"158 660 LINE",
"309 660 LINE SMOOTH",
"356 660 OFFCURVE",
"441 642 OFFCURVE",
"441 528 CURVE SMOOTH"
);
}
);
};
hints = (
{
place = "{103, 55}";
},
{
place = "{441, 55}";
},
{
horizontal = 1;
place = "{0, 54}";
},
{
horizontal = 1;
place = "{660, 54}";
}
);
layerId = UUID0;
paths = (
{
closed = 1;
nodes = (
"103 713 LINE",
"103 0 LINE",
"307 0 LINE SMOOTH",
"427 0 OFFCURVE",
"496 74 OFFCURVE",
"496 187 CURVE SMOOTH",
"496 529 LINE SMOOTH",
"496 639 OFFCURVE",
"426 713 OFFCURVE",
"307 713 CURVE"
);
},
{
closed = 1;
nodes = (
"441 188 LINE SMOOTH",
"441 91 OFFCURVE",
"383 54 OFFCURVE",
"307 54 CURVE SMOOTH",
"158 54 LINE",
"158 659 LINE",
"307 659 LINE SMOOTH",
"385 659 OFFCURVE",
"441 619 OFFCURVE",
"441 528 CURVE"
);
}
);
width = 600;
},
{
hints = (
{
place = "{93, 98}";
},
{
place = "{407, 98}";
},
{
horizontal = 1;
place = "{0, 96}";
},
{
horizontal = 1;
place = "{617, 96}";
}
);
layerId = "64F0AA26-A009-41C1-A946-C445650DA9E2";
paths = (
{
closed = 1;
nodes = (
"505 518 LINE SMOOTH",
"505 581 OFFCURVE",
"473 713 OFFCURVE",
"308 713 CURVE SMOOTH",
"93 713 LINE",
"93 0 LINE",
"312 0 LINE SMOOTH",
"473 0 OFFCURVE",
"505 132 OFFCURVE",
"505 196 CURVE"
);
},
{
closed = 1;
nodes = (
"407 197 LINE",
"407 110 OFFCURVE",
"347 96 OFFCURVE",
"310 96 CURVE SMOOTH",
"191 96 LINE",
"191 617 LINE",
"308 617 LINE SMOOTH",
"345 617 OFFCURVE",
"407 603 OFFCURVE",
"407 515 CURVE SMOOTH"
);
}
);
width = 600;
}
);
unicode = 0044;
},
{
glyphname = Eth;
lastChange = "2017-10-07 14:26:38 +0000";
layers = (
{
hints = (
{
place = "{134, 55}";
},
{
place = "{472, 55}";
},
{
horizontal = 1;
place = "{0, 54}";
},
{
horizontal = 1;
place = "{660, 54}";
},
{
horizontal = 1;
place = "{459, 50}";
}
);
layerId = UUID0;
paths = (
{
closed = 1;
nodes = (
"527 531 LINE SMOOTH",
"527 590 OFFCURVE",
"496 714 OFFCURVE",
"340 714 CURVE SMOOTH",
"134 714 LINE",
"134 403 LINE",
"72 403 LINE",
"72 353 LINE",
"134 353 LINE",
"134 0 LINE",
"344 0 LINE SMOOTH",
"497 0 OFFCURVE",
"527 125 OFFCURVE",
"527 186 CURVE"
);
},
{
closed = 1;
nodes = (
"359 353 LINE",
"359 403 LINE",
"189 403 LINE",
"189 660 LINE",
"340 660 LINE SMOOTH",
"387 660 OFFCURVE",
"472 642 OFFCURVE",
"472 528 CURVE SMOOTH",
"472 187 LINE SMOOTH",
"472 73 OFFCURVE",
"389 54 OFFCURVE",
"342 54 CURVE SMOOTH",
"189 54 LINE",
"189 353 LINE"
);
}
);
width = 600;
},
{
background = {
paths = (
{
closed = 1;
nodes = (
"533 519 LINE SMOOTH",
"533 582 OFFCURVE",
"501 714 OFFCURVE",
"336 714 CURVE SMOOTH",
"121 714 LINE",
"121 416 LINE",
"36 416 LINE",
"36 326 LINE",
"121 326 LINE",
"121 0 LINE",
"340 0 LINE SMOOTH",
"501 0 OFFCURVE",
"533 132 OFFCURVE",
"533 196 CURVE"
);
},
{
closed = 1;
nodes = (
"343 326 LINE",
"343 416 LINE",
"218 416 LINE",
"218 617 LINE",
"336 617 LINE SMOOTH",
"373 617 OFFCURVE",
"437 604 OFFCURVE",
"437 516 CURVE SMOOTH",
"437 197 LINE SMOOTH",
"437 110 OFFCURVE",
"375 96 OFFCURVE",
"338 96 CURVE SMOOTH",
"218 96 LINE",
"218 326 LINE"
);
}
);
};
hints = (
{
place = "{121, 98}";
},
{
place = "{435, 98}";
},
{
horizontal = 1;
place = "{0, 96}";
},
{
horizontal = 1;
place = "{326, 90}";
},
{
horizontal = 1;
place = "{618, 96}";
}
);
layerId = "64F0AA26-A009-41C1-A946-C445650DA9E2";
paths = (
{
closed = 1;
nodes = (
"533 519 LINE SMOOTH",
"533 582 OFFCURVE",
"501 714 OFFCURVE",
"336 714 CURVE SMOOTH",
"121 714 LINE",
"121 416 LINE",
"36 416 LINE",
"36 326 LINE",
"121 326 LINE",
"121 0 LINE",
"340 0 LINE SMOOTH",
"501 0 OFFCURVE",
"533 132 OFFCURVE",
"533 196 CURVE"
);
},
{
closed = 1;
nodes = (
"435 197 LINE SMOOTH",
"435 110 OFFCURVE",
"375 96 OFFCURVE",
"338 96 CURVE SMOOTH",
"219 96 LINE",
"219 326 LINE",
"343 326 LINE",
"343 416 LINE",
"219 416 LINE",
"219 618 LINE",
"336 618 LINE SMOOTH",
"373 618 OFFCURVE",
"435 604 OFFCURVE",
"435 516 CURVE SMOOTH"
);
}
);
width = 600;
}
);
unicode = 00D0;
},
{
glyphname = Dcroat;
lastChange = "2017-10-07 14:26:38 +0000";
layers = (
{
hints = (
{
place = "{132, 55}";
},
{
place = "{470, 55}";
},
{
horizontal = 1;
place = "{0, 54}";
},
{
horizontal = 1;
place = "{338, 50}";
},
{
horizontal = 1;
place = "{660, 54}";
}
);
layerId = UUID0;
paths = (
{
closed = 1;
nodes = (
"525 531 LINE SMOOTH",
"525 590 OFFCURVE",
"494 714 OFFCURVE",
"338 714 CURVE SMOOTH",
"132 714 LINE",
"132 388 LINE",
"74 388 LINE",
"74 338 LINE",
"132 338 LINE",
"132 0 LINE",
"342 0 LINE SMOOTH",
"495 0 OFFCURVE",
"525 125 OFFCURVE",
"525 186 CURVE"
);
},
{
closed = 1;
nodes = (
"470 187 LINE",
"470 73 OFFCURVE",
"387 54 OFFCURVE",
"340 54 CURVE SMOOTH",
"187 54 LINE",
"187 338 LINE",
"370 338 LINE",
"370 388 LINE",
"187 388 LINE",
"187 660 LINE",
"338 660 LINE SMOOTH",
"385 660 OFFCURVE",
"470 642 OFFCURVE",
"470 528 CURVE SMOOTH"
);
}
);
width = 600;
},
{
hints = (
{
place = "{118, 97}";
},
{
place = "{434, 97}";
},
{
horizontal = 1;
place = "{0, 96}";
},
{
horizontal = 1;
place = "{316, 92}";
},
{
horizontal = 1;
place = "{617, 97}";
}
);
layerId = "64F0AA26-A009-41C1-A946-C445650DA9E2";
paths = (
{
closed = 1;
nodes = (
"531 519 LINE SMOOTH",
"531 582 OFFCURVE",
"498 714 OFFCURVE",
"334 714 CURVE SMOOTH",
"118 714 LINE",
"118 408 LINE",
"64 408 LINE",
"64 316 LINE",
"118 316 LINE",
"118 0 LINE",
"337 0 LINE SMOOTH",
"499 0 OFFCURVE",
"531 132 OFFCURVE",
"531 196 CURVE"
);
},
{
closed = 1;
nodes = (
"434 197 LINE",
"434 110 OFFCURVE",
"371 96 OFFCURVE",
"335 96 CURVE SMOOTH",
"215 96 LINE",
"215 316 LINE",
"386 316 LINE",
"386 408 LINE",
"215 408 LINE",
"215 617 LINE",
"334 617 LINE SMOOTH",
"369 617 OFFCURVE",
"434 604 OFFCURVE",
"434 516 CURVE SMOOTH"
);
}
);
width = 600;
}
);
unicode = 0110;
},
{
glyphname = E;
lastChange = "2017-10-07 14:26:38 +0000";
layers = (
{
hints = (
{
place = "{113, 55}";
},
{
horizontal = 1;
place = "{0, 54}";
},
{
horizontal = 1;
place = "{341, 54}";
},
{
horizontal = 1;
place = "{659, 54}";
}
);
layerId = UUID0;
paths = (
{
closed = 1;
nodes = (
"487 0 LINE",
"487 54 LINE",
"168 54 LINE",
"168 341 LINE",
"463 341 LINE",
"463 395 LINE",
"168 395 LINE",
"168 659 LINE",
"487 659 LINE",
"487 713 LINE",
"113 713 LINE",
"113 0 LINE"
);
}
);
width = 600;
},
{
hints = (
{
place = "{102, 98}";
},
{
horizontal = 1;
place = "{0, 96}";
},
{
horizontal = 1;
place = "{328, 96}";
},
{
horizontal = 1;
place = "{617, 96}";
}
);
layerId = "64F0AA26-A009-41C1-A946-C445650DA9E2";
paths = (
{
closed = 1;
nodes = (
"498 0 LINE",
"498 96 LINE",
"200 96 LINE",
"200 328 LINE",
"476 328 LINE",
"476 424 LINE",
"200 424 LINE",
"200 617 LINE",
"498 617 LINE",
"498 713 LINE",
"102 713 LINE",
"102 0 LINE"
);
}
);
width = 600;
}
);
unicode = 0045;
},
{
glyphname = F;
lastChange = "2017-10-07 14:26:38 +0000";
layers = (
{
hints = (
{
place = "{113, 55}";
},
{
horizontal = 1;
place = "{341, 54}";
},
{
horizontal = 1;
place = "{659, 54}";
},
{
horizontal = 1;
place = "{0, 21}";
target = up;
type = BottomGhost;
}
);
layerId = UUID0;
paths = (
{
closed = 1;
nodes = (
"487 659 LINE",
"487 713 LINE",
"113 713 LINE",
"113 0 LINE",
"168 0 LINE",
"168 340 LINE",
"463 340 LINE",
"463 394 LINE",
"168 394 LINE",
"168 659 LINE"
);
}
);
width = 600;
},
{
hints = (
{
place = "{100, 98}";
},
{
horizontal = 1;
place = "{328, 96}";
},
{
horizontal = 1;
place = "{617, 96}";
},
{
horizontal = 1;
place = "{0, 21}";
target = up;
type = BottomGhost;
}
);
layerId = "64F0AA26-A009-41C1-A946-C445650DA9E2";
paths = (
{
closed = 1;
nodes = (
"496 617 LINE",
"496 713 LINE",
"100 713 LINE",
"100 0 LINE",
"198 0 LINE",
"198 328 LINE",
"474 328 LINE",
"474 424 LINE",
"198 424 LINE",
"198 617 LINE"
);
}
);
width = 600;
}
);
unicode = 0046;
},
{
color = (235,0,255,1);
glyphname = G;
lastChange = "2017-10-07 14:26:38 +0000";
layers = (
{
background = {
paths = (
{
closed = 1;
nodes = (
"496 382 LINE",
"289 382 LINE",
"289 328 LINE",
"441 328 LINE",
"441 177 LINE SMOOTH",
"441 63 OFFCURVE",
"346 46 OFFCURVE",
"300 46 CURVE SMOOTH",
"254 46 OFFCURVE",
"158 63 OFFCURVE",
"158 177 CURVE SMOOTH",
"158 535 LINE SMOOTH",
"158 649 OFFCURVE",
"254 665 OFFCURVE",
"300 665 CURVE SMOOTH",
"346 665 OFFCURVE",
"441 649 OFFCURVE",
"441 536 CURVE",
"496 536 LINE",
"496 602 OFFCURVE",
"453 720 OFFCURVE",
"300 720 CURVE SMOOTH",
"144 720 OFFCURVE",
"103 596 OFFCURVE",
"103 537 CURVE SMOOTH",
"103 177 LINE SMOOTH",
"103 116 OFFCURVE",
"145 -9 OFFCURVE",
"298 -9 CURVE SMOOTH",
"454 -9 OFFCURVE",
"496 115 OFFCURVE",
"496 176 CURVE"
);
}
);
};
hints = (
{
place = "{103, 55}";
},
{
place = "{441, 55}";
},
{
horizontal = 1;
place = "{0, 55}";
},
{
horizontal = 1;
place = "{328, 54}";
},
{
horizontal = 1;
place = "{658, 55}";
}
);
layerId = UUID0;
paths = (
{
closed = 1;
nodes = (
"496 536 LINE",
"496 646 OFFCURVE",
"419 720 OFFCURVE",
"300 720 CURVE SMOOTH",
"179 720 OFFCURVE",
"103 646 OFFCURVE",
"103 537 CURVE SMOOTH",
"103 174 LINE SMOOTH",
"103 65 OFFCURVE",
"179 -9 OFFCURVE",
"300 -9 CURVE SMOOTH",
"419 -9 OFFCURVE",
"496 65 OFFCURVE",
"496 175 CURVE SMOOTH",
"496 382 LINE",
"289 382 LINE",
"289 328 LINE",
"441 328 LINE",
"441 174 LINE",
"440 81 OFFCURVE",
"377 45 OFFCURVE",
"300 45 CURVE SMOOTH",
"222 45 OFFCURVE",
"158 82 OFFCURVE",
"158 176 CURVE SMOOTH",
"158 535 LINE SMOOTH",
"158 629 OFFCURVE",
"222 666 OFFCURVE",
"300 666 CURVE SMOOTH",
"378 666 OFFCURVE",
"441 629 OFFCURVE",
"441 536 CURVE"
);
}
);
width = 600;
},
{
hints = (
{
place = "{93, 98}";
},
{
place = "{408, 98}";
},
{
horizontal = 1;
place = "{0, 96}";
},
{
horizontal = 1;
place = "{307, 96}";
},
{
horizontal = 1;
place = "{617, 96}";
}
);
layerId = "64F0AA26-A009-41C1-A946-C445650DA9E2";
paths = (
{
closed = 1;
nodes = (
"506 403 LINE",
"286 403 LINE",
"286 307 LINE",
"408 307 LINE",
"408 189 LINE SMOOTH",
"408 102 OFFCURVE",
"334 87 OFFCURVE",
"300 87 CURVE SMOOTH",
"264 87 OFFCURVE",
"191 102 OFFCURVE",
"191 189 CURVE SMOOTH",
"191 525 LINE SMOOTH",
"191 611 OFFCURVE",
"264 624 OFFCURVE",
"300 624 CURVE SMOOTH",
"334 624 OFFCURVE",
"408 610 OFFCURVE",
"408 525 CURVE",
"506 525 LINE",
"506 595 OFFCURVE",
"459 720 OFFCURVE",
"300 720 CURVE SMOOTH",
"134 720 OFFCURVE",
"93 590 OFFCURVE",
"93 527 CURVE SMOOTH",
"93 189 LINE SMOOTH",
"93 124 OFFCURVE",
"137 -9 OFFCURVE",
"298 -9 CURVE SMOOTH",
"460 -9 OFFCURVE",
"506 123 OFFCURVE",
"506 188 CURVE"
);
}
);
width = 600;
}
);
unicode = 0047;
},
{
glyphname = H;
lastChange = "2017-10-07 14:26:38 +0000";
layers = (
{
hints = (
{
place = "{96, 55}";
},
{
place = "{448, 55}";
},
{
horizontal = 1;
place = "{338, 54}";
},
{
horizontal = 1;
place = "{0, 21}";
target = up;
type = BottomGhost;
},
{
horizontal = 1;
place = "{713, -20}";
target = down;
type = TopGhost;
}
);
layerId = UUID0;
paths = (
{
closed = 1;
nodes = (
"503 0 LINE",
"503 713 LINE",
"448 713 LINE",
"448 392 LINE",
"151 392 LINE",
"151 713 LINE",
"96 713 LINE",
"96 0 LINE",
"151 0 LINE",
"151 338 LINE",
"448 338 LINE",
"448 0 LINE"
);
}
);
width = 600;
},
{
hints = (
{
place = "{87, 98}";
},
{
place = "{415, 98}";
},
{
horizontal = 1;
place = "{325, 96}";
},
{
horizontal = 1;
place = "{0, 21}";
target = up;
type = BottomGhost;
},
{
horizontal = 1;
place = "{713, -20}";
target = down;
type = TopGhost;
}
);
layerId = "64F0AA26-A009-41C1-A946-C445650DA9E2";
paths = (
{
closed = 1;
nodes = (
"513 0 LINE",
"513 713 LINE",
"415 713 LINE",
"415 421 LINE",
"185 421 LINE",
"185 713 LINE",
"87 713 LINE",
"87 0 LINE",
"185 0 LINE",
"185 325 LINE",
"415 325 LINE",
"415 0 LINE"
);
}
);
width = 600;
}
);
unicode = 0048;
},
{
glyphname = Hbar;
lastChange = "2017-10-07 14:26:38 +0000";
layers = (
{
hints = (
{
place = "{98, 55}";
},
{
place = "{450, 55}";
},
{
horizontal = 1;
place = "{348, 54}";
},
{
horizontal = 1;
place = "{594, 50}";
},
{
horizontal = 1;
place = "{0, 21}";
target = up;
type = BottomGhost;
},
{
horizontal = 1;
place = "{713, -20}";
target = down;
type = TopGhost;
}
);
layerId = UUID0;
paths = (
{
closed = 1;
nodes = (
"505 0 LINE",
"505 581 LINE",
"556 581 LINE",
"556 631 LINE",
"505 631 LINE",
"505 713 LINE",
"450 713 LINE",
"450 631 LINE",
"153 631 LINE",
"153 713 LINE",
"98 713 LINE",
"98 631 LINE",
"44 631 LINE",
"44 581 LINE",
"98 581 LINE",
"98 0 LINE",
"153 0 LINE",
"153 348 LINE",
"450 348 LINE",
"450 0 LINE"
);
},
{
closed = 1;
nodes = (
"153 402 LINE",
"153 581 LINE",
"450 581 LINE",
"450 402 LINE"
);
}
);
width = 600;
},
{
hints = (
{
place = "{89, 97}";
},
{
place = "{418, 97}";
},
{
horizontal = 1;
place = "{325, 97}";
},
{
horizontal = 1;
place = "{565, 93}";
},
{
horizontal = 1;
place = "{0, 21}";
target = up;
type = BottomGhost;
},
{
horizontal = 1;
place = "{713, -20}";
target = down;
type = TopGhost;
}
);
layerId = "64F0AA26-A009-41C1-A946-C445650DA9E2";
paths = (
{
closed = 1;
nodes = (
"515 0 LINE",
"515 565 LINE",
"562 565 LINE",
"562 658 LINE",
"515 658 LINE",
"515 713 LINE",
"418 713 LINE",
"418 658 LINE",
"186 658 LINE",
"186 713 LINE",
"89 713 LINE",
"89 658 LINE",
"38 658 LINE",
"38 565 LINE",
"89 565 LINE",
"89 0 LINE",
"186 0 LINE",
"186 325 LINE",
"418 325 LINE",
"418 0 LINE"
);
},
{
closed = 1;
nodes = (
"186 422 LINE",
"186 565 LINE",
"418 565 LINE",
"418 422 LINE"
);
}
);
width = 600;
}
);
unicode = 0126;
},
{
glyphname = I;
lastChange = "2017-10-07 14:26:38 +0000";
layers = (
{
hints = (
{
place = "{272, 55}";
},
{
horizontal = 1;
place = "{713, -20}";
target = down;
type = TopGhost;
},
{
horizontal = 1;
place = "{0, 21}";
target = up;
type = BottomGhost;
}
);
layerId = UUID0;
paths = (
{
closed = 1;
nodes = (
"108 659 LINE",
"272 659 LINE",
"272 54 LINE",
"108 54 LINE",
"108 0 LINE",
"491 0 LINE",
"491 54 LINE",
"327 54 LINE",
"327 659 LINE",
"491 659 LINE",
"491 713 LINE",
"108 713 LINE"
);
}
);
width = 600;
},
{
hints = (
{
place = "{252, 98}";
},
{
horizontal = 1;
place = "{0, 96}";
},
{
horizontal = 1;
place = "{617, 96}";
}
);
layerId = "64F0AA26-A009-41C1-A946-C445650DA9E2";
paths = (
{
closed = 1;
nodes = (
"502 617 LINE",
"502 713 LINE",
"99 713 LINE",
"99 617 LINE",
"252 617 LINE",
"252 96 LINE",
"99 96 LINE",
"99 0 LINE",
"502 0 LINE",
"502 96 LINE",
"350 96 LINE",
"350 617 LINE"
);
}
);
width = 600;
}
);
unicode = 0049;
},
{
glyphname = IJ;
lastChange = "2017-10-07 14:26:38 +0000";
layers = (
{
hints = (
{
place = "{218, 55}";
},
{
place = "{375, 55}";
},
{
place = "{763, 55}";
},
{
horizontal = 1;
place = "{713, -55}";
},
{
horizontal = 1;
place = "{0, 54}";
}
);
layerId = UUID0;
paths = (
{
closed = 1;
nodes = (
"54 659 LINE",
"218 659 LINE",
"218 54 LINE",
"54 54 LINE",
"54 0 LINE",
"437 0 LINE",
"437 54 LINE",
"273 54 LINE",
"273 659 LINE",
"437 659 LINE",
"437 713 LINE",
"54 713 LINE"
);
},
{
closed = 1;
nodes = (
"817 713 LINE",
"542 713 LINE",
"542 659 LINE",
"762 659 LINE",
"762 169 LINE SMOOTH",
"762 66 OFFCURVE",
"694 45 OFFCURVE",
"641 45 CURVE",
"640 -9 LINE",
"751 -9 OFFCURVE",
"817 60 OFFCURVE",
"817 175 CURVE"
);
}
);
width = 900;
},
{
layerId = "64F0AA26-A009-41C1-A946-C445650DA9E2";
paths = (
{
closed = 1;
nodes = (
"481 617 LINE",
"481 713 LINE",
"78 713 LINE",
"78 617 LINE",
"231 617 LINE",
"231 96 LINE",
"78 96 LINE",
"78 0 LINE",
"481 0 LINE",
"481 96 LINE",
"329 96 LINE",
"329 617 LINE"
);
},
{
closed = 1;
nodes = (
"830 713 LINE",
"528 713 LINE",
"528 617 LINE",
"732 617 LINE",
"732 181 LINE SMOOTH",
"732 103 OFFCURVE",
"683 88 OFFCURVE",
"644 88 CURVE",
"643 -9 LINE",
"762 -9 OFFCURVE",
"830 64 OFFCURVE",
"830 187 CURVE"
);
}
);
width = 900;
}
);
unicode = 0132;
},
{
glyphname = J;
lastChange = "2017-10-07 14:26:38 +0000";
layers = (
{
hints = (
{
place = "{124, 55}";
},
{
place = "{421, 55}";
},
{
horizontal = 1;
place = "{0, 54}";
},
{
horizontal = 1;
place = "{659, 54}";
}
);
layerId = UUID0;
paths = (
{
closed = 1;
nodes = (
"476 713 LINE",
"201 713 LINE",
"201 659 LINE",
"421 659 LINE",
"421 169 LINE SMOOTH",
"421 66 OFFCURVE",
"353 45 OFFCURVE",
"300 45 CURVE SMOOTH",
"250 45 OFFCURVE",
"179 66 OFFCURVE",
"179 173 CURVE",
"124 173 LINE",
"124 65 OFFCURVE",
"189 -9 OFFCURVE",
"299 -9 CURVE SMOOTH",
"410 -9 OFFCURVE",
"476 60 OFFCURVE",
"476 175 CURVE"
);
}
);
width = 600;
},
{
hints = (
{
place = "{111, 97}";
},
{
place = "{387, 98}";
},
{
horizontal = 1;
place = "{0, 96}";
},
{
horizontal = 1;
place = "{617, 96}";
},
{
horizontal = 1;
place = "{-9, 196}";
}
);
layerId = "64F0AA26-A009-41C1-A946-C445650DA9E2";
paths = (
{
closed = 1;
nodes = (
"485 713 LINE",
"183 713 LINE",
"183 617 LINE",
"387 617 LINE",
"387 181 LINE SMOOTH",
"387 103 OFFCURVE",
"338 87 OFFCURVE",
"299 87 CURVE SMOOTH",
"261 87 OFFCURVE",
"208 103 OFFCURVE",
"208 187 CURVE",
"111 187 LINE",
"111 71 OFFCURVE",
"180 -9 OFFCURVE",
"298 -9 CURVE SMOOTH",
"417 -9 OFFCURVE",
"485 64 OFFCURVE",
"485 187 CURVE"
);
}
);
width = 600;
}
);
unicode = 004A;
},
{
glyphname = K;
lastChange = "2017-10-07 14:26:38 +0000";
layers = (
{
background = {
paths = (
{
closed = 1;
nodes = (
"500 0 LINE",
"261 397 LINE",
"484 713 LINE",
"421 713 LINE",
"155 336 LINE",
"155 713 LINE",
"100 713 LINE",
"100 0 LINE",
"155 0 LINE",
"155 239 LINE",
"229 350 LINE",
"436 0 LINE"
);
}
);
};
hints = (
{
place = "{99, 55}";
},
{
horizontal = 1;
place = "{0, 21}";
target = up;
type = BottomGhost;
},
{
horizontal = 1;
place = "{713, -20}";
target = down;
type = TopGhost;
}
);
layerId = UUID0;
paths = (
{
closed = 1;
nodes = (
"512 0 LINE",
"264 401 LINE",
"494 713 LINE",
"430 713 LINE",
"154 343 LINE",
"154 713 LINE",
"99 713 LINE",
"99 0 LINE",
"154 0 LINE",
"154 252 LINE",
"229 355 LINE",
"446 0 LINE"
);
}
);
width = 600;
},
{
hints = (
{
place = "{87, 98}";
},
{
horizontal = 1;
place = "{0, 21}";
target = up;
type = BottomGhost;
},
{
horizontal = 1;
place = "{713, -20}";
target = down;
type = TopGhost;
}
);
layerId = "64F0AA26-A009-41C1-A946-C445650DA9E2";
paths = (
{
closed = 1;
nodes = (
"530 0 LINE",
"295 397 LINE",
"516 713 LINE",
"401 713 LINE",
"185 411 LINE",
"185 713 LINE",
"87 713 LINE",
"87 0 LINE",
"185 0 LINE",
"185 247 LINE",
"230 313 LINE",
"415 0 LINE"
);
}
);
width = 600;
}
);
unicode = 004B;
},
{
glyphname = L;
lastChange = "2017-10-07 14:26:38 +0000";
layers = (
{
hints = (
{
place = "{113, 55}";
},
{
horizontal = 1;
place = "{0, 54}";
},
{
horizontal = 1;
place = "{713, -20}";
target = down;
type = TopGhost;
}
);
layerId = UUID0;
paths = (
{
closed = 1;
nodes = (
"486 0 LINE",
"486 54 LINE",
"168 54 LINE",
"168 713 LINE",
"113 713 LINE",
"113 0 LINE"
);
}
);
width = 600;
},
{
hints = (
{
place = "{102, 98}";
},
{
horizontal = 1;
place = "{0, 96}";
},
{
horizontal = 1;
place = "{713, -20}";
target = down;
type = TopGhost;
}
);
layerId = "64F0AA26-A009-41C1-A946-C445650DA9E2";
paths = (
{
closed = 1;
nodes = (
"497 0 LINE",
"497 96 LINE",
"200 96 LINE",
"200 713 LINE",
"102 713 LINE",
"102 0 LINE"
);
}
);
width = 600;
}
);
unicode = 004C;
},
{
glyphname = Lslash;
lastChange = "2017-10-07 14:26:38 +0000";
layers = (
{
hints = (
{
place = "{142, 55}";
},
{
horizontal = 1;
place = "{0, 54}";
},
{
horizontal = 1;
place = "{259, 50}";
},
{
horizontal = 1;
place = "{713, -20}";
target = down;
type = TopGhost;
}
);
layerId = UUID0;
paths = (
{
closed = 1;
nodes = (
"515 0 LINE",
"515 54 LINE",
"197 54 LINE",
"197 259 LINE",
"507 259 LINE",
"507 309 LINE",
"197 309 LINE",
"197 713 LINE",
"142 713 LINE",
"142 309 LINE",
"85 309 LINE",
"85 259 LINE",
"142 259 LINE",
"142 0 LINE"
);
}
);
width = 600;
},
{
hints = (
{
place = "{128, 98}";
},
{
horizontal = 1;
place = "{0, 96}";
},
{
horizontal = 1;
place = "{242, 93}";
},
{
horizontal = 1;
place = "{713, -20}";
target = down;
type = TopGhost;
}
);
layerId = "64F0AA26-A009-41C1-A946-C445650DA9E2";
paths = (
{
closed = 1;
nodes = (
"521 0 LINE",
"521 96 LINE",
"226 96 LINE",
"226 242 LINE",
"515 242 LINE",
"515 335 LINE",
"226 335 LINE",
"226 713 LINE",
"128 713 LINE",
"128 335 LINE",
"75 335 LINE",
"75 242 LINE",
"128 242 LINE",
"128 0 LINE"
);
}
);
width = 600;
}
);
unicode = 0141;
},
{
color = (235,0,255,1);
glyphname = M;
lastChange = "2017-10-07 14:26:38 +0000";
layers = (
{
hints = (
{
place = "{76, 55}";
},
{
place = "{519, 55}";
},
{
horizontal = 1;
place = "{0, 21}";
target = up;
type = BottomGhost;
},
{
horizontal = 1;
place = "{713, -20}";
target = down;
type = TopGhost;
}
);
layerId = UUID0;
paths = (
{
closed = 1;
nodes = (
"131 0 LINE",
"131 636 LINE",
"299 227 LINE",
"351 227 LINE",
"519 636 LINE",
"519 0 LINE",
"574 0 LINE",
"574 713 LINE",
"493 713 LINE",
"325 296 LINE",
"155 713 LINE",
"76 713 LINE",
"76 0 LINE"
);
}
);
width = 650;
},
{
hints = (
{
place = "{69, 98}";
},
{
place = "{483, 98}";
},
{
horizontal = 1;
place = "{0, 21}";
target = up;
type = BottomGhost;
},
{
horizontal = 1;
place = "{713, -20}";
target = down;
type = TopGhost;
}
);
layerId = "64F0AA26-A009-41C1-A946-C445650DA9E2";
paths = (
{
closed = 1;
nodes = (
"167 0 LINE",
"167 502 LINE",
"286 212 LINE",
"364 212 LINE",
"483 501 LINE",
"483 0 LINE",
"581 0 LINE",
"581 713 LINE",
"467 713 LINE",
"325 366 LINE",
"181 713 LINE",
"69 713 LINE",
"69 0 LINE"
);
}
);
width = 650;
}
);
unicode = 004D;
},
{
glyphname = N;
lastChange = "2017-10-07 14:26:38 +0000";
layers = (
{
background = {
paths = (
{
closed = 1;
nodes = (
"499 0 LINE",
"499 713 LINE",
"444 713 LINE",
"444 77 LINE",
"175 713 LINE",
"101 713 LINE",
"101 0 LINE",
"156 0 LINE",
"156 628 LINE",
"422 0 LINE"
);
}
);
};
hints = (
{
place = "{101, 55}";
},
{
place = "{444, 55}";
},
{
horizontal = 1;
place = "{0, 21}";
target = up;
type = BottomGhost;
},
{
horizontal = 1;
place = "{713, -20}";
target = down;
type = TopGhost;
}
);
layerId = UUID0;
paths = (
{
closed = 1;
nodes = (
"499 0 LINE",
"499 713 LINE",
"444 713 LINE",
"444 81 LINE",
"175 713 LINE",
"101 713 LINE",
"101 0 LINE",
"156 0 LINE",
"156 625 LINE",
"422 0 LINE"
);
}
);
width = 600;
},
{
hints = (
{
place = "{91, 98}";
},
{
place = "{410, 98}";
},
{
horizontal = 1;
place = "{0, 21}";
target = up;
type = BottomGhost;
},
{
horizontal = 1;
place = "{713, -20}";
target = down;
type = TopGhost;
}
);
layerId = "64F0AA26-A009-41C1-A946-C445650DA9E2";
paths = (
{
closed = 1;
nodes = (
"508 0 LINE",
"508 713 LINE",
"410 713 LINE",
"410 210 LINE",
"198 713 LINE",
"91 713 LINE",
"91 0 LINE",
"189 0 LINE",
"189 495 LINE",
"399 0 LINE"
);
}
);
width = 600;
}
);
unicode = 004E;
},
{
glyphname = Eng;
lastChange = "2017-10-07 14:26:38 +0000";
layers = (
{
hints = (
{
place = "{101, 55}";
},
{
place = "{444, 55}";
},
{
horizontal = 1;
place = "{-226, 54}";
},
{
horizontal = 1;
place = "{713, -20}";
target = down;
type = TopGhost;
},
{
horizontal = 1;
place = "{0, 21}";
target = up;
type = BottomGhost;
}
);
layerId = UUID0;
paths = (
{
closed = 1;
nodes = (
"499 713 LINE",
"444 713 LINE",
"444 77 LINE",
"175 713 LINE",
"101 713 LINE",
"101 0 LINE",
"156 0 LINE",
"156 628 LINE",
"422 0 LINE",
"444 0 LINE",
"444 -48 LINE SMOOTH",
"444 -151 OFFCURVE",
"376 -172 OFFCURVE",
"323 -172 CURVE",
"322 -226 LINE",
"433 -226 OFFCURVE",
"499 -157 OFFCURVE",
"499 -42 CURVE"
);
}
);
width = 600;
},
{
hints = (
{
place = "{91, 98}";
},
{
place = "{410, 98}";
},
{
horizontal = 1;
place = "{713, -20}";
target = down;
type = TopGhost;
},
{
horizontal = 1;
place = "{0, 21}";
target = up;
type = BottomGhost;
},
{
horizontal = 1;
place = "{-214, 21}";
target = up;
type = BottomGhost;
}
);
layerId = "64F0AA26-A009-41C1-A946-C445650DA9E2";
paths = (
{
closed = 1;
nodes = (
"508 713 LINE",
"410 713 LINE",
"410 210 LINE",
"198 713 LINE",
"91 713 LINE",
"91 0 LINE",
"189 0 LINE",
"189 495 LINE",
"410 -26 LINE",
"409 -102 OFFCURVE",
"360 -117 OFFCURVE",
"322 -117 CURVE",
"321 -214 LINE",
"440 -214 OFFCURVE",
"508 -141 OFFCURVE",
"508 -18 CURVE"
);
}
);
width = 600;
}
);
unicode = 014A;
},
{
color = (235,0,255,1);
glyphname = O;
lastChange = "2017-10-07 14:26:38 +0000";
layers = (
{
background = {
paths = (
{
closed = 1;
nodes = (
"496 536 LINE SMOOTH",
"496 596 OFFCURVE",
"453 720 OFFCURVE",
"300 720 CURVE SMOOTH",
"144 720 OFFCURVE",
"103 596 OFFCURVE",
"103 537 CURVE SMOOTH",
"103 177 LINE SMOOTH",
"103 116 OFFCURVE",
"146 -9 OFFCURVE",
"299 -9 CURVE SMOOTH",
"455 -9 OFFCURVE",
"496 115 OFFCURVE",
"496 176 CURVE"
);
},
{
closed = 1;
nodes = (
"441 177 LINE SMOOTH",
"441 63 OFFCURVE",
"346 45 OFFCURVE",
"300 45 CURVE SMOOTH",
"254 45 OFFCURVE",
"158 63 OFFCURVE",
"158 177 CURVE SMOOTH",
"158 535 LINE SMOOTH",
"158 649 OFFCURVE",
"254 666 OFFCURVE",
"300 666 CURVE SMOOTH",
"346 666 OFFCURVE",
"441 649 OFFCURVE",
"441 535 CURVE SMOOTH"
);
}
);
};
hints = (
{
place = "{103, 55}";
},
{
place = "{441, 55}";
},
{
horizontal = 1;
place = "{0, 54}";
},
{
horizontal = 1;
place = "{659, 54}";
}
);
layerId = UUID0;
paths = (
{
closed = 1;
nodes = (
"419 -9 OFFCURVE",
"496 65 OFFCURVE",
"496 175 CURVE SMOOTH",
"496 536 LINE SMOOTH",
"496 646 OFFCURVE",
"419 720 OFFCURVE",
"300 720 CURVE SMOOTH",
"179 720 OFFCURVE",
"103 646 OFFCURVE",
"103 537 CURVE SMOOTH",
"103 174 LINE SMOOTH",
"103 65 OFFCURVE",
"179 -9 OFFCURVE",
"300 -9 CURVE SMOOTH"
);
},
{
closed = 1;
nodes = (
"441 176 LINE SMOOTH",
"441 82 OFFCURVE",
"378 45 OFFCURVE",
"300 45 CURVE SMOOTH",
"222 45 OFFCURVE",
"158 82 OFFCURVE",
"158 176 CURVE SMOOTH",
"158 535 LINE SMOOTH",
"158 629 OFFCURVE",
"222 666 OFFCURVE",
"300 666 CURVE SMOOTH",
"378 666 OFFCURVE",
"441 629 OFFCURVE",
"441 535 CURVE"
);
}
);
width = 600;
},
{
hints = (
{
place = "{94, 98}";
},
{
place = "{409, 98}";
},
{
horizontal = 1;
place = "{0, 96}";
},
{
horizontal = 1;
place = "{617, 96}";
}
);
layerId = "64F0AA26-A009-41C1-A946-C445650DA9E2";
paths = (
{
closed = 1;
nodes = (
"507 526 LINE SMOOTH",
"507 590 OFFCURVE",
"460 720 OFFCURVE",
"301 720 CURVE SMOOTH",
"135 720 OFFCURVE",
"94 590 OFFCURVE",
"94 527 CURVE SMOOTH",
"94 189 LINE SMOOTH",
"94 124 OFFCURVE",
"139 -9 OFFCURVE",
"300 -9 CURVE SMOOTH",
"464 -9 OFFCURVE",
"507 123 OFFCURVE",
"507 188 CURVE"
);
},
{
closed = 1;
nodes = (
"409 188 LINE",
"409 100 OFFCURVE",
"335 87 OFFCURVE",
"301 87 CURVE SMOOTH",
"265 87 OFFCURVE",
"192 100 OFFCURVE",
"192 188 CURVE SMOOTH",
"192 524 LINE SMOOTH",
"192 611 OFFCURVE",
"265 624 OFFCURVE",
"301 624 CURVE SMOOTH",
"335 624 OFFCURVE",
"409 611 OFFCURVE",
"409 524 CURVE SMOOTH"
);
}
);
width = 600;
}
);
unicode = 004F;
},
{
color = (255,137,0,1);
glyphname = Ohorn;
lastChange = "2017-10-07 14:26:38 +0000";
layers = (
{
background = {
paths = (
{
closed = 1;
nodes = (
"399 -9 OFFCURVE",
"476 65 OFFCURVE",
"476 175 CURVE SMOOTH",
"476 536 LINE SMOOTH",
"476 646 OFFCURVE",
"399 720 OFFCURVE",
"280 720 CURVE SMOOTH",
"159 720 OFFCURVE",
"83 646 OFFCURVE",
"83 537 CURVE SMOOTH",
"83 174 LINE SMOOTH",
"83 65 OFFCURVE",
"159 -9 OFFCURVE",
"280 -9 CURVE SMOOTH"
);
},
{
closed = 1;
nodes = (
"421 176 LINE SMOOTH",
"421 82 OFFCURVE",
"358 45 OFFCURVE",
"280 45 CURVE SMOOTH",
"202 45 OFFCURVE",
"138 82 OFFCURVE",
"138 176 CURVE SMOOTH",
"138 535 LINE SMOOTH",
"138 629 OFFCURVE",
"202 666 OFFCURVE",
"280 666 CURVE SMOOTH",
"358 666 OFFCURVE",
"421 629 OFFCURVE",
"421 535 CURVE"
);
},
{
closed = 1;
nodes = (
"538 713 LINE",
"538 652 LINE SMOOTH",
"538 611 OFFCURVE",
"518 582 OFFCURVE",
"474 582 CURVE SMOOTH",
"450 582 LINE",
"454 529 LINE",
"469 529 LINE SMOOTH",
"555 529 OFFCURVE",
"591 575 OFFCURVE",
"591 651 CURVE SMOOTH",
"591 713 LINE"
);
}
);
};
hints = (
{
place = "{83, 55}";
},
{
place = "{421, 55}";
},
{
horizontal = 1;
place = "{0, 54}";
},
{
horizontal = 1;
place = "{658, 54}";
}
);
layerId = UUID0;
paths = (
{
closed = 1;
nodes = (
"538 713 LINE",
"538 652 LINE SMOOTH",
"538 611 OFFCURVE",
"518 582 OFFCURVE",
"474 582 CURVE SMOOTH",
"471 582 LINE",
"452 666 OFFCURVE",
"381 720 OFFCURVE",
"280 720 CURVE SMOOTH",
"159 720 OFFCURVE",
"83 646 OFFCURVE",
"83 537 CURVE SMOOTH",
"83 174 LINE SMOOTH",
"83 65 OFFCURVE",
"159 -9 OFFCURVE",
"280 -9 CURVE SMOOTH",
"399 -9 OFFCURVE",
"476 65 OFFCURVE",
"476 175 CURVE SMOOTH",
"476 529 LINE",
"557 531 OFFCURVE",
"591 577 OFFCURVE",
"591 651 CURVE SMOOTH",
"591 713 LINE"
);
},
{
closed = 1;
nodes = (
"421 176 LINE SMOOTH",
"421 82 OFFCURVE",
"358 45 OFFCURVE",
"280 45 CURVE SMOOTH",
"202 45 OFFCURVE",
"138 82 OFFCURVE",
"138 176 CURVE SMOOTH",
"138 535 LINE SMOOTH",
"138 629 OFFCURVE",
"202 666 OFFCURVE",
"280 666 CURVE SMOOTH",
"358 666 OFFCURVE",
"421 629 OFFCURVE",
"421 535 CURVE"
);
}
);
width = 600;
},
{
background = {
paths = (
{
closed = 1;
nodes = (
"1054 -9 OFFCURVE",
"1131 65 OFFCURVE",
"1131 175 CURVE SMOOTH",
"1131 536 LINE SMOOTH",
"1131 646 OFFCURVE",
"1054 720 OFFCURVE",
"935 720 CURVE SMOOTH",
"814 720 OFFCURVE",
"738 646 OFFCURVE",
"738 537 CURVE SMOOTH",
"738 174 LINE SMOOTH",
"738 65 OFFCURVE",
"814 -9 OFFCURVE",
"935 -9 CURVE SMOOTH"
);
},
{
closed = 1;
nodes = (
"1076 176 LINE SMOOTH",
"1076 82 OFFCURVE",
"1013 45 OFFCURVE",
"935 45 CURVE SMOOTH",
"857 45 OFFCURVE",
"793 82 OFFCURVE",
"793 176 CURVE SMOOTH",
"793 535 LINE SMOOTH",
"793 629 OFFCURVE",
"857 666 OFFCURVE",
"935 666 CURVE SMOOTH",
"1013 666 OFFCURVE",
"1076 629 OFFCURVE",
"1076 535 CURVE"
);
},
{
closed = 1;
nodes = (
"1193 713 LINE",
"1193 652 LINE SMOOTH",
"1193 611 OFFCURVE",
"1173 582 OFFCURVE",
"1129 582 CURVE SMOOTH",
"1105 582 LINE",
"1109 529 LINE",
"1124 529 LINE SMOOTH",
"1210 529 OFFCURVE",
"1246 575 OFFCURVE",
"1246 651 CURVE SMOOTH",
"1246 713 LINE"
);
},
{
closed = 1;
nodes = (
"516 713 LINE",
"516 642 LINE SMOOTH",
"516 607 OFFCURVE",
"499 582 OFFCURVE",
"462 582 CURVE SMOOTH",
"427 582 LINE",
"433 509 LINE",
"457 509 LINE SMOOTH",
"550 509 OFFCURVE",
"589 559 OFFCURVE",
"589 641 CURVE SMOOTH",
"589 713 LINE"
);
},
{
closed = 1;
nodes = (
"476 525 LINE SMOOTH",
"476 589 OFFCURVE",
"429 719 OFFCURVE",
"270 719 CURVE SMOOTH",
"104 719 OFFCURVE",
"63 589 OFFCURVE",
"63 526 CURVE SMOOTH",
"63 189 LINE SMOOTH",
"63 124 OFFCURVE",
"108 -9 OFFCURVE",
"269 -9 CURVE SMOOTH",
"433 -9 OFFCURVE",
"476 123 OFFCURVE",
"476 188 CURVE"
);
},
{
closed = 1;
nodes = (
"378 188 LINE SMOOTH",
"378 100 OFFCURVE",
"304 87 OFFCURVE",
"270 87 CURVE SMOOTH",
"234 87 OFFCURVE",
"161 100 OFFCURVE",
"161 188 CURVE SMOOTH",
"161 523 LINE SMOOTH",
"161 610 OFFCURVE",
"234 623 OFFCURVE",
"270 623 CURVE SMOOTH",
"304 623 OFFCURVE",
"378 610 OFFCURVE",
"378 523 CURVE SMOOTH"
);
}
);
};
hints = (
{
place = "{63, 98}";
},
{
place = "{378, 98}";
},
{
place = "{516, 73}";
},
{
horizontal = 1;
place = "{0, 96}";
},
{
horizontal = 1;
place = "{509, 73}";
},
{
horizontal = 1;
place = "{617, 96}";
},
{
horizontal = 1;
place = "{713, -20}";
target = down;
type = TopGhost;
}
);
layerId = "64F0AA26-A009-41C1-A946-C445650DA9E2";
paths = (
{
closed = 1;
nodes = (
"476 510 LINE",
"555 516 OFFCURVE",
"589 565 OFFCURVE",
"589 641 CURVE SMOOTH",
"589 713 LINE",
"516 713 LINE",
"516 642 LINE SMOOTH",
"516 608 OFFCURVE",
"500 583 OFFCURVE",
"466 582 CURVE",
"445 645 OFFCURVE",
"389 719 OFFCURVE",
"270 719 CURVE SMOOTH",
"104 719 OFFCURVE",
"63 589 OFFCURVE",
"63 526 CURVE SMOOTH",
"63 189 LINE SMOOTH",
"63 124 OFFCURVE",
"108 -9 OFFCURVE",
"269 -9 CURVE SMOOTH",
"433 -9 OFFCURVE",
"476 123 OFFCURVE",
"476 188 CURVE"
);
},
{
closed = 1;
nodes = (
"378 188 LINE SMOOTH",
"378 100 OFFCURVE",
"304 87 OFFCURVE",
"270 87 CURVE SMOOTH",
"234 87 OFFCURVE",
"161 100 OFFCURVE",
"161 188 CURVE SMOOTH",
"161 523 LINE SMOOTH",
"161 610 OFFCURVE",
"234 623 OFFCURVE",
"270 623 CURVE SMOOTH",
"304 623 OFFCURVE",
"378 610 OFFCURVE",
"378 523 CURVE SMOOTH"
);
}
);
width = 600;
}
);
unicode = 01A0;
},
{
glyphname = Oslash;
lastChange = "2017-10-07 14:26:38 +0000";
layers = (
{
layerId = UUID0;
paths = (
{
closed = 1;
nodes = (
"496 536 LINE SMOOTH",
"496 572 OFFCURVE",
"480 633 OFFCURVE",
"432 674 CURVE",
"464 771 LINE",
"410 771 LINE",
"388 703 LINE",
"364 714 OFFCURVE",
"334 720 OFFCURVE",
"300 720 CURVE SMOOTH",
"144 720 OFFCURVE",
"103 596 OFFCURVE",
"103 537 CURVE SMOOTH",
"103 177 LINE SMOOTH",
"103 139 OFFCURVE",
"119 77 OFFCURVE",
"168 35 CURVE",
"139 -54 LINE",
"195 -54 LINE",
"215 6 LINE",
"238 -3 OFFCURVE",
"266 -9 OFFCURVE",
"299 -9 CURVE SMOOTH",
"455 -9 OFFCURVE",
"496 115 OFFCURVE",
"496 176 CURVE"
);
},
{
closed = 1;
nodes = (
"158 535 LINE SMOOTH",
"158 649 OFFCURVE",
"254 666 OFFCURVE",
"300 666 CURVE SMOOTH",
"319 666 OFFCURVE",
"345 663 OFFCURVE",
"371 652 CURVE",
"186 89 LINE",
"169 109 OFFCURVE",
"158 137 OFFCURVE",
"158 177 CURVE"
);
},
{
closed = 1;
nodes = (
"441 177 LINE",
"441 63 OFFCURVE",
"346 45 OFFCURVE",
"300 45 CURVE SMOOTH",
"282 45 OFFCURVE",
"256 47 OFFCURVE",
"231 58 CURVE",
"414 619 LINE",
"430 600 OFFCURVE",
"441 573 OFFCURVE",
"441 535 CURVE SMOOTH"
);
}
);
width = 600;
},
{
background = {
paths = (
{
closed = 1;
nodes = (
"1024 751 LINE",
"1010 709 LINE",
"990 715 OFFCURVE",
"969 718 OFFCURVE",
"945 718 CURVE SMOOTH",
"779 718 OFFCURVE",
"738 588 OFFCURVE",
"738 525 CURVE SMOOTH",
"738 189 LINE SMOOTH",
"738 152 OFFCURVE",
"752 94 OFFCURVE",
"794 50 CURVE",
"761 -50 LINE",
"856 -50 LINE",
"872 1 LINE",
"893 -5 OFFCURVE",
"917 -9 OFFCURVE",
"944 -9 CURVE SMOOTH",
"1108 -9 OFFCURVE",
"1151 123 OFFCURVE",
"1151 188 CURVE SMOOTH",
"1151 524 LINE SMOOTH",
"1151 561 OFFCURVE",
"1135 621 OFFCURVE",
"1089 665 CURVE",
"1117 751 LINE"
);
},
{
closed = 1;
nodes = (
"1053 188 LINE SMOOTH",
"1053 100 OFFCURVE",
"979 87 OFFCURVE",
"945 87 CURVE SMOOTH",
"933 87 OFFCURVE",
"918 88 OFFCURVE",
"902 93 CURVE",
"1051 547 LINE",
"1052 539 OFFCURVE",
"1053 531 OFFCURVE",
"1053 522 CURVE SMOOTH"
);
},
{
closed = 1;
nodes = (
"836 188 LINE",
"836 522 LINE SMOOTH",
"836 609 OFFCURVE",
"909 622 OFFCURVE",
"945 622 CURVE SMOOTH",
"954 622 OFFCURVE",
"967 621 OFFCURVE",
"980 618 CURVE",
"836 179 LINE"
);
},
{
closed = 1;
nodes = (
"507 524 LINE SMOOTH",
"507 588 OFFCURVE",
"460 718 OFFCURVE",
"301 718 CURVE SMOOTH",
"135 718 OFFCURVE",
"94 588 OFFCURVE",
"94 525 CURVE SMOOTH",
"94 189 LINE SMOOTH",
"94 124 OFFCURVE",
"139 -9 OFFCURVE",
"300 -9 CURVE SMOOTH",
"464 -9 OFFCURVE",
"507 123 OFFCURVE",
"507 188 CURVE"
);
},
{
closed = 1;
nodes = (
"409 188 LINE SMOOTH",
"409 100 OFFCURVE",
"335 87 OFFCURVE",
"301 87 CURVE SMOOTH",
"265 87 OFFCURVE",
"192 100 OFFCURVE",
"192 188 CURVE SMOOTH",
"192 522 LINE SMOOTH",
"192 609 OFFCURVE",
"265 622 OFFCURVE",
"301 622 CURVE SMOOTH",
"335 622 OFFCURVE",
"409 609 OFFCURVE",
"409 522 CURVE SMOOTH"
);
},
{
closed = 1;
nodes = (
"513 757 LINE",
"458 757 LINE",
"78 -54 LINE",
"134 -54 LINE"
);
}
);
};
hints = (
{
place = "{94, 98}";
},
{
place = "{409, 98}";
},
{
horizontal = 1;
place = "{0, 96}";
},
{
horizontal = 1;
place = "{617, 96}";
},
{
horizontal = 1;
place = "{750, -20}";
target = down;
type = TopGhost;
},
{
horizontal = 1;
place = "{-50, 21}";
target = up;
type = BottomGhost;
}
);
layerId = "64F0AA26-A009-41C1-A946-C445650DA9E2";
paths = (
{
closed = 1;
nodes = (
"507 524 LINE SMOOTH",
"507 556 OFFCURVE",
"494 606 OFFCURVE",
"461 647 CURVE",
"513 757 LINE",
"458 757 LINE",
"423 683 LINE",
"393 704 OFFCURVE",
"353 718 OFFCURVE",
"301 718 CURVE SMOOTH",
"135 718 OFFCURVE",
"94 588 OFFCURVE",
"94 525 CURVE SMOOTH",
"94 189 LINE SMOOTH",
"94 157 OFFCURVE",
"104 108 OFFCURVE",
"135 67 CURVE",
"78 -54 LINE",
"134 -54 LINE",
"173 29 LINE",
"204 6 OFFCURVE",
"245 -9 OFFCURVE",
"300 -9 CURVE SMOOTH",
"464 -9 OFFCURVE",
"507 123 OFFCURVE",
"507 188 CURVE"
);
},
{
closed = 1;
nodes = (
"409 188 LINE SMOOTH",
"409 100 OFFCURVE",
"335 87 OFFCURVE",
"301 87 CURVE SMOOTH",
"278 87 OFFCURVE",
"239 92 OFFCURVE",
"215 119 CURVE",
"408 533 LINE",
"409 530 OFFCURVE",
"409 526 OFFCURVE",
"409 522 CURVE SMOOTH"
);
},
{
closed = 1;
nodes = (
"192 522 LINE SMOOTH",
"192 609 OFFCURVE",
"265 622 OFFCURVE",
"301 622 CURVE SMOOTH",
"321 622 OFFCURVE",
"357 617 OFFCURVE",
"381 594 CURVE",
"192 189 LINE"
);
}
);
width = 600;
}
);
unicode = 00D8;
},
{
glyphname = OE;
lastChange = "2017-10-07 14:26:38 +0000";
layers = (
{
hints = (
{
place = "{94, 55}";
},
{
place = "{432, 55}";
},
{
horizontal = 1;
place = "{-9, 63}";
},
{
horizontal = 1;
place = "{351, 54}";
},
{
horizontal = 1;
place = "{659, 54}";
}
);
layerId = UUID0;
paths = (
{
closed = 1;
nodes = (
"806 0 LINE",
"806 54 LINE",
"487 54 LINE",
"487 351 LINE",
"782 351 LINE",
"782 405 LINE",
"487 405 LINE",
"487 659 LINE",
"806 659 LINE",
"806 713 LINE",
"432 713 LINE",
"432 667 LINE",
"401 697 OFFCURVE",
"356 720 OFFCURVE",
"291 720 CURVE SMOOTH",
"135 720 OFFCURVE",
"94 596 OFFCURVE",
"94 537 CURVE SMOOTH",
"94 177 LINE SMOOTH",
"94 116 OFFCURVE",
"137 -9 OFFCURVE",
"290 -9 CURVE SMOOTH",
"356 -9 OFFCURVE",
"401 13 OFFCURVE",
"432 43 CURVE",
"432 0 LINE"
);
},
{
closed = 1;
nodes = (
"432 168 LINE",
"427 62 OFFCURVE",
"336 45 OFFCURVE",
"291 45 CURVE SMOOTH",
"245 45 OFFCURVE",
"149 63 OFFCURVE",
"149 177 CURVE SMOOTH",
"149 535 LINE SMOOTH",
"149 649 OFFCURVE",
"245 666 OFFCURVE",
"291 666 CURVE SMOOTH",
"337 666 OFFCURVE",
"432 649 OFFCURVE",
"432 535 CURVE SMOOTH"
);
}
);
width = 900;
},
{
background = {
paths = (
{
closed = 1;
nodes = (
"806 0 LINE",
"806 96 LINE",
"507 96 LINE",
"507 328 LINE",
"784 328 LINE",
"784 424 LINE",
"507 424 LINE",
"507 616 LINE",
"806 616 LINE",
"806 713 LINE",
"410 713 LINE",
"410 692 LINE",
"381 708 OFFCURVE",
"345 718 OFFCURVE",
"301 718 CURVE SMOOTH",
"137 718 OFFCURVE",
"94 588 OFFCURVE",
"94 525 CURVE SMOOTH",
"94 189 LINE SMOOTH",
"94 124 OFFCURVE",
"141 -9 OFFCURVE",
"300 -9 CURVE SMOOTH",
"344 -9 OFFCURVE",
"381 2 OFFCURVE",
"410 17 CURVE",
"410 0 LINE"
);
},
{
closed = 1;
nodes = (
"266 88 OFFCURVE",
"192 101 OFFCURVE",
"192 189 CURVE SMOOTH",
"192 523 LINE SMOOTH",
"192 610 OFFCURVE",
"266 623 OFFCURVE",
"301 623 CURVE SMOOTH",
"337 623 OFFCURVE",
"410 610 OFFCURVE",
"410 523 CURVE SMOOTH",
"410 182 LINE",
"408 101 OFFCURVE",
"336 88 OFFCURVE",
"301 88 CURVE SMOOTH"
);
}
);
};
hints = (
{
place = "{94, 98}";
},
{
place = "{409, 98}";
},
{
horizontal = 1;
place = "{328, 96}";
},
{
horizontal = 1;
place = "{617, 96}";
},
{
horizontal = 1;
place = "{96, -96}";
}
);
layerId = "64F0AA26-A009-41C1-A946-C445650DA9E2";
paths = (
{
closed = 1;
nodes = (
"805 0 LINE",
"805 96 LINE",
"507 96 LINE",
"507 328 LINE",
"783 328 LINE",
"783 424 LINE",
"507 424 LINE",
"507 617 LINE",
"805 617 LINE",
"805 713 LINE",
"409 713 LINE",
"409 692 LINE",
"380 708 OFFCURVE",
"345 718 OFFCURVE",
"301 718 CURVE SMOOTH",
"135 718 OFFCURVE",
"94 588 OFFCURVE",
"94 525 CURVE SMOOTH",
"94 189 LINE SMOOTH",
"94 124 OFFCURVE",
"139 -9 OFFCURVE",
"300 -9 CURVE SMOOTH",
"345 -9 OFFCURVE",
"380 1 OFFCURVE",
"409 16 CURVE",
"409 0 LINE"
);
},
{
closed = 1;
nodes = (
"409 188 LINE SMOOTH",
"409 100 OFFCURVE",
"335 87 OFFCURVE",
"301 87 CURVE SMOOTH",
"265 87 OFFCURVE",
"192 100 OFFCURVE",
"192 188 CURVE SMOOTH",
"192 522 LINE SMOOTH",
"192 609 OFFCURVE",
"265 622 OFFCURVE",
"301 622 CURVE SMOOTH",
"335 622 OFFCURVE",
"409 609 OFFCURVE",
"409 522 CURVE SMOOTH"
);
}
);
width = 900;
}
);
unicode = 0152;
},
{
glyphname = P;
lastChange = "2017-10-07 14:26:38 +0000";
layers = (
{
hints = (
{
place = "{104, 55}";
},
{
place = "{442, 55}";
},
{
horizontal = 1;
place = "{291, 54}";
},
{
horizontal = 1;
place = "{659, 54}";
},
{
horizontal = 1;
place = "{0, 21}";
target = up;
type = BottomGhost;
}
);
layerId = UUID0;
paths = (
{
closed = 1;
nodes = (
"497 530 LINE SMOOTH",
"497 589 OFFCURVE",
"466 713 OFFCURVE",
"310 713 CURVE SMOOTH",
"104 713 LINE",
"104 0 LINE",
"159 0 LINE",
"159 291 LINE",
"314 291 LINE SMOOTH",
"467 291 OFFCURVE",
"497 415 OFFCURVE",
"497 476 CURVE"
);
},
{
closed = 1;
nodes = (
"442 477 LINE",
"442 363 OFFCURVE",
"357 345 OFFCURVE",
"310 345 CURVE SMOOTH",
"159 345 LINE",
"159 659 LINE",
"308 659 LINE SMOOTH",
"355 659 OFFCURVE",
"442 642 OFFCURVE",
"442 528 CURVE SMOOTH"
);
}
);
width = 600;
},
{
hints = (
{
place = "{93, 98}";
},
{
place = "{407, 98}";
},
{
horizontal = 1;
place = "{272, 96}";
},
{
horizontal = 1;
place = "{617, 96}";
},
{
horizontal = 1;
place = "{0, 21}";
target = up;
type = BottomGhost;
}
);
layerId = "64F0AA26-A009-41C1-A946-C445650DA9E2";
paths = (
{
closed = 1;
nodes = (
"505 518 LINE SMOOTH",
"505 581 OFFCURVE",
"473 713 OFFCURVE",
"308 713 CURVE SMOOTH",
"93 713 LINE",
"93 0 LINE",
"191 0 LINE",
"191 272 LINE",
"312 272 LINE SMOOTH",
"473 272 OFFCURVE",
"505 403 OFFCURVE",
"505 468 CURVE"
);
},
{
closed = 1;
nodes = (
"407 469 LINE",
"407 381 OFFCURVE",
"344 368 OFFCURVE",
"307 368 CURVE SMOOTH",
"191 368 LINE",
"191 617 LINE",
"305 617 LINE SMOOTH",
"342 617 OFFCURVE",
"407 603 OFFCURVE",
"407 516 CURVE SMOOTH"
);
}
);
width = 600;
}
);
unicode = 0050;
},
{
glyphname = Thorn;
lastChange = "2017-10-07 14:26:38 +0000";
layers = (
{
background = {
paths = (
{
closed = 1;
nodes = (
"94 713 LINE",
"94 0 LINE",
"149 0 LINE",
"149 166 LINE",
"319 166 LINE SMOOTH",
"435 166 OFFCURVE",
"506 242 OFFCURVE",
"506 360 CURVE SMOOTH",
"506 475 OFFCURVE",
"433 553 OFFCURVE",
"319 553 CURVE SMOOTH",
"149 553 LINE",
"149 713 LINE"
);
},
{
closed = 1;
nodes = (
"319 498 LINE SMOOTH",
"403 498 OFFCURVE",
"452 445 OFFCURVE",
"452 360 CURVE SMOOTH",
"452 248 OFFCURVE",
"379 221 OFFCURVE",
"319 221 CURVE SMOOTH",
"149 221 LINE",
"149 498 LINE"
);
}
);
};
hints = (
{
place = "{103, 55}";
},
{
place = "{441, 55}";
},
{
horizontal = 1;
place = "{156, 54}";
},
{
horizontal = 1;
place = "{524, 54}";
},
{
horizontal = 1;
place = "{713, -20}";
target = down;
type = TopGhost;
},
{
horizontal = 1;
place = "{0, 21}";
target = up;
type = BottomGhost;
}
);
layerId = UUID0;
paths = (
{
closed = 1;
nodes = (
"496 395 LINE SMOOTH",
"496 454 OFFCURVE",
"465 578 OFFCURVE",
"309 578 CURVE SMOOTH",
"158 578 LINE",
"158 713 LINE",
"103 713 LINE",
"103 0 LINE",
"158 0 LINE",
"158 156 LINE",
"313 156 LINE SMOOTH",
"466 156 OFFCURVE",
"496 280 OFFCURVE",
"496 341 CURVE"
);
},
{
closed = 1;
nodes = (
"441 342 LINE SMOOTH",
"441 228 OFFCURVE",
"356 210 OFFCURVE",
"309 210 CURVE SMOOTH",
"158 210 LINE",
"158 524 LINE",
"307 524 LINE SMOOTH",
"354 524 OFFCURVE",
"441 507 OFFCURVE",
"441 393 CURVE SMOOTH"
);
}
);
width = 600;
},
{
background = {
paths = (
{
closed = 1;
nodes = (
"88 713 LINE",
"88 0 LINE",
"184 0 LINE",
"184 155 LINE",
"322 155 LINE SMOOTH",
"443 155 OFFCURVE",
"519 236 OFFCURVE",
"519 360 CURVE SMOOTH",
"519 481 OFFCURVE",
"442 562 OFFCURVE",
"322 562 CURVE SMOOTH",
"184 562 LINE",
"184 713 LINE"
);
},
{
closed = 1;
nodes = (
"322 466 LINE SMOOTH",
"386 466 OFFCURVE",
"425 426 OFFCURVE",
"425 360 CURVE SMOOTH",
"425 272 OFFCURVE",
"369 251 OFFCURVE",
"322 251 CURVE SMOOTH",
"184 251 LINE",
"184 466 LINE"
);
}
);
};
hints = (
{
place = "{92, 98}";
},
{
place = "{407, 98}";
},
{
horizontal = 1;
place = "{143, 96}";
},
{
horizontal = 1;
place = "{488, 96}";
},
{
horizontal = 1;
place = "{713, -20}";
target = down;
type = TopGhost;
},
{
horizontal = 1;
place = "{0, 21}";
target = up;
type = BottomGhost;
}
);
layerId = "64F0AA26-A009-41C1-A946-C445650DA9E2";
paths = (
{
closed = 1;
nodes = (
"505 389 LINE SMOOTH",
"505 452 OFFCURVE",
"473 584 OFFCURVE",
"308 584 CURVE SMOOTH",
"190 584 LINE",
"190 713 LINE",
"92 713 LINE",
"92 0 LINE",
"190 0 LINE",
"190 143 LINE",
"312 143 LINE SMOOTH",
"473 143 OFFCURVE",
"505 274 OFFCURVE",
"505 339 CURVE"
);
},
{
closed = 1;
nodes = (
"407 340 LINE SMOOTH",
"407 252 OFFCURVE",
"344 239 OFFCURVE",
"307 239 CURVE SMOOTH",
"190 239 LINE",
"190 488 LINE",
"305 488 LINE SMOOTH",
"342 488 OFFCURVE",
"407 474 OFFCURVE",
"407 387 CURVE SMOOTH"
);
}
);
width = 600;
}
);
unicode = 00DE;
},
{
color = (235,0,255,1);
glyphname = Q;
lastChange = "2017-10-07 14:26:38 +0000";
layers = (
{
hints = (
{
place = "{103, 55}";
},
{
place = "{275, 50}";
},
{
place = "{441, 55}";
},
{
horizontal = 1;
place = "{659, 54}";
},
{
horizontal = 1;
place = "{-110, 21}";
target = up;
type = BottomGhost;
}
);
layerId = UUID0;
paths = (
{
closed = 1;
nodes = (
"275 -110 LINE",
"325 -110 LINE",
"325 -8 LINE",
"429 1 OFFCURVE",
"496 73 OFFCURVE",
"496 175 CURVE SMOOTH",
"496 536 LINE SMOOTH",
"496 646 OFFCURVE",
"419 720 OFFCURVE",
"300 720 CURVE SMOOTH",
"179 720 OFFCURVE",
"103 646 OFFCURVE",
"103 537 CURVE SMOOTH",
"103 174 LINE SMOOTH",
"103 72 OFFCURVE",
"168 1 OFFCURVE",
"275 -8 CURVE"
);
},
{
closed = 1;
nodes = (
"441 176 LINE SMOOTH",
"441 92 OFFCURVE",
"391 54 OFFCURVE",
"325 46 CURVE",
"325 188 LINE",
"275 188 LINE",
"275 46 LINE",
"209 54 OFFCURVE",
"158 92 OFFCURVE",
"158 176 CURVE SMOOTH",
"158 535 LINE SMOOTH",
"158 629 OFFCURVE",
"222 666 OFFCURVE",
"300 666 CURVE SMOOTH",
"378 666 OFFCURVE",
"441 629 OFFCURVE",
"441 535 CURVE"
);
}
);
width = 600;
},
{
hints = (
{
place = "{93, 98}";
},
{
place = "{252, 92}";
},
{
place = "{408, 98}";
},
{
horizontal = 1;
place = "{617, 96}";
},
{
horizontal = 1;
place = "{-102, 21}";
target = up;
type = BottomGhost;
}
);
layerId = "64F0AA26-A009-41C1-A946-C445650DA9E2";
paths = (
{
closed = 1;
nodes = (
"252 -102 LINE",
"344 -102 LINE",
"344 -6 LINE",
"479 12 OFFCURVE",
"506 129 OFFCURVE",
"506 188 CURVE SMOOTH",
"506 526 LINE SMOOTH",
"506 590 OFFCURVE",
"459 720 OFFCURVE",
"300 720 CURVE SMOOTH",
"134 720 OFFCURVE",
"93 590 OFFCURVE",
"93 527 CURVE SMOOTH",
"93 189 LINE SMOOTH",
"93 131 OFFCURVE",
"139 23 OFFCURVE",
"252 -4 CURVE"
);
},
{
closed = 1;
nodes = (
"408 187 LINE",
"408 128 OFFCURVE",
"376 101 OFFCURVE",
"344 92 CURVE",
"344 219 LINE",
"252 219 LINE",
"252 93 LINE",
"221 102 OFFCURVE",
"191 129 OFFCURVE",
"191 187 CURVE SMOOTH",
"191 524 LINE SMOOTH",
"191 611 OFFCURVE",
"264 624 OFFCURVE",
"300 624 CURVE SMOOTH",
"334 624 OFFCURVE",
"408 611 OFFCURVE",
"408 524 CURVE SMOOTH"
);
}
);
width = 600;
}
);
unicode = 0051;
},
{
glyphname = R;
lastChange = "2017-10-07 14:26:38 +0000";
layers = (
{
hints = (
{
place = "{98, 55}";
},
{
place = "{436, 55}";
},
{
horizontal = 1;
place = "{311, 54}";
},
{
horizontal = 1;
place = "{659, 54}";
},
{
horizontal = 1;
place = "{0, 21}";
target = up;
type = BottomGhost;
}
);
layerId = UUID0;
paths = (
{
closed = 1;
nodes = (
"502 0 LINE",
"352 315 LINE",
"467 339 OFFCURVE",
"491 442 OFFCURVE",
"491 496 CURVE SMOOTH",
"491 531 LINE SMOOTH",
"491 590 OFFCURVE",
"460 713 OFFCURVE",
"304 713 CURVE SMOOTH",
"98 713 LINE",
"98 0 LINE",
"153 0 LINE",
"153 311 LINE",
"294 311 LINE",
"439 0 LINE"
);
},
{
closed = 1;
nodes = (
"436 497 LINE",
"436 383 OFFCURVE",
"351 365 OFFCURVE",
"304 365 CURVE SMOOTH",
"153 365 LINE",
"153 659 LINE",
"302 659 LINE SMOOTH",
"349 659 OFFCURVE",
"436 642 OFFCURVE",
"436 528 CURVE SMOOTH"
);
}
);
width = 600;
},
{
hints = (
{
place = "{87, 98}";
},
{
place = "{403, 98}";
},
{
horizontal = 1;
place = "{291, 96}";
},
{
horizontal = 1;
place = "{617, 96}";
},
{
horizontal = 1;
place = "{0, 21}";
target = up;
type = BottomGhost;
}
);
layerId = "64F0AA26-A009-41C1-A946-C445650DA9E2";
paths = (
{
closed = 1;
nodes = (
"524 0 LINE",
"381 302 LINE",
"478 337 OFFCURVE",
"501 434 OFFCURVE",
"501 486 CURVE SMOOTH",
"501 519 LINE SMOOTH",
"501 582 OFFCURVE",
"468 713 OFFCURVE",
"302 713 CURVE SMOOTH",
"87 713 LINE",
"87 0 LINE",
"185 0 LINE",
"185 291 LINE",
"278 291 LINE",
"414 0 LINE"
);
},
{
closed = 1;
nodes = (
"403 487 LINE",
"403 400 OFFCURVE",
"339 387 OFFCURVE",
"302 387 CURVE SMOOTH",
"185 387 LINE",
"185 617 LINE",
"300 617 LINE SMOOTH",
"337 617 OFFCURVE",
"403 603 OFFCURVE",
"403 516 CURVE SMOOTH"
);
}
);
width = 600;
}
);
unicode = 0052;
},
{
color = (31,255,0,1);
glyphname = S;
lastChange = "2017-10-07 14:26:38 +0000";
layers = (
{
hints = (
{
place = "{94, 55}";
},
{
place = "{451, 55}";
},
{
horizontal = 1;
place = "{0, 54}";
},
{
horizontal = 1;
place = "{659, 54}";
}
);
layerId = UUID0;
paths = (
{
closed = 1;
nodes = (
"506 253 OFFCURVE",
"467 314 OFFCURVE",
"398 352 CURVE SMOOTH",
"336 386 OFFCURVE",
"284 412 OFFCURVE",
"233 438 CURVE SMOOTH",
"186 462 OFFCURVE",
"161 499 OFFCURVE",
"161 544 CURVE SMOOTH",
"161 624 OFFCURVE",
"221 666 OFFCURVE",
"297 666 CURVE SMOOTH",
"379 666 OFFCURVE",
"440 622 OFFCURVE",
"440 538 CURVE",
"495 538 LINE",
"495 644 OFFCURVE",
"414 720 OFFCURVE",
"297 720 CURVE SMOOTH",
"185 720 OFFCURVE",
"106 648 OFFCURVE",
"106 547 CURVE SMOOTH",
"106 480 OFFCURVE",
"144 425 OFFCURVE",
"198 396 CURVE SMOOTH",
"257 364 OFFCURVE",
"311 338 OFFCURVE",
"373 303 CURVE SMOOTH",
"421 276 OFFCURVE",
"451 240 OFFCURVE",
"451 178 CURVE SMOOTH",
"451 100 OFFCURVE",
"390 45 OFFCURVE",
"295 45 CURVE SMOOTH",
"211 45 OFFCURVE",
"149 93 OFFCURVE",
"149 176 CURVE",
"94 176 LINE",
"94 72 OFFCURVE",
"173 -9 OFFCURVE",
"296 -9 CURVE SMOOTH",
"413 -9 OFFCURVE",
"506 69 OFFCURVE",
"506 176 CURVE SMOOTH"
);
}
);
width = 600;
},
{
hints = (
{
place = "{97, 98}";
},
{
place = "{417, 98}";
},
{
horizontal = 1;
place = "{0, 96}";
},
{
horizontal = 1;
place = "{617, 96}";
}
);
layerId = "64F0AA26-A009-41C1-A946-C445650DA9E2";
paths = (
{
closed = 1;
nodes = (
"515 269 OFFCURVE",
"476 335 OFFCURVE",
"403 374 CURVE",
"357 400 OFFCURVE",
"305 424 OFFCURVE",
"248 453 CURVE SMOOTH",
"213 471 OFFCURVE",
"195 498 OFFCURVE",
"195 532 CURVE SMOOTH",
"195 591 OFFCURVE",
"240 624 OFFCURVE",
"298 624 CURVE SMOOTH",
"361 624 OFFCURVE",
"408 589 OFFCURVE",
"408 526 CURVE",
"506 526 LINE",
"506 638 OFFCURVE",
"421 720 OFFCURVE",
"298 720 CURVE SMOOTH",
"180 720 OFFCURVE",
"97 642 OFFCURVE",
"97 534 CURVE SMOOTH",
"97 462 OFFCURVE",
"137 399 OFFCURVE",
"194 371 CURVE SMOOTH",
"281 328 OFFCURVE",
"328 303 OFFCURVE",
"357 286 CURVE SMOOTH",
"393 265 OFFCURVE",
"418 236 OFFCURVE",
"418 190 CURVE SMOOTH",
"418 130 OFFCURVE",
"371 87 OFFCURVE",
"296 87 CURVE SMOOTH",
"230 87 OFFCURVE",
"182 123 OFFCURVE",
"182 188 CURVE",
"84 188 LINE",
"84 76 OFFCURVE",
"168 -9 OFFCURVE",
"297 -9 CURVE SMOOTH",
"420 -9 OFFCURVE",
"515 74 OFFCURVE",
"515 188 CURVE SMOOTH"
);
}
);
width = 600;
}
);
unicode = 0053;
},
{
color = (31,255,0,1);
glyphname = uni018F;
lastChange = "2017-10-07 14:26:38 +0000";
layers = (
{
background = {
paths = (
{
closed = 1;
nodes = (
"158 536 LINE",
"158 629 OFFCURVE",
"221 666 OFFCURVE",
"299 666 CURVE SMOOTH",
"377 666 OFFCURVE",
"441 629 OFFCURVE",
"441 535 CURVE SMOOTH",
"441 176 LINE SMOOTH",
"441 82 OFFCURVE",
"377 45 OFFCURVE",
"299 45 CURVE SMOOTH",
"222 45 OFFCURVE",
"159 81 OFFCURVE",
"158 174 CURVE",
"158 328 LINE",
"469 328 LINE",
"469 382 LINE",
"103 382 LINE",
"103 175 LINE SMOOTH",
"103 65 OFFCURVE",
"180 -9 OFFCURVE",
"299 -9 CURVE SMOOTH",
"420 -9 OFFCURVE",
"496 65 OFFCURVE",
"496 174 CURVE SMOOTH",
"496 537 LINE SMOOTH",
"496 646 OFFCURVE",
"420 720 OFFCURVE",
"299 720 CURVE SMOOTH",
"180 720 OFFCURVE",
"103 646 OFFCURVE",
"103 536 CURVE"
);
}
);
};
hints = (
{
place = "{103, 55}";
},
{
place = "{441, 55}";
},
{
horizontal = 1;
place = "{0, 55}";
},
{
horizontal = 1;
place = "{328, 54}";
},
{
horizontal = 1;
place = "{658, 55}";
}
);
layerId = UUID0;
paths = (
{
closed = 1;
nodes = (
"158 536 LINE",
"158 629 OFFCURVE",
"221 666 OFFCURVE",
"299 666 CURVE SMOOTH",
"377 666 OFFCURVE",
"441 629 OFFCURVE",
"441 535 CURVE SMOOTH",
"441 382 LINE",
"103 382 LINE",
"103 175 LINE SMOOTH",
"103 65 OFFCURVE",
"180 -9 OFFCURVE",
"299 -9 CURVE SMOOTH",
"420 -9 OFFCURVE",
"496 65 OFFCURVE",
"496 174 CURVE SMOOTH",
"496 537 LINE SMOOTH",
"496 646 OFFCURVE",
"420 720 OFFCURVE",
"299 720 CURVE SMOOTH",
"180 720 OFFCURVE",
"103 646 OFFCURVE",
"103 536 CURVE"
);
},
{
closed = 1;
nodes = (
"222 45 OFFCURVE",
"159 81 OFFCURVE",
"158 174 CURVE",
"158 328 LINE",
"441 328 LINE",
"441 176 LINE SMOOTH",
"441 82 OFFCURVE",
"377 45 OFFCURVE",
"299 45 CURVE SMOOTH"
);
}
);
width = 600;
},
{
background = {
paths = (
{
closed = 1;
nodes = (
"93 307 LINE",
"433 307 LINE",
"433 404 LINE",
"191 404 LINE",
"191 521 LINE SMOOTH",
"191 608 OFFCURVE",
"265 623 OFFCURVE",
"299 623 CURVE SMOOTH",
"335 623 OFFCURVE",
"408 608 OFFCURVE",
"408 521 CURVE SMOOTH",
"408 186 LINE SMOOTH",
"408 100 OFFCURVE",
"335 87 OFFCURVE",
"299 87 CURVE SMOOTH",
"265 87 OFFCURVE",
"191 100 OFFCURVE",
"191 185 CURVE",
"93 185 LINE",
"93 115 OFFCURVE",
"140 -9 OFFCURVE",
"299 -9 CURVE SMOOTH",
"465 -9 OFFCURVE",
"506 121 OFFCURVE",
"506 184 CURVE SMOOTH",
"506 521 LINE SMOOTH",
"506 586 OFFCURVE",
"462 719 OFFCURVE",
"301 719 CURVE SMOOTH",
"139 719 OFFCURVE",
"93 587 OFFCURVE",
"93 522 CURVE"
);
}
);
};
hints = (
{
place = "{506, -98}";
},
{
place = "{191, -98}";
},
{
horizontal = 1;
place = "{713, -96}";
},
{
horizontal = 1;
place = "{404, -97}";
},
{
horizontal = 1;
place = "{96, -96}";
}
);
layerId = "64F0AA26-A009-41C1-A946-C445650DA9E2";
paths = (
{
closed = 1;
nodes = (
"93 188 LINE",
"93 123 OFFCURVE",
"139 -9 OFFCURVE",
"301 -9 CURVE SMOOTH",
"462 -9 OFFCURVE",
"506 124 OFFCURVE",
"506 189 CURVE SMOOTH",
"506 526 LINE SMOOTH",
"506 589 OFFCURVE",
"465 719 OFFCURVE",
"299 719 CURVE SMOOTH",
"140 719 OFFCURVE",
"93 595 OFFCURVE",
"93 525 CURVE",
"191 525 LINE",
"191 610 OFFCURVE",
"265 623 OFFCURVE",
"299 623 CURVE SMOOTH",
"335 623 OFFCURVE",
"408 610 OFFCURVE",
"408 524 CURVE SMOOTH",
"408 403 LINE",
"93 403 LINE"
);
},
{
closed = 1;
nodes = (
"191 306 LINE",
"408 306 LINE",
"408 189 LINE SMOOTH",
"408 102 OFFCURVE",
"335 87 OFFCURVE",
"299 87 CURVE SMOOTH",
"265 87 OFFCURVE",
"191 102 OFFCURVE",
"191 189 CURVE SMOOTH"
);
}
);
width = 600;
}
);
unicode = 018F;
},
{
glyphname = T;
lastChange = "2017-10-07 14:26:38 +0000";
layers = (
{
hints = (
{
place = "{272, 55}";
},
{
horizontal = 1;
place = "{658, 55}";
},
{
horizontal = 1;
place = "{0, 21}";
target = up;
type = BottomGhost;
}
);
layerId = UUID0;
paths = (
{
closed = 1;
nodes = (
"507 658 LINE",
"507 713 LINE",
"92 713 LINE",
"92 658 LINE",
"272 658 LINE",
"272 0 LINE",
"327 0 LINE",
"327 658 LINE"
);
}
);
width = 600;
},
{
hints = (
{
place = "{250, 98}";
},
{
horizontal = 1;
place = "{617, 96}";
},
{
horizontal = 1;
place = "{0, 21}";
target = up;
type = BottomGhost;
}
);
layerId = "64F0AA26-A009-41C1-A946-C445650DA9E2";
paths = (
{
closed = 1;
nodes = (
"516 617 LINE",
"516 713 LINE",
"82 713 LINE",
"82 617 LINE",
"250 617 LINE",
"250 0 LINE",
"348 0 LINE",
"348 617 LINE"
);
}
);
width = 600;
}
);
unicode = 0054;
},
{
glyphname = Tbar;
lastChange = "2017-10-07 14:26:38 +0000";
layers = (
{
hints = (
{
place = "{272, 55}";
},
{
horizontal = 1;
place = "{340, 50}";
},
{
horizontal = 1;
place = "{658, 55}";
},
{
horizontal = 1;
place = "{0, 21}";
target = up;
type = BottomGhost;
}
);
layerId = UUID0;
paths = (
{
closed = 1;
nodes = (
"507 658 LINE",
"507 713 LINE",
"92 713 LINE",
"92 658 LINE",
"272 658 LINE",
"272 390 LINE",
"158 390 LINE",
"158 340 LINE",
"272 340 LINE",
"272 0 LINE",
"327 0 LINE",
"327 340 LINE",
"445 340 LINE",
"445 390 LINE",
"327 390 LINE",
"327 658 LINE"
);
}
);
width = 600;
},
{
hints = (
{
place = "{249, 97}";
},
{
horizontal = 1;
place = "{315, 93}";
},
{
horizontal = 1;
place = "{615, 98}";
},
{
horizontal = 1;
place = "{0, 21}";
target = up;
type = BottomGhost;
}
);
layerId = "64F0AA26-A009-41C1-A946-C445650DA9E2";
paths = (
{
closed = 1;
nodes = (
"515 615 LINE",
"515 713 LINE",
"81 713 LINE",
"81 615 LINE",
"249 615 LINE",
"249 408 LINE",
"142 408 LINE",
"142 315 LINE",
"249 315 LINE",
"249 0 LINE",
"346 0 LINE",
"346 315 LINE",
"457 315 LINE",
"457 408 LINE",
"346 408 LINE",
"346 615 LINE"
);
}
);
width = 600;
}
);
unicode = 0166;
},
{
color = (235,0,255,1);
glyphname = U;
lastChange = "2017-10-07 14:26:38 +0000";
layers = (
{
background = {
paths = (
{
closed = 1;
nodes = (
"496 713 LINE",
"441 713 LINE",
"441 177 LINE SMOOTH",
"441 63 OFFCURVE",
"346 45 OFFCURVE",
"300 45 CURVE SMOOTH",
"254 45 OFFCURVE",
"158 63 OFFCURVE",
"158 177 CURVE SMOOTH",
"158 713 LINE",
"103 713 LINE",
"103 177 LINE SMOOTH",
"103 112 OFFCURVE",
"143 -9 OFFCURVE",
"301 -9 CURVE SMOOTH",
"457 -9 OFFCURVE",
"496 111 OFFCURVE",
"496 176 CURVE"
);
}
);
};
hints = (
{
place = "{103, 55}";
},
{
place = "{441, 55}";
},
{
horizontal = 1;
place = "{0, 54}";
},
{
horizontal = 1;
place = "{713, -20}";
target = down;
type = TopGhost;
}
);
layerId = UUID0;
paths = (
{
closed = 1;
nodes = (
"441 713 LINE",
"441 176 LINE SMOOTH",
"441 82 OFFCURVE",
"378 45 OFFCURVE",
"300 45 CURVE SMOOTH",
"222 45 OFFCURVE",
"158 82 OFFCURVE",
"158 176 CURVE SMOOTH",
"158 713 LINE",
"103 713 LINE",
"103 174 LINE SMOOTH",
"103 65 OFFCURVE",
"179 -9 OFFCURVE",
"300 -9 CURVE SMOOTH",
"419 -9 OFFCURVE",
"496 65 OFFCURVE",
"496 175 CURVE SMOOTH",
"496 713 LINE"
);
}
);
width = 600;
},
{
hints = (
{
place = "{94, 98}";
},
{
place = "{409, 98}";
},
{
horizontal = 1;
place = "{0, 96}";
},
{
horizontal = 1;
place = "{713, -20}";
target = down;
type = TopGhost;
}
);
layerId = "64F0AA26-A009-41C1-A946-C445650DA9E2";
paths = (
{
closed = 1;
nodes = (
"507 713 LINE",
"409 713 LINE",
"409 189 LINE SMOOTH",
"409 101 OFFCURVE",
"336 87 OFFCURVE",
"301 87 CURVE SMOOTH",
"266 87 OFFCURVE",
"192 101 OFFCURVE",
"192 189 CURVE SMOOTH",
"192 713 LINE",
"94 713 LINE",
"94 189 LINE SMOOTH",
"94 120 OFFCURVE",
"135 -9 OFFCURVE",
"301 -9 CURVE SMOOTH",
"467 -9 OFFCURVE",
"507 119 OFFCURVE",
"507 188 CURVE"
);
}
);
width = 600;
}
);
unicode = 0055;
},
{
color = (255,137,0,1);
glyphname = Uhorn;
lastChange = "2017-10-07 14:26:38 +0000";
layers = (
{
background = {
paths = (
{
closed = 1;
nodes = (
"421 713 LINE",
"421 176 LINE SMOOTH",
"421 82 OFFCURVE",
"358 45 OFFCURVE",
"280 45 CURVE SMOOTH",
"202 45 OFFCURVE",
"138 82 OFFCURVE",
"138 176 CURVE SMOOTH",
"138 713 LINE",
"83 713 LINE",
"83 174 LINE SMOOTH",
"83 65 OFFCURVE",
"159 -9 OFFCURVE",
"280 -9 CURVE SMOOTH",
"399 -9 OFFCURVE",
"476 65 OFFCURVE",
"476 175 CURVE SMOOTH",
"476 713 LINE"
);
},
{
closed = 1;
nodes = (
"558 713 LINE",
"558 652 LINE SMOOTH",
"558 611 OFFCURVE",
"536 582 OFFCURVE",
"492 582 CURVE SMOOTH",
"470 582 LINE",
"474 529 LINE",
"487 529 LINE SMOOTH",
"573 529 OFFCURVE",
"611 575 OFFCURVE",
"611 651 CURVE SMOOTH",
"611 713 LINE"
);
}
);
};
hints = (
{
place = "{83, 55}";
},
{
place = "{421, 55}";
},
{
place = "{558, 53}";
},
{
horizontal = 1;
place = "{0, 54}";
},
{
horizontal = 1;
place = "{529, 53}";
},
{
horizontal = 1;
place = "{712, -22}";
}
);
layerId = UUID0;
paths = (
{
closed = 1;
nodes = (
"558 713 LINE",
"558 652 LINE SMOOTH",
"558 611 OFFCURVE",
"536 582 OFFCURVE",
"492 582 CURVE SMOOTH",
"476 582 LINE",
"476 713 LINE",
"421 713 LINE",
"421 176 LINE SMOOTH",
"421 82 OFFCURVE",
"358 45 OFFCURVE",
"280 45 CURVE SMOOTH",
"202 45 OFFCURVE",
"138 82 OFFCURVE",
"138 176 CURVE SMOOTH",
"138 713 LINE",
"83 713 LINE",
"83 174 LINE SMOOTH",
"83 65 OFFCURVE",
"159 -9 OFFCURVE",
"280 -9 CURVE SMOOTH",
"399 -9 OFFCURVE",
"476 65 OFFCURVE",
"476 175 CURVE SMOOTH",
"476 529 LINE",
"487 529 LINE SMOOTH",
"573 529 OFFCURVE",
"611 575 OFFCURVE",
"611 651 CURVE SMOOTH",
"611 713 LINE"
);
}
);
width = 600;
},
{
background = {
paths = (
{
closed = 1;
nodes = (
"1149 713 LINE",
"1149 652 LINE SMOOTH",
"1149 611 OFFCURVE",
"1127 582 OFFCURVE",
"1083 582 CURVE SMOOTH",
"1067 582 LINE",
"1067 713 LINE",
"1012 713 LINE",
"1012 176 LINE SMOOTH",
"1012 82 OFFCURVE",
"949 45 OFFCURVE",
"871 45 CURVE SMOOTH",
"793 45 OFFCURVE",
"729 82 OFFCURVE",
"729 176 CURVE SMOOTH",
"729 713 LINE",
"674 713 LINE",
"674 174 LINE SMOOTH",
"674 65 OFFCURVE",
"750 -9 OFFCURVE",
"871 -9 CURVE SMOOTH",
"990 -9 OFFCURVE",
"1067 65 OFFCURVE",
"1067 175 CURVE SMOOTH",
"1067 529 LINE",
"1078 529 LINE SMOOTH",
"1164 529 OFFCURVE",
"1202 575 OFFCURVE",
"1202 651 CURVE SMOOTH",
"1202 713 LINE"
);
},
{
closed = 1;
nodes = (
"477 713 LINE",
"379 713 LINE",
"379 189 LINE SMOOTH",
"379 101 OFFCURVE",
"306 87 OFFCURVE",
"271 87 CURVE SMOOTH",
"236 87 OFFCURVE",
"162 101 OFFCURVE",
"162 189 CURVE SMOOTH",
"162 713 LINE",
"64 713 LINE",
"64 189 LINE SMOOTH",
"64 120 OFFCURVE",
"105 -9 OFFCURVE",
"271 -9 CURVE SMOOTH",
"437 -9 OFFCURVE",
"477 119 OFFCURVE",
"477 188 CURVE"
);
},
{
closed = 1;
nodes = (
"536 713 LINE",
"536 642 LINE SMOOTH",
"536 607 OFFCURVE",
"519 582 OFFCURVE",
"482 582 CURVE SMOOTH",
"447 582 LINE",
"453 509 LINE",
"477 509 LINE SMOOTH",
"570 509 OFFCURVE",
"609 559 OFFCURVE",
"609 641 CURVE SMOOTH",
"609 713 LINE"
);
}
);
};
hints = (
{
place = "{64, 98}";
},
{
place = "{379, 98}";
},
{
place = "{536, 73}";
},
{
horizontal = 1;
place = "{-9, 96}";
},
{
horizontal = 1;
place = "{509, 73}";
},
{
horizontal = 1;
place = "{509, 204}";
}
);
layerId = "64F0AA26-A009-41C1-A946-C445650DA9E2";
paths = (
{
closed = 1;
nodes = (
"477 509 LINE",
"570 509 OFFCURVE",
"609 559 OFFCURVE",
"609 641 CURVE SMOOTH",
"609 713 LINE",
"536 713 LINE",
"536 642 LINE SMOOTH",
"536 607 OFFCURVE",
"519 582 OFFCURVE",
"482 582 CURVE SMOOTH",
"477 582 LINE",
"477 713 LINE",
"379 713 LINE",
"379 189 LINE SMOOTH",
"379 101 OFFCURVE",
"306 87 OFFCURVE",
"271 87 CURVE SMOOTH",
"236 87 OFFCURVE",
"162 101 OFFCURVE",
"162 189 CURVE SMOOTH",
"162 713 LINE",
"64 713 LINE",
"64 189 LINE SMOOTH",
"64 120 OFFCURVE",
"105 -9 OFFCURVE",
"271 -9 CURVE SMOOTH",
"437 -9 OFFCURVE",
"477 119 OFFCURVE",
"477 188 CURVE"
);
}
);
width = 600;
}
);
unicode = 01AF;
},
{
color = (31,255,0,1);
glyphname = V;
lastChange = "2017-10-07 14:26:38 +0000";
layers = (
{
background = {
paths = (
{
closed = 1;
nodes = (
"480 713 LINE",
"318 52 LINE",
"284 52 LINE",
"120 713 LINE",
"67 713 LINE",
"246 0 LINE",
"356 0 LINE",
"533 713 LINE"
);
},
{
closed = 1;
nodes = (
"490 713 LINE",
"307 52 LINE",
"295 52 LINE",
"110 713 LINE",
"57 713 LINE",
"256 0 LINE",
"346 0 LINE",
"543 713 LINE"
);
}
);
};
hints = (
{
horizontal = 1;
place = "{713, -20}";
target = down;
type = TopGhost;
},
{
horizontal = 1;
place = "{0, 21}";
target = up;
type = BottomGhost;
}
);
layerId = UUID0;
paths = (
{
closed = 1;
nodes = (
"490 713 LINE",
"307 52 LINE",
"295 52 LINE",
"110 713 LINE",
"55 713 LINE",
"254 0 LINE",
"348 0 LINE",
"545 713 LINE"
);
}
);
width = 600;
},
{
hints = (
{
horizontal = 1;
place = "{713, -20}";
target = down;
type = TopGhost;
},
{
horizontal = 1;
place = "{0, 21}";
target = up;
type = BottomGhost;
}
);
layerId = "64F0AA26-A009-41C1-A946-C445650DA9E2";
paths = (
{
closed = 1;
nodes = (
"450 713 LINE",
"300 97 LINE",
"152 713 LINE",
"51 713 LINE",
"231 0 LINE",
"371 0 LINE",
"548 713 LINE"
);
}
);
width = 600;
}
);
unicode = 0056;
},
{
glyphname = W;
lastChange = "2017-10-07 14:26:38 +0000";
layers = (
{
background = {
paths = (
{
closed = 1;
nodes = (
"635 713 LINE",
"577 713 LINE",
"470 52 LINE",
"351 584 LINE",
"302 584 LINE",
"179 52 LINE",
"73 713 LINE",
"15 713 LINE",
"141 0 LINE",
"216 0 LINE",
"327 479 LINE",
"434 0 LINE",
"509 0 LINE"
);
}
);
};
hints = (
{
horizontal = 1;
place = "{712, -20}";
target = down;
type = TopGhost;
},
{
horizontal = 1;
place = "{0, 21}";
target = up;
type = BottomGhost;
}
);
layerId = UUID0;
paths = (
{
closed = 1;
nodes = (
"635 713 LINE",
"579 713 LINE",
"474 55 LINE",
"351 556 LINE",
"302 556 LINE",
"175 55 LINE",
"71 713 LINE",
"15 713 LINE",
"135 0 LINE",
"212 0 LINE",
"327 451 LINE",
"438 0 LINE",
"515 0 LINE"
);
}
);
width = 650;
},
{
background = {
paths = (
{
closed = 1;
nodes = (
"643 713 LINE",
"540 713 LINE",
"456 195 LINE",
"368 592 LINE",
"285 592 LINE",
"195 194 LINE",
"111 713 LINE",
"8 713 LINE",
"134 0 LINE",
"242 0 LINE",
"326 366 LINE",
"409 0 LINE",
"517 0 LINE"
);
}
);
};
hints = (
{
horizontal = 1;
place = "{713, -20}";
target = down;
type = TopGhost;
},
{
horizontal = 1;
place = "{0, 21}";
target = up;
type = BottomGhost;
}
);
layerId = "64F0AA26-A009-41C1-A946-C445650DA9E2";
paths = (
{
closed = 1;
nodes = (
"643 713 LINE",
"540 713 LINE",
"459 187 LINE",
"368 580 LINE",
"285 580 LINE",
"192 186 LINE",
"111 713 LINE",
"8 713 LINE",
"131 0 LINE",
"239 0 LINE",
"326 372 LINE",
"412 0 LINE",
"520 0 LINE"
);
}
);
width = 650;
}
);
unicode = 0057;
},
{
glyphname = X;
lastChange = "2017-10-07 14:26:38 +0000";
layers = (
{
background = {
paths = (
{
closed = 1;
nodes = (
"515 -10 LINE",
"329 349 LINE",
"513 703 LINE",
"452 703 LINE",
"298 398 LINE",
"146 703 LINE",
"85 703 LINE",
"269 349 LINE",
"84 -10 LINE",
"147 -10 LINE",
"299 297 LINE",
"452 -10 LINE"
);
}
);
};
hints = (
{
horizontal = 1;
place = "{-10, 21}";
target = up;
type = BottomGhost;
},
{
horizontal = 1;
place = "{703, -20}";
target = down;
type = TopGhost;
}
);
layerId = UUID0;
paths = (
{
closed = 1;
nodes = (
"515 -10 LINE",
"329 349 LINE",
"513 703 LINE",
"452 703 LINE",
"298 402 LINE",
"146 703 LINE",
"85 703 LINE",
"268 349 LINE",
"84 -10 LINE",
"147 -10 LINE",
"299 295 LINE",
"452 -10 LINE"
);
}
);
width = 600;
},
{
hints = (
{
horizontal = 1;
place = "{0, 21}";
target = up;
type = BottomGhost;
},
{
horizontal = 1;
place = "{713, -20}";
target = down;
type = TopGhost;
}
);
layerId = "64F0AA26-A009-41C1-A946-C445650DA9E2";
paths = (
{
closed = 1;
nodes = (
"539 0 LINE",
"353 359 LINE",
"537 713 LINE",
"429 713 LINE",
"298 456 LINE",
"171 713 LINE",
"61 713 LINE",
"244 357 LINE",
"60 0 LINE",
"172 0 LINE",
"299 257 LINE",
"427 0 LINE"
);
}
);
width = 600;
}
);
unicode = 0058;
},
{
glyphname = Y;
lastChange = "2017-10-07 14:26:38 +0000";
layers = (
{
hints = (
{
place = "{272, 55}";
},
{
horizontal = 1;
place = "{713, -20}";
target = down;
type = TopGhost;
},
{
horizontal = 1;
place = "{0, 21}";
target = up;
type = BottomGhost;
}
);
layerId = UUID0;
paths = (
{
closed = 1;
nodes = (
"516 713 LINE",
"456 713 LINE",
"300 325 LINE",
"144 713 LINE",
"84 713 LINE",
"272 258 LINE",
"272 0 LINE",
"327 0 LINE",
"327 257 LINE"
);
}
);
width = 600;
},
{
hints = (
{
place = "{250, 98}";
},
{
horizontal = 1;
place = "{713, -20}";
target = down;
type = TopGhost;
},
{
horizontal = 1;
place = "{0, 21}";
target = up;
type = BottomGhost;
}
);
layerId = "64F0AA26-A009-41C1-A946-C445650DA9E2";
paths = (
{
closed = 1;
nodes = (
"535 713 LINE",
"430 713 LINE",
"299 386 LINE",
"169 713 LINE",
"63 713 LINE",
"250 260 LINE",
"250 0 LINE",
"348 0 LINE",
"348 258 LINE"
);
}
);
width = 600;
}
);
unicode = 0059;
},
{
glyphname = Z;
lastChange = "2017-10-07 14:26:38 +0000";
layers = (
{
hints = (
{
horizontal = 1;
place = "{0, 54}";
},
{
horizontal = 1;
place = "{659, 54}";
}
);
layerId = UUID0;
paths = (
{
closed = 1;
nodes = (
"494 0 LINE",
"494 54 LINE",
"163 54 LINE",
"477 661 LINE",
"477 713 LINE",
"120 713 LINE",
"120 659 LINE",
"420 659 LINE",
"106 55 LINE",
"106 0 LINE"
);
}
);
width = 600;
},
{
hints = (
{
horizontal = 1;
place = "{0, 96}";
},
{
horizontal = 1;
place = "{617, 96}";
}
);
layerId = "64F0AA26-A009-41C1-A946-C445650DA9E2";
paths = (
{
closed = 1;
nodes = (
"501 0 LINE",
"501 96 LINE",
"206 96 LINE",
"486 632 LINE",
"486 713 LINE",
"107 713 LINE",
"107 617 LINE",
"374 617 LINE",
"93 83 LINE",
"93 0 LINE"
);
}
);
width = 600;
}
);
unicode = 005A;
},
{
glyphname = a;
lastChange = "2017-10-07 14:26:38 +0000";
layers = (
{
hints = (
{
place = "{81, 55}";
},
{
place = "{411, 55}";
},
{
horizontal = 1;
place = "{0, 54}";
},
{
horizontal = 1;
place = "{252, 50}";
},
{
horizontal = 1;
place = "{473, 54}";
}
);
layerId = UUID0;
paths = (
{
closed = 1;
nodes = (
"466 369 LINE",
"466 493 OFFCURVE",
"373 536 OFFCURVE",
"284 536 CURVE SMOOTH",
"205 536 OFFCURVE",
"102 492 OFFCURVE",
"102 373 CURVE",
"157 373 LINE",
"157 455 OFFCURVE",
"219 482 OFFCURVE",
"285 482 CURVE SMOOTH",
"357 482 OFFCURVE",
"411 456 OFFCURVE",
"411 366 CURVE SMOOTH",
"411 302 LINE",
"245 302 LINE SMOOTH",
"152 302 OFFCURVE",
"81 252 OFFCURVE",
"81 158 CURVE SMOOTH",
"81 40 OFFCURVE",
"167 -9 OFFCURVE",
"253 -9 CURVE SMOOTH",
"323 -9 OFFCURVE",
"378 15 OFFCURVE",
"411 61 CURVE",
"411 0 LINE",
"466 0 LINE"
);
},
{
closed = 1;
nodes = (
"411 176 LINE",
"411 92 OFFCURVE",
"337 45 OFFCURVE",
"265 45 CURVE SMOOTH",
"197 45 OFFCURVE",
"136 66 OFFCURVE",
"136 158 CURVE SMOOTH",
"136 225 OFFCURVE",
"181 252 OFFCURVE",
"248 252 CURVE SMOOTH",
"411 252 LINE"
);
}
);
width = 550;
},
{
background = {
paths = (
{
closed = 1;
nodes = (
"470 359 LINE SMOOTH",
"470 488 OFFCURVE",
"375 532 OFFCURVE",
"284 532 CURVE SMOOTH",
"207 532 OFFCURVE",
"105 487 OFFCURVE",
"94 363 CURVE",
"189 363 LINE",
"197 419 OFFCURVE",
"240 438 OFFCURVE",
"285 438 CURVE SMOOTH",
"337 438 OFFCURVE",
"374 421 OFFCURVE",
"374 356 CURVE SMOOTH",
"374 318 LINE",
"252 318 LINE SMOOTH",
"153 318 OFFCURVE",
"75 267 OFFCURVE",
"75 166 CURVE SMOOTH",
"75 44 OFFCURVE",
"169 -9 OFFCURVE",
"253 -9 CURVE SMOOTH",
"301 -9 OFFCURVE",
"351 9 OFFCURVE",
"374 40 CURVE",
"374 0 LINE",
"470 0 LINE"
);
},
{
closed = 1;
nodes = (
"374 182 LINE SMOOTH",
"374 121 OFFCURVE",
"319 82 OFFCURVE",
"265 82 CURVE SMOOTH",
"218 82 OFFCURVE",
"171 101 OFFCURVE",
"171 166 CURVE SMOOTH",
"171 211 OFFCURVE",
"206 228 OFFCURVE",
"253 228 CURVE SMOOTH",
"374 228 LINE"
);
}
);
};
hints = (
{
place = "{75, 96}";
},
{
place = "{374, 96}";
},
{
horizontal = 1;
place = "{0, 94}";
},
{
horizontal = 1;
place = "{228, 90}";
},
{
horizontal = 1;
place = "{432, 93}";
}
);
layerId = "64F0AA26-A009-41C1-A946-C445650DA9E2";
paths = (
{
closed = 1;
nodes = (
"470 359 LINE",
"470 488 OFFCURVE",
"375 532 OFFCURVE",
"284 532 CURVE SMOOTH",
"207 532 OFFCURVE",
"105 487 OFFCURVE",
"94 363 CURVE",
"189 363 LINE",
"197 419 OFFCURVE",
"240 438 OFFCURVE",
"285 438 CURVE SMOOTH",
"337 438 OFFCURVE",
"374 421 OFFCURVE",
"374 356 CURVE SMOOTH",
"374 318 LINE",
"252 318 LINE SMOOTH",
"153 318 OFFCURVE",
"75 261 OFFCURVE",
"75 160 CURVE SMOOTH",
"75 38 OFFCURVE",
"169 -9 OFFCURVE",
"253 -9 CURVE SMOOTH",
"301 -9 OFFCURVE",
"351 9 OFFCURVE",
"374 40 CURVE",
"374 0 LINE",
"470 0 LINE"
);
},
{
closed = 1;
nodes = (
"374 182 LINE",
"374 121 OFFCURVE",
"319 82 OFFCURVE",
"265 82 CURVE SMOOTH",
"218 82 OFFCURVE",
"171 95 OFFCURVE",
"171 160 CURVE SMOOTH",
"171 205 OFFCURVE",
"206 228 OFFCURVE",
"253 228 CURVE SMOOTH",
"374 228 LINE"
);
}
);
width = 550;
}
);
unicode = 0061;
},
{
glyphname = ae;
lastChange = "2017-10-07 14:26:38 +0000";
layers = (
{
background = {
paths = (
{
closed = 1;
nodes = (
"777 350 LINE SMOOTH",
"777 465 OFFCURVE",
"704 536 OFFCURVE",
"587 536 CURVE SMOOTH",
"515 536 OFFCURVE",
"459 508 OFFCURVE",
"427 460 CURVE",
"392 515 OFFCURVE",
"332 536 OFFCURVE",
"268 536 CURVE SMOOTH",
"194 536 OFFCURVE",
"88 494 OFFCURVE",
"88 375 CURVE SMOOTH",
"88 373 LINE",
"143 373 LINE",
"143 376 LINE SMOOTH",
"143 458 OFFCURVE",
"208 482 OFFCURVE",
"269 482 CURVE SMOOTH",
"341 482 OFFCURVE",
"396 457 OFFCURVE",
"396 367 CURVE SMOOTH",
"396 303 LINE",
"230 303 LINE SMOOTH",
"137 303 OFFCURVE",
"66 252 OFFCURVE",
"66 158 CURVE SMOOTH",
"66 40 OFFCURVE",
"148 -9 OFFCURVE",
"238 -9 CURVE SMOOTH",
"317 -9 OFFCURVE",
"389 28 OFFCURVE",
"420 85 CURVE",
"448 28 OFFCURVE",
"513 -9 OFFCURVE",
"587 -9 CURVE SMOOTH",
"697 -9 OFFCURVE",
"770 57 OFFCURVE",
"776 162 CURVE",
"721 162 LINE",
"716 87 OFFCURVE",
"667 45 OFFCURVE",
"587 45 CURVE SMOOTH",
"475 45 OFFCURVE",
"451 117 OFFCURVE",
"451 177 CURVE SMOOTH",
"451 250 LINE",
"777 250 LINE"
);
},
{
closed = 1;
nodes = (
"396 175 LINE SMOOTH",
"396 115 OFFCURVE",
"348 45 OFFCURVE",
"249 45 CURVE SMOOTH",
"177 45 OFFCURVE",
"121 70 OFFCURVE",
"121 158 CURVE SMOOTH",
"121 225 OFFCURVE",
"166 253 OFFCURVE",
"233 253 CURVE SMOOTH",
"396 253 LINE"
);
},
{
closed = 1;
nodes = (
"722 303 LINE",
"451 303 LINE",
"451 356 LINE",
"453 436 OFFCURVE",
"503 482 OFFCURVE",
"587 482 CURVE SMOOTH",
"698 482 OFFCURVE",
"722 410 OFFCURVE",
"722 350 CURVE SMOOTH"
);
}
);
};
hints = (
{
place = "{66, 55}";
},
{
place = "{396, 55}";
},
{
place = "{728, 55}";
},
{
horizontal = 1;
place = "{0, 54}";
},
{
horizontal = 1;
place = "{250, 53}";
},
{
horizontal = 1;
place = "{473, 54}";
}
);
layerId = UUID0;
paths = (
{
closed = 1;
nodes = (
"783 350 LINE SMOOTH",
"783 465 OFFCURVE",
"707 536 OFFCURVE",
"590 536 CURVE SMOOTH",
"518 536 OFFCURVE",
"462 508 OFFCURVE",
"428 460 CURVE",
"395 515 OFFCURVE",
"331 536 OFFCURVE",
"269 536 CURVE SMOOTH",
"190 536 OFFCURVE",
"87 492 OFFCURVE",
"87 373 CURVE",
"142 373 LINE",
"142 455 OFFCURVE",
"204 482 OFFCURVE",
"270 482 CURVE SMOOTH",
"342 482 OFFCURVE",
"396 456 OFFCURVE",
"396 366 CURVE SMOOTH",
"396 302 LINE",
"230 302 LINE SMOOTH",
"137 302 OFFCURVE",
"66 252 OFFCURVE",
"66 158 CURVE SMOOTH",
"66 40 OFFCURVE",
"152 -9 OFFCURVE",
"238 -9 CURVE SMOOTH",
"311 -9 OFFCURVE",
"379 18 OFFCURVE",
"418 79 CURVE",
"449 22 OFFCURVE",
"510 -10 OFFCURVE",
"590 -10 CURVE SMOOTH",
"700 -10 OFFCURVE",
"776 57 OFFCURVE",
"782 162 CURVE",
"727 162 LINE",
"722 87 OFFCURVE",
"670 44 OFFCURVE",
"590 44 CURVE SMOOTH",
"483 44 OFFCURVE",
"453 110 OFFCURVE",
"451 168 CURVE",
"451 250 LINE",
"783 250 LINE"
);
},
{
closed = 1;
nodes = (
"182 45 OFFCURVE",
"121 66 OFFCURVE",
"121 158 CURVE SMOOTH",
"121 225 OFFCURVE",
"166 252 OFFCURVE",
"233 252 CURVE SMOOTH",
"396 252 LINE",
"396 170 LINE SMOOTH",
"392 90 OFFCURVE",
"320 45 OFFCURVE",
"250 45 CURVE SMOOTH"
);
},
{
closed = 1;
nodes = (
"728 303 LINE",
"451 303 LINE",
"451 356 LINE",
"453 436 OFFCURVE",
"506 482 OFFCURVE",
"590 482 CURVE SMOOTH",
"701 482 OFFCURVE",
"728 410 OFFCURVE",
"728 350 CURVE SMOOTH"
);
}
);
width = 850;
},
{
background = {
paths = (
{
closed = 1;
nodes = (
"770 341 LINE SMOOTH",
"770 459 OFFCURVE",
"694 532 OFFCURVE",
"574 532 CURVE SMOOTH",
"515 532 OFFCURVE",
"458 504 OFFCURVE",
"428 469 CURVE",
"397 510 OFFCURVE",
"338 532 OFFCURVE",
"284 532 CURVE SMOOTH",
"211 532 OFFCURVE",
"108 488 OFFCURVE",
"98 363 CURVE",
"194 363 LINE",
"203 421 OFFCURVE",
"244 439 OFFCURVE",
"284 439 CURVE SMOOTH",
"337 439 OFFCURVE",
"378 422 OFFCURVE",
"378 357 CURVE SMOOTH",
"378 321 LINE",
"249 321 LINE SMOOTH",
"152 321 OFFCURVE",
"77 267 OFFCURVE",
"77 166 CURVE SMOOTH",
"77 44 OFFCURVE",
"163 -9 OFFCURVE",
"255 -9 CURVE SMOOTH",
"322 -9 OFFCURVE",
"388 22 OFFCURVE",
"422 66 CURVE",
"452 22 OFFCURVE",
"516 -9 OFFCURVE",
"574 -9 CURVE SMOOTH",
"681 -9 OFFCURVE",
"755 60 OFFCURVE",
"768 172 CURVE",
"672 172 LINE",
"662 117 OFFCURVE",
"627 86 OFFCURVE",
"574 86 CURVE SMOOTH",
"491 86 OFFCURVE",
"473 138 OFFCURVE",
"473 183 CURVE SMOOTH",
"473 228 LINE",
"770 228 LINE"
);
},
{
closed = 1;
nodes = (
"378 181 LINE SMOOTH",
"378 137 OFFCURVE",
"342 86 OFFCURVE",
"266 86 CURVE SMOOTH",
"214 86 OFFCURVE",
"173 103 OFFCURVE",
"173 166 CURVE SMOOTH",
"173 212 OFFCURVE",
"204 230 OFFCURVE",
"252 230 CURVE SMOOTH",
"378 230 LINE"
);
},
{
closed = 1;
nodes = (
"675 321 LINE",
"473 321 LINE",
"473 346 LINE SMOOTH",
"474 405 OFFCURVE",
"511 439 OFFCURVE",
"574 439 CURVE SMOOTH",
"657 439 OFFCURVE",
"675 385 OFFCURVE",
"675 341 CURVE SMOOTH"
);
}
);
};
hints = (
{
place = "{77, 96}";
},
{
place = "{376, 96}";
},
{
place = "{680, 96}";
},
{
horizontal = 1;
place = "{0, 93}";
},
{
horizontal = 1;
place = "{229, 89}";
},
{
horizontal = 1;
place = "{431, 94}";
}
);
layerId = "64F0AA26-A009-41C1-A946-C445650DA9E2";
paths = (
{
closed = 1;
nodes = (
"776 341 LINE SMOOTH",
"776 459 OFFCURVE",
"695 532 OFFCURVE",
"576 532 CURVE SMOOTH",
"516 532 OFFCURVE",
"465 512 OFFCURVE",
"430 478 CURVE",
"394 517 OFFCURVE",
"339 532 OFFCURVE",
"286 532 CURVE SMOOTH",
"209 532 OFFCURVE",
"107 487 OFFCURVE",
"96 363 CURVE",
"191 363 LINE",
"199 419 OFFCURVE",
"242 438 OFFCURVE",
"287 438 CURVE SMOOTH",
"339 438 OFFCURVE",
"376 421 OFFCURVE",
"376 356 CURVE SMOOTH",
"376 318 LINE",
"254 318 LINE SMOOTH",
"155 318 OFFCURVE",
"77 267 OFFCURVE",
"77 166 CURVE SMOOTH",
"77 44 OFFCURVE",
"171 -9 OFFCURVE",
"255 -9 CURVE SMOOTH",
"331 -9 OFFCURVE",
"378 16 OFFCURVE",
"417 58 CURVE",
"452 14 OFFCURVE",
"507 -10 OFFCURVE",
"576 -10 CURVE SMOOTH",
"684 -10 OFFCURVE",
"760 59 OFFCURVE",
"774 172 CURVE",
"676 172 LINE",
"667 117 OFFCURVE",
"630 84 OFFCURVE",
"576 84 CURVE SMOOTH",
"493 84 OFFCURVE",
"472 137 OFFCURVE",
"472 182 CURVE SMOOTH",
"472 229 LINE",
"776 229 LINE"
);
},
{
closed = 1;
nodes = (
"220 82 OFFCURVE",
"173 101 OFFCURVE",
"173 166 CURVE SMOOTH",
"173 211 OFFCURVE",
"208 228 OFFCURVE",
"255 228 CURVE SMOOTH",
"376 228 LINE",
"376 177 LINE SMOOTH",
"373 119 OFFCURVE",
"319 82 OFFCURVE",
"267 82 CURVE SMOOTH"
);
},
{
closed = 1;
nodes = (
"680 320 LINE",
"472 320 LINE",
"472 345 LINE",
"474 404 OFFCURVE",
"512 438 OFFCURVE",
"576 438 CURVE SMOOTH",
"658 438 OFFCURVE",
"680 385 OFFCURVE",
"680 341 CURVE SMOOTH"
);
}
);
width = 850;
}
);
unicode = 00E6;
},
{
color = (0,243,255,1);
glyphname = b;
lastChange = "2017-10-07 14:26:38 +0000";
layers = (
{
hints = (
{
place = "{85, 55}";
},
{
place = "{410, 55}";
},
{
horizontal = 1;
place = "{0, 54}";
},
{
horizontal = 1;
place = "{473, 54}";
},
{
horizontal = 1;
place = "{713, -20}";
target = down;
type = TopGhost;
}
);
layerId = UUID0;
paths = (
{
closed = 1;
nodes = (
"465 350 LINE SMOOTH",
"465 465 OFFCURVE",
"392 536 OFFCURVE",
"275 536 CURVE SMOOTH",
"221 536 OFFCURVE",
"177 518 OFFCURVE",
"140 474 CURVE",
"140 713 LINE",
"85 713 LINE",
"85 0 LINE",
"140 0 LINE",
"140 52 LINE",
"169 10 OFFCURVE",
"221 -10 OFFCURVE",
"275 -10 CURVE SMOOTH",
"390 -10 OFFCURVE",
"465 63 OFFCURVE",
"465 177 CURVE"
);
},
{
closed = 1;
nodes = (
"410 177 LINE",
"410 93 OFFCURVE",
"360 44 OFFCURVE",
"275 44 CURVE SMOOTH",
"163 44 OFFCURVE",
"140 117 OFFCURVE",
"140 177 CURVE SMOOTH",
"140 350 LINE SMOOTH",
"140 434 OFFCURVE",
"189 482 OFFCURVE",
"275 482 CURVE SMOOTH",
"386 482 OFFCURVE",
"410 410 OFFCURVE",
"410 350 CURVE SMOOTH"
);
}
);
width = 550;
},
{
background = {
paths = (
{
closed = 1;
nodes = (
"471 341 LINE SMOOTH",
"471 459 OFFCURVE",
"394 532 OFFCURVE",
"275 532 CURVE SMOOTH",
"239 532 OFFCURVE",
"193 515 OFFCURVE",
"172 489 CURVE",
"172 713 LINE",
"76 713 LINE",
"76 0 LINE",
"172 0 LINE",
"172 34 LINE",
"192 9 OFFCURVE",
"240 -10 OFFCURVE",
"275 -10 CURVE SMOOTH",
"392 -10 OFFCURVE",
"471 67 OFFCURVE",
"471 183 CURVE"
);
},
{
closed = 1;
nodes = (
"375 183 LINE SMOOTH",
"375 122 OFFCURVE",
"338 84 OFFCURVE",
"275 84 CURVE SMOOTH",
"191 84 OFFCURVE",
"172 138 OFFCURVE",
"172 183 CURVE SMOOTH",
"172 340 LINE SMOOTH",
"172 402 OFFCURVE",
"211 438 OFFCURVE",
"275 438 CURVE SMOOTH",
"357 438 OFFCURVE",
"375 384 OFFCURVE",
"375 340 CURVE SMOOTH"
);
}
);
};
hints = (
{
place = "{76, 96}";
},
{
place = "{378, 96}";
},
{
horizontal = 1;
place = "{0, 94}";
},
{
horizontal = 1;
place = "{431, 94}";
},
{
horizontal = 1;
place = "{713, -20}";
target = down;
type = TopGhost;
}
);
layerId = "64F0AA26-A009-41C1-A946-C445650DA9E2";
paths = (
{
closed = 1;
nodes = (
"378 184 LINE",
"378 123 OFFCURVE",
"339 85 OFFCURVE",
"276 85 CURVE SMOOTH",
"193 85 OFFCURVE",
"172 138 OFFCURVE",
"172 183 CURVE SMOOTH",
"172 341 LINE SMOOTH",
"172 403 OFFCURVE",
"213 438 OFFCURVE",
"276 438 CURVE SMOOTH",
"358 438 OFFCURVE",
"378 385 OFFCURVE",
"378 341 CURVE SMOOTH"
);
},
{
closed = 1;
nodes = (
"474 341 LINE",
"474 459 OFFCURVE",
"395 532 OFFCURVE",
"276 532 CURVE SMOOTH",
"234 532 OFFCURVE",
"189 511 OFFCURVE",
"172 489 CURVE",
"172 713 LINE",
"76 713 LINE",
"76 0 LINE",
"172 0 LINE",
"172 32 LINE",
"188 12 OFFCURVE",
"236 -9 OFFCURVE",
"276 -9 CURVE SMOOTH",
"393 -9 OFFCURVE",
"474 68 OFFCURVE",
"474 184 CURVE SMOOTH"
);
}
);
width = 550;
}
);
unicode = 0062;
},
{
glyphname = c;
lastChange = "2017-10-07 14:26:38 +0000";
layers = (
{
hints = (
{
place = "{82, 55}";
},
{
place = "{414, 55}";
},
{
horizontal = 1;
place = "{0, 54}";
},
{
horizontal = 1;
place = "{473, 54}";
}
);
layerId = UUID0;
paths = (
{
closed = 1;
nodes = (
"160 536 OFFCURVE",
"82 463 OFFCURVE",
"82 350 CURVE SMOOTH",
"82 177 LINE SMOOTH",
"82 61 OFFCURVE",
"158 -10 OFFCURVE",
"276 -10 CURVE SMOOTH",
"386 -10 OFFCURVE",
"462 57 OFFCURVE",
"468 162 CURVE",
"413 162 LINE",
"408 87 OFFCURVE",
"356 44 OFFCURVE",
"276 44 CURVE SMOOTH",
"164 44 OFFCURVE",
"137 117 OFFCURVE",
"137 177 CURVE SMOOTH",
"137 350 LINE SMOOTH",
"137 434 OFFCURVE",
"190 482 OFFCURVE",
"276 482 CURVE SMOOTH",
"381 482 OFFCURVE",
"411 418 OFFCURVE",
"414 361 CURVE",
"468 361 LINE",
"463 470 OFFCURVE",
"389 536 OFFCURVE",
"276 536 CURVE SMOOTH"
);
}
);
width = 550;
},
{
hints = (
{
place = "{78, 96}";
},
{
horizontal = 1;
place = "{0, 94}";
},
{
horizontal = 1;
place = "{431, 94}";
}
);
layerId = "64F0AA26-A009-41C1-A946-C445650DA9E2";
paths = (
{
closed = 1;
nodes = (
"159 532 OFFCURVE",
"78 457 OFFCURVE",
"78 341 CURVE SMOOTH",
"78 183 LINE SMOOTH",
"78 65 OFFCURVE",
"157 -9 OFFCURVE",
"277 -9 CURVE SMOOTH",
"385 -9 OFFCURVE",
"460 59 OFFCURVE",
"474 172 CURVE",
"376 172 LINE",
"367 117 OFFCURVE",
"331 85 OFFCURVE",
"277 85 CURVE SMOOTH",
"194 85 OFFCURVE",
"174 138 OFFCURVE",
"174 183 CURVE SMOOTH",
"174 341 LINE SMOOTH",
"174 403 OFFCURVE",
"212 438 OFFCURVE",
"277 438 CURVE SMOOTH",
"343 438 OFFCURVE",
"369 395 OFFCURVE",
"377 351 CURVE",
"474 351 LINE",
"461 464 OFFCURVE",
"386 532 OFFCURVE",
"277 532 CURVE SMOOTH"
);
}
);
width = 550;
}
);
unicode = 0063;
},
{
color = (0,243,255,1);
glyphname = d;
lastChange = "2017-10-07 14:26:38 +0000";
layers = (
{
hints = (
{
place = "{84, 55}";
},
{
place = "{410, 55}";
},
{
horizontal = 1;
place = "{0, 54}";
},
{
horizontal = 1;
place = "{473, 54}";
},
{
horizontal = 1;
place = "{713, -20}";
target = down;
type = TopGhost;
}
);
layerId = UUID0;
paths = (
{
closed = 1;
nodes = (
"139 350 LINE",
"139 410 OFFCURVE",
"163 482 OFFCURVE",
"274 482 CURVE SMOOTH",
"360 482 OFFCURVE",
"410 434 OFFCURVE",
"410 350 CURVE SMOOTH",
"410 177 LINE SMOOTH",
"410 117 OFFCURVE",
"386 44 OFFCURVE",
"274 44 CURVE SMOOTH",
"189 44 OFFCURVE",
"139 93 OFFCURVE",
"139 177 CURVE SMOOTH"
);
},
{
closed = 1;
nodes = (
"84 177 LINE",
"84 63 OFFCURVE",
"159 -10 OFFCURVE",
"274 -10 CURVE SMOOTH",
"328 -10 OFFCURVE",
"381 10 OFFCURVE",
"410 52 CURVE",
"410 0 LINE",
"465 0 LINE",
"465 713 LINE",
"410 713 LINE",
"410 474 LINE",
"373 518 OFFCURVE",
"328 536 OFFCURVE",
"274 536 CURVE SMOOTH",
"157 536 OFFCURVE",
"84 465 OFFCURVE",
"84 350 CURVE SMOOTH"
);
}
);
width = 550;
},
{
hints = (
{
place = "{76, 96}";
},
{
place = "{378, 96}";
},
{
horizontal = 1;
place = "{0, 94}";
},
{
horizontal = 1;
place = "{431, 94}";
},
{
horizontal = 1;
place = "{713, -20}";
target = down;
type = TopGhost;
}
);
layerId = "64F0AA26-A009-41C1-A946-C445650DA9E2";
paths = (
{
closed = 1;
nodes = (
"172 341 LINE",
"172 385 OFFCURVE",
"192 438 OFFCURVE",
"274 438 CURVE SMOOTH",
"337 438 OFFCURVE",
"378 403 OFFCURVE",
"378 341 CURVE SMOOTH",
"378 183 LINE SMOOTH",
"378 138 OFFCURVE",
"357 85 OFFCURVE",
"274 85 CURVE SMOOTH",
"211 85 OFFCURVE",
"172 123 OFFCURVE",
"172 184 CURVE SMOOTH"
);
},
{
closed = 1;
nodes = (
"76 184 LINE",
"76 68 OFFCURVE",
"157 -9 OFFCURVE",
"274 -9 CURVE SMOOTH",
"314 -9 OFFCURVE",
"362 12 OFFCURVE",
"378 32 CURVE",
"378 0 LINE",
"474 0 LINE",
"474 713 LINE",
"378 713 LINE",
"378 489 LINE",
"361 511 OFFCURVE",
"316 532 OFFCURVE",
"274 532 CURVE SMOOTH",
"155 532 OFFCURVE",
"76 459 OFFCURVE",
"76 341 CURVE SMOOTH"
);
}
);
width = 550;
}
);
unicode = 0064;
},
{
color = 0;
glyphname = eth;
lastChange = "2017-10-07 14:26:38 +0000";
layers = (
{
background = {
paths = (
{
closed = 1;
nodes = (
"472 535 LINE",
"472 596 OFFCURVE",
"433 720 OFFCURVE",
"277 720 CURVE",
"277 666 LINE",
"327 666 OFFCURVE",
"417 647 OFFCURVE",
"417 533 CURVE SMOOTH",
"417 383 LINE",
"385 423 OFFCURVE",
"335 445 OFFCURVE",
"274 445 CURVE SMOOTH",
"121 445 OFFCURVE",
"81 320 OFFCURVE",
"81 259 CURVE SMOOTH",
"81 174 LINE SMOOTH",
"81 115 OFFCURVE",
"122 -9 OFFCURVE",
"278 -9 CURVE SMOOTH",
"431 -9 OFFCURVE",
"472 112 OFFCURVE",
"472 172 CURVE SMOOTH"
);
},
{
closed = 1;
nodes = (
"417 177 LINE",
"417 63 OFFCURVE",
"324 45 OFFCURVE",
"278 45 CURVE SMOOTH",
"232 45 OFFCURVE",
"136 63 OFFCURVE",
"136 177 CURVE SMOOTH",
"136 258 LINE SMOOTH",
"136 372 OFFCURVE",
"232 391 OFFCURVE",
"278 391 CURVE SMOOTH",
"324 391 OFFCURVE",
"417 372 OFFCURVE",
"417 258 CURVE SMOOTH"
);
},
{
closed = 1;
nodes = (
"520 536 LINE",
"520 590 LINE",
"233 590 LINE",
"233 536 LINE"
);
},
{
closed = 1;
nodes = (
"324 620 LINE",
"364 581 LINE",
"519 736 LINE",
"479 775 LINE"
);
},
{
closed = 1;
nodes = (
"469 741 LINE",
"405 741 LINE",
"333 594 LINE",
"381 594 LINE"
);
}
);
};
hints = (
{
place = "{81, 55}";
},
{
place = "{413, 55}";
},
{
horizontal = 1;
place = "{0, 54}";
},
{
horizontal = 1;
place = "{473, 54}";
},
{
horizontal = 1;
place = "{666, 54}";
}
);
layerId = UUID0;
paths = (
{
closed = 1;
nodes = (
"456 741 LINE",
"393 741 LINE",
"371 699 LINE",
"345 712 OFFCURVE",
"313 720 OFFCURVE",
"273 720 CURVE",
"273 666 LINE",
"293 666 OFFCURVE",
"321 663 OFFCURVE",
"346 651 CURVE",
"317 594 LINE",
"368 594 LINE",
"384 622 LINE",
"401 602 OFFCURVE",
"413 573 OFFCURVE",
"413 533 CURVE SMOOTH",
"413 488 LINE",
"379 519 OFFCURVE",
"332 536 OFFCURVE",
"275 536 CURVE SMOOTH",
"159 536 OFFCURVE",
"81 463 OFFCURVE",
"81 350 CURVE SMOOTH",
"81 177 LINE SMOOTH",
"81 61 OFFCURVE",
"157 -10 OFFCURVE",
"275 -10 CURVE SMOOTH",
"390 -10 OFFCURVE",
"468 63 OFFCURVE",
"468 177 CURVE SMOOTH",
"468 535 LINE SMOOTH",
"468 570 OFFCURVE",
"454 627 OFFCURVE",
"412 669 CURVE"
);
},
{
closed = 1;
nodes = (
"413 177 LINE SMOOTH",
"413 93 OFFCURVE",
"360 44 OFFCURVE",
"275 44 CURVE SMOOTH",
"163 44 OFFCURVE",
"136 117 OFFCURVE",
"136 177 CURVE SMOOTH",
"136 350 LINE SMOOTH",
"136 434 OFFCURVE",
"189 482 OFFCURVE",
"275 482 CURVE SMOOTH",
"386 482 OFFCURVE",
"413 410 OFFCURVE",
"413 350 CURVE SMOOTH"
);
}
);
width = 550;
},
{
background = {
paths = (
{
closed = 1;
nodes = (
"456 741 LINE",
"393 741 LINE",
"371 699 LINE",
"345 712 OFFCURVE",
"313 720 OFFCURVE",
"273 720 CURVE",
"273 666 LINE",
"293 666 OFFCURVE",
"321 663 OFFCURVE",
"346 651 CURVE",
"317 594 LINE",
"368 594 LINE",
"384 622 LINE",
"401 602 OFFCURVE",
"413 573 OFFCURVE",
"413 533 CURVE SMOOTH",
"413 488 LINE",
"379 519 OFFCURVE",
"332 536 OFFCURVE",
"275 536 CURVE SMOOTH",
"159 536 OFFCURVE",
"81 463 OFFCURVE",
"81 350 CURVE SMOOTH",
"81 177 LINE SMOOTH",
"81 61 OFFCURVE",
"157 -10 OFFCURVE",
"275 -10 CURVE SMOOTH",
"390 -10 OFFCURVE",
"468 63 OFFCURVE",
"468 177 CURVE SMOOTH",
"468 535 LINE SMOOTH",
"468 570 OFFCURVE",
"454 627 OFFCURVE",
"412 669 CURVE"
);
},
{
closed = 1;
nodes = (
"413 177 LINE SMOOTH",
"413 93 OFFCURVE",
"360 44 OFFCURVE",
"275 44 CURVE SMOOTH",
"163 44 OFFCURVE",
"136 117 OFFCURVE",
"136 177 CURVE SMOOTH",
"136 350 LINE SMOOTH",
"136 434 OFFCURVE",
"189 482 OFFCURVE",
"275 482 CURVE SMOOTH",
"386 482 OFFCURVE",
"413 410 OFFCURVE",
"413 350 CURVE SMOOTH"
);
},
{
closed = 1;
nodes = (
"474 511 LINE SMOOTH",
"474 574 OFFCURVE",
"432 701 OFFCURVE",
"263 701 CURVE",
"263 608 LINE",
"305 608 OFFCURVE",
"377 595 OFFCURVE",
"378 509 CURVE",
"349 524 OFFCURVE",
"314 532 OFFCURVE",
"275 532 CURVE SMOOTH",
"157 532 OFFCURVE",
"76 457 OFFCURVE",
"76 341 CURVE SMOOTH",
"76 183 LINE SMOOTH",
"76 65 OFFCURVE",
"155 -10 OFFCURVE",
"275 -10 CURVE SMOOTH",
"392 -10 OFFCURVE",
"474 67 OFFCURVE",
"474 183 CURVE"
);
},
{
closed = 1;
nodes = (
"378 182 LINE SMOOTH",
"378 121 OFFCURVE",
"339 84 OFFCURVE",
"275 84 CURVE SMOOTH",
"192 84 OFFCURVE",
"172 137 OFFCURVE",
"172 182 CURVE SMOOTH",
"172 340 LINE SMOOTH",
"172 402 OFFCURVE",
"210 438 OFFCURVE",
"275 438 CURVE SMOOTH",
"357 438 OFFCURVE",
"378 384 OFFCURVE",
"378 340 CURVE SMOOTH"
);
},
{
closed = 1;
nodes = (
"378 577 LINE",
"478 746 LINE",
"369 746 LINE",
"286 577 LINE"
);
}
);
};
hints = (
{
place = "{76, 96}";
},
{
place = "{378, 96}";
},
{
horizontal = 1;
place = "{-10, 94}";
},
{
horizontal = 1;
place = "{438, 94}";
},
{
horizontal = 1;
place = "{701, -20}";
target = down;
type = TopGhost;
}
);
layerId = "64F0AA26-A009-41C1-A946-C445650DA9E2";
paths = (
{
closed = 1;
nodes = (
"474 511 LINE SMOOTH",
"474 546 OFFCURVE",
"460 603 OFFCURVE",
"418 645 CURVE",
"478 746 LINE",
"369 746 LINE",
"341 690 LINE",
"319 697 OFFCURVE",
"293 701 OFFCURVE",
"263 701 CURVE",
"263 608 LINE",
"273 608 OFFCURVE",
"286 607 OFFCURVE",
"299 604 CURVE",
"286 577 LINE",
"353 577 LINE",
"367 562 OFFCURVE",
"377 540 OFFCURVE",
"378 509 CURVE",
"349 524 OFFCURVE",
"314 532 OFFCURVE",
"275 532 CURVE SMOOTH",
"157 532 OFFCURVE",
"76 457 OFFCURVE",
"76 341 CURVE SMOOTH",
"76 183 LINE SMOOTH",
"76 65 OFFCURVE",
"155 -10 OFFCURVE",
"275 -10 CURVE SMOOTH",
"392 -10 OFFCURVE",
"474 67 OFFCURVE",
"474 183 CURVE"
);
},
{
closed = 1;
nodes = (
"378 182 LINE SMOOTH",
"378 121 OFFCURVE",
"339 84 OFFCURVE",
"275 84 CURVE SMOOTH",
"192 84 OFFCURVE",
"172 137 OFFCURVE",
"172 182 CURVE SMOOTH",
"172 340 LINE SMOOTH",
"172 402 OFFCURVE",
"210 438 OFFCURVE",
"275 438 CURVE SMOOTH",
"357 438 OFFCURVE",
"378 384 OFFCURVE",
"378 340 CURVE SMOOTH"
);
}
);
width = 550;
}
);
unicode = 00F0;
},
{
glyphname = dcaron;
lastChange = "2017-10-07 14:26:38 +0000";
layers = (
{
components = (
{
name = d;
transform = "{1, 0, 0, 1, -9, 0}";
},
{
name = quotesingle;
transform = "{1, 0, 0, 1, 418, 0}";
}
);
layerId = UUID0;
width = 600;
},
{
components = (
{
name = d;
transform = "{1, 0, 0, 1, -16, 0}";
}
);
layerId = "64F0AA26-A009-41C1-A946-C445650DA9E2";
paths = (
{
closed = 1;
nodes = (
"642 505 LINE",
"642 713 LINE",
"547 713 LINE",
"547 505 LINE"
);
}
);
width = 600;
}
);
unicode = 010F;
},
{
color = 0;
glyphname = dcroat;
lastChange = "2017-10-07 14:26:38 +0000";
layers = (
{
background = {
paths = (
{
closed = 1;
nodes = (
"242 581 LINE",
"397 581 LINE",
"397 474 LINE",
"360 518 OFFCURVE",
"315 536 OFFCURVE",
"261 536 CURVE SMOOTH",
"144 536 OFFCURVE",
"71 465 OFFCURVE",
"71 350 CURVE SMOOTH",
"71 177 LINE SMOOTH",
"71 63 OFFCURVE",
"146 -10 OFFCURVE",
"261 -10 CURVE SMOOTH",
"315 -10 OFFCURVE",
"368 10 OFFCURVE",
"397 52 CURVE",
"397 0 LINE",
"452 0 LINE",
"452 581 LINE",
"529 581 LINE",
"529 631 LINE",
"452 631 LINE",
"452 712 LINE",
"397 712 LINE",
"397 631 LINE",
"242 631 LINE"
);
},
{
closed = 1;
nodes = (
"126 350 LINE SMOOTH",
"126 410 OFFCURVE",
"150 482 OFFCURVE",
"261 482 CURVE SMOOTH",
"347 482 OFFCURVE",
"397 434 OFFCURVE",
"397 350 CURVE SMOOTH",
"397 177 LINE SMOOTH",
"397 117 OFFCURVE",
"373 44 OFFCURVE",
"261 44 CURVE SMOOTH",
"176 44 OFFCURVE",
"126 93 OFFCURVE",
"126 177 CURVE SMOOTH"
);
}
);
};
hints = (
{
place = "{71, 55}";
},
{
place = "{397, 55}";
},
{
horizontal = 1;
place = "{-10, 54}";
},
{
horizontal = 1;
place = "{482, 54}";
},
{
horizontal = 1;
place = "{591, 50}";
},
{
horizontal = 1;
place = "{712, -20}";
target = down;
type = TopGhost;
}
);
layerId = UUID0;
paths = (
{
closed = 1;
nodes = (
"242 591 LINE",
"397 591 LINE",
"397 474 LINE",
"360 518 OFFCURVE",
"315 536 OFFCURVE",
"261 536 CURVE SMOOTH",
"144 536 OFFCURVE",
"71 465 OFFCURVE",
"71 350 CURVE SMOOTH",
"71 177 LINE SMOOTH",
"71 63 OFFCURVE",
"146 -10 OFFCURVE",
"261 -10 CURVE SMOOTH",
"315 -10 OFFCURVE",
"368 10 OFFCURVE",
"397 52 CURVE",
"397 0 LINE",
"452 0 LINE",
"452 591 LINE",
"529 591 LINE",
"529 641 LINE",
"452 641 LINE",
"452 712 LINE",
"397 712 LINE",
"397 641 LINE",
"242 641 LINE"
);
},
{
closed = 1;
nodes = (
"126 350 LINE",
"126 410 OFFCURVE",
"150 482 OFFCURVE",
"261 482 CURVE SMOOTH",
"347 482 OFFCURVE",
"397 434 OFFCURVE",
"397 350 CURVE SMOOTH",
"397 177 LINE SMOOTH",
"397 117 OFFCURVE",
"373 44 OFFCURVE",
"261 44 CURVE SMOOTH",
"176 44 OFFCURVE",
"126 93 OFFCURVE",
"126 177 CURVE SMOOTH"
);
}
);
width = 550;
},
{
hints = (
{
place = "{73, 97}";
},
{
place = "{375, 96}";
},
{
horizontal = 1;
place = "{0, 95}";
},
{
horizontal = 1;
place = "{431, 93}";
},
{
horizontal = 1;
place = "{571, 90}";
},
{
horizontal = 1;
place = "{713, -20}";
target = down;
type = TopGhost;
}
);
layerId = "64F0AA26-A009-41C1-A946-C445650DA9E2";
paths = (
{
closed = 1;
nodes = (
"228 571 LINE",
"375 571 LINE",
"375 489 LINE",
"358 511 OFFCURVE",
"313 532 OFFCURVE",
"271 532 CURVE SMOOTH",
"152 532 OFFCURVE",
"73 459 OFFCURVE",
"73 341 CURVE SMOOTH",
"73 183 LINE SMOOTH",
"73 67 OFFCURVE",
"154 -10 OFFCURVE",
"271 -10 CURVE SMOOTH",
"311 -10 OFFCURVE",
"359 12 OFFCURVE",
"375 32 CURVE",
"375 0 LINE",
"471 0 LINE",
"471 571 LINE",
"534 571 LINE",
"534 661 LINE",
"471 661 LINE",
"471 713 LINE",
"375 713 LINE",
"375 661 LINE",
"228 661 LINE"
);
},
{
closed = 1;
nodes = (
"169 341 LINE SMOOTH",
"169 385 OFFCURVE",
"189 438 OFFCURVE",
"271 438 CURVE SMOOTH",
"334 438 OFFCURVE",
"375 403 OFFCURVE",
"375 341 CURVE SMOOTH",
"375 183 LINE SMOOTH",
"375 138 OFFCURVE",
"354 84 OFFCURVE",
"271 84 CURVE SMOOTH",
"208 84 OFFCURVE",
"169 122 OFFCURVE",
"169 183 CURVE SMOOTH"
);
}
);
width = 600;
}
);
unicode = 0111;
},
{
glyphname = e;
lastChange = "2017-10-07 14:26:38 +0000";
layers = (
{
hints = (
{
place = "{81, 55}";
},
{
place = "{413, 55}";
},
{
horizontal = 1;
place = "{0, 54}";
},
{
horizontal = 1;
place = "{250, 53}";
},
{
horizontal = 1;
place = "{473, 54}";
}
);
layerId = UUID0;
paths = (
{
closed = 1;
nodes = (
"468 350 LINE",
"468 465 OFFCURVE",
"392 536 OFFCURVE",
"275 536 CURVE SMOOTH",
"159 536 OFFCURVE",
"81 463 OFFCURVE",
"81 350 CURVE SMOOTH",
"81 177 LINE SMOOTH",
"81 61 OFFCURVE",
"157 -10 OFFCURVE",
"275 -10 CURVE SMOOTH",
"385 -10 OFFCURVE",
"461 57 OFFCURVE",
"467 162 CURVE",
"412 162 LINE",
"407 87 OFFCURVE",
"355 44 OFFCURVE",
"275 44 CURVE SMOOTH",
"163 44 OFFCURVE",
"136 117 OFFCURVE",
"136 177 CURVE SMOOTH",
"136 250 LINE",
"468 250 LINE"
);
},
{
closed = 1;
nodes = (
"413 303 LINE",
"136 303 LINE",
"136 350 LINE SMOOTH",
"136 434 OFFCURVE",
"189 482 OFFCURVE",
"275 482 CURVE SMOOTH",
"386 482 OFFCURVE",
"413 410 OFFCURVE",
"413 350 CURVE SMOOTH"
);
}
);
width = 550;
},
{
hints = (
{
place = "{75, 96}";
},
{
place = "{379, 96}";
},
{
horizontal = 1;
place = "{0, 94}";
},
{
horizontal = 1;
place = "{230, 91}";
},
{
horizontal = 1;
place = "{431, 94}";
}
);
layerId = "64F0AA26-A009-41C1-A946-C445650DA9E2";
paths = (
{
closed = 1;
nodes = (
"475 341 LINE",
"475 459 OFFCURVE",
"394 532 OFFCURVE",
"275 532 CURVE SMOOTH",
"157 532 OFFCURVE",
"75 457 OFFCURVE",
"75 341 CURVE SMOOTH",
"75 183 LINE SMOOTH",
"75 65 OFFCURVE",
"155 -9 OFFCURVE",
"275 -9 CURVE SMOOTH",
"383 -9 OFFCURVE",
"459 59 OFFCURVE",
"473 172 CURVE",
"375 172 LINE",
"366 117 OFFCURVE",
"329 85 OFFCURVE",
"275 85 CURVE SMOOTH",
"192 85 OFFCURVE",
"171 137 OFFCURVE",
"171 182 CURVE SMOOTH",
"171 229 LINE",
"475 229 LINE"
);
},
{
closed = 1;
nodes = (
"379 320 LINE",
"171 320 LINE",
"171 341 LINE SMOOTH",
"171 403 OFFCURVE",
"210 438 OFFCURVE",
"275 438 CURVE SMOOTH",
"357 438 OFFCURVE",
"379 385 OFFCURVE",
"379 341 CURVE SMOOTH"
);
}
);
width = 550;
}
);
unicode = 0065;
},
{
color = 2;
glyphname = f;
lastChange = "2017-10-07 14:26:38 +0000";
layers = (
{
hints = (
{
place = "{172, 55}";
},
{
horizontal = 1;
place = "{418, 54}";
},
{
horizontal = 1;
place = "{659, 54}";
},
{
horizontal = 1;
place = "{0, 21}";
target = up;
type = BottomGhost;
}
);
layerId = UUID0;
paths = (
{
closed = 1;
nodes = (
"482 556 LINE",
"427 556 LINE",
"427 575 LINE SMOOTH",
"427 640 OFFCURVE",
"375 667 OFFCURVE",
"327 667 CURVE SMOOTH",
"279 667 OFFCURVE",
"227 640 OFFCURVE",
"227 575 CURVE SMOOTH",
"227 472 LINE",
"386 472 LINE",
"386 418 LINE",
"227 418 LINE",
"227 0 LINE",
"172 0 LINE",
"172 418 LINE",
"67 418 LINE",
"67 472 LINE",
"172 472 LINE",
"172 570 LINE SMOOTH",
"172 673 OFFCURVE",
"246 721 OFFCURVE",
"327 721 CURVE SMOOTH",
"408 721 OFFCURVE",
"482 673 OFFCURVE",
"482 570 CURVE SMOOTH"
);
}
);
width = 550;
},
{
hints = (
{
place = "{159, 96}";
},
{
place = "{392, 96}";
},
{
horizontal = 1;
place = "{347, 94}";
},
{
horizontal = 1;
place = "{619, 94}";
},
{
horizontal = 1;
place = "{0, 21}";
target = up;
type = BottomGhost;
}
);
layerId = "64F0AA26-A009-41C1-A946-C445650DA9E2";
paths = (
{
closed = 1;
nodes = (
"488 557 LINE",
"488 667 OFFCURVE",
"409 718 OFFCURVE",
"324 718 CURVE SMOOTH",
"238 718 OFFCURVE",
"159 667 OFFCURVE",
"159 557 CURVE",
"159 441 LINE",
"63 441 LINE",
"63 347 LINE",
"159 347 LINE",
"159 0 LINE",
"255 0 LINE",
"255 347 LINE",
"400 347 LINE",
"400 441 LINE",
"255 441 LINE",
"255 563 LINE",
"255 606 OFFCURVE",
"291 624 OFFCURVE",
"324 624 CURVE SMOOTH",
"356 624 OFFCURVE",
"392 606 OFFCURVE",
"392 563 CURVE",
"392 541 LINE",
"488 541 LINE"
);
}
);
width = 550;
}
);
unicode = 0066;
},
{
glyphname = g;
lastChange = "2017-10-07 14:26:38 +0000";
layers = (
{
hints = (
{
place = "{85, 55}";
},
{
place = "{410, 55}";
},
{
horizontal = 1;
place = "{-226, 53}";
},
{
horizontal = 1;
place = "{0, 54}";
},
{
horizontal = 1;
place = "{473, 54}";
}
);
layerId = UUID0;
paths = (
{
closed = 1;
nodes = (
"410 -46 LINE",
"410 -160 OFFCURVE",
"338 -173 OFFCURVE",
"276 -173 CURVE SMOOTH",
"202 -173 OFFCURVE",
"153 -137 OFFCURVE",
"148 -72 CURVE",
"93 -72 LINE",
"98 -169 OFFCURVE",
"176 -226 OFFCURVE",
"276 -226 CURVE SMOOTH",
"373 -226 OFFCURVE",
"465 -187 OFFCURVE",
"465 -46 CURVE SMOOTH",
"465 527 LINE",
"410 527 LINE",
"410 475 LINE",
"385 516 OFFCURVE",
"329 536 OFFCURVE",
"276 536 CURVE SMOOTH",
"160 536 OFFCURVE",
"85 463 OFFCURVE",
"85 350 CURVE SMOOTH",
"85 177 LINE SMOOTH",
"85 61 OFFCURVE",
"158 -10 OFFCURVE",
"276 -10 CURVE SMOOTH",
"329 -10 OFFCURVE",
"378 8 OFFCURVE",
"410 52 CURVE"
);
},
{
closed = 1;
nodes = (
"410 177 LINE",
"410 93 OFFCURVE",
"361 44 OFFCURVE",
"276 44 CURVE SMOOTH",
"164 44 OFFCURVE",
"140 117 OFFCURVE",
"140 177 CURVE SMOOTH",
"140 350 LINE SMOOTH",
"140 434 OFFCURVE",
"190 482 OFFCURVE",
"276 482 CURVE SMOOTH",
"387 482 OFFCURVE",
"410 410 OFFCURVE",
"410 350 CURVE SMOOTH"
);
}
);
width = 550;
},
{
hints = (
{
place = "{78, 96}";
},
{
place = "{374, 96}";
},
{
horizontal = 1;
place = "{-226, 93}";
},
{
horizontal = 1;
place = "{0, 94}";
},
{
horizontal = 1;
place = "{431, 94}";
}
);
layerId = "64F0AA26-A009-41C1-A946-C445650DA9E2";
paths = (
{
closed = 1;
nodes = (
"374 -39 LINE",
"374 -123 OFFCURVE",
"320 -133 OFFCURVE",
"274 -133 CURVE SMOOTH",
"234 -133 OFFCURVE",
"205 -113 OFFCURVE",
"190 -80 CURVE",
"89 -80 LINE",
"108 -171 OFFCURVE",
"183 -226 OFFCURVE",
"274 -226 CURVE SMOOTH",
"373 -226 OFFCURVE",
"470 -185 OFFCURVE",
"470 -39 CURVE SMOOTH",
"470 523 LINE",
"374 523 LINE",
"374 492 LINE",
"357 512 OFFCURVE",
"315 532 OFFCURVE",
"275 532 CURVE SMOOTH",
"157 532 OFFCURVE",
"78 457 OFFCURVE",
"78 341 CURVE SMOOTH",
"78 183 LINE SMOOTH",
"78 65 OFFCURVE",
"155 -9 OFFCURVE",
"275 -9 CURVE SMOOTH",
"316 -9 OFFCURVE",
"356 11 OFFCURVE",
"374 32 CURVE"
);
},
{
closed = 1;
nodes = (
"374 182 LINE",
"374 121 OFFCURVE",
"337 85 OFFCURVE",
"275 85 CURVE SMOOTH",
"192 85 OFFCURVE",
"174 137 OFFCURVE",
"174 182 CURVE SMOOTH",
"174 340 LINE SMOOTH",
"174 402 OFFCURVE",
"212 438 OFFCURVE",
"275 438 CURVE SMOOTH",
"357 438 OFFCURVE",
"374 384 OFFCURVE",
"374 340 CURVE SMOOTH"
);
}
);
width = 550;
}
);
unicode = 0067;
},
{
color = (0,243,255,1);
glyphname = h;
lastChange = "2017-10-07 14:26:38 +0000";
layers = (
{
background = {
paths = (
{
closed = 1;
nodes = (
"468 0 LINE",
"468 350 LINE SMOOTH",
"468 466 OFFCURVE",
"404 536 OFFCURVE",
"287 536 CURVE SMOOTH",
"234 536 OFFCURVE",
"174 516 OFFCURVE",
"141 464 CURVE",
"141 712 LINE",
"86 712 LINE",
"86 0 LINE",
"141 0 LINE",
"141 352 LINE SMOOTH",
"141 429 OFFCURVE",
"206 482 OFFCURVE",
"287 482 CURVE SMOOTH",
"399 482 OFFCURVE",
"413 409 OFFCURVE",
"413 350 CURVE SMOOTH",
"413 0 LINE"
);
},
{
closed = 1;
nodes = (
"468 0 LINE",
"468 350 LINE SMOOTH",
"468 473 OFFCURVE",
"400 536 OFFCURVE",
"287 536 CURVE SMOOTH",
"233 536 OFFCURVE",
"182 517 OFFCURVE",
"141 470 CURVE",
"141 527 LINE",
"86 527 LINE",
"86 0 LINE",
"141 0 LINE",
"141 350 LINE SMOOTH",
"141 430 OFFCURVE",
"206 482 OFFCURVE",
"287 482 CURVE SMOOTH",
"365 482 OFFCURVE",
"413 441 OFFCURVE",
"413 350 CURVE SMOOTH",
"413 0 LINE"
);
}
);
};
hints = (
{
place = "{86, 55}";
},
{
place = "{413, 55}";
},
{
horizontal = 1;
place = "{473, 54}";
},
{
horizontal = 1;
place = "{0, 21}";
target = up;
type = BottomGhost;
},
{
horizontal = 1;
place = "{713, -20}";
target = down;
type = TopGhost;
}
);
layerId = UUID0;
paths = (
{
closed = 1;
nodes = (
"468 0 LINE",
"468 350 LINE SMOOTH",
"468 473 OFFCURVE",
"400 536 OFFCURVE",
"287 536 CURVE SMOOTH",
"233 536 OFFCURVE",
"182 517 OFFCURVE",
"141 470 CURVE",
"141 713 LINE",
"86 713 LINE",
"86 0 LINE",
"141 0 LINE",
"141 350 LINE SMOOTH",
"141 430 OFFCURVE",
"206 482 OFFCURVE",
"287 482 CURVE SMOOTH",
"365 482 OFFCURVE",
"413 441 OFFCURVE",
"413 350 CURVE SMOOTH",
"413 0 LINE"
);
}
);
width = 550;
},
{
hints = (
{
place = "{79, 96}";
},
{
place = "{375, 96}";
},
{
horizontal = 1;
place = "{431, 94}";
},
{
horizontal = 1;
place = "{0, 21}";
target = up;
type = BottomGhost;
},
{
horizontal = 1;
place = "{713, -20}";
target = down;
type = TopGhost;
}
);
layerId = "64F0AA26-A009-41C1-A946-C445650DA9E2";
paths = (
{
closed = 1;
nodes = (
"471 0 LINE",
"471 341 LINE SMOOTH",
"471 460 OFFCURVE",
"408 532 OFFCURVE",
"285 532 CURVE SMOOTH",
"248 532 OFFCURVE",
"204 520 OFFCURVE",
"175 495 CURVE",
"175 713 LINE",
"79 713 LINE",
"79 0 LINE",
"175 0 LINE",
"175 343 LINE SMOOTH",
"175 400 OFFCURVE",
"223 438 OFFCURVE",
"283 438 CURVE SMOOTH",
"365 438 OFFCURVE",
"375 384 OFFCURVE",
"375 340 CURVE SMOOTH",
"375 0 LINE"
);
}
);
width = 550;
}
);
unicode = 0068;
},
{
color = 0;
glyphname = hbar;
lastChange = "2017-10-07 14:26:38 +0000";
layers = (
{
background = {
paths = (
{
closed = 1;
nodes = (
"362 591 LINE",
"362 641 LINE",
"75 641 LINE",
"75 591 LINE"
);
},
{
closed = 1;
nodes = (
"526 0 LINE",
"526 350 LINE SMOOTH",
"526 473 OFFCURVE",
"458 536 OFFCURVE",
"345 536 CURVE SMOOTH",
"291 536 OFFCURVE",
"240 517 OFFCURVE",
"199 470 CURVE",
"199 713 LINE",
"144 713 LINE",
"144 0 LINE",
"199 0 LINE",
"199 350 LINE SMOOTH",
"199 430 OFFCURVE",
"264 482 OFFCURVE",
"345 482 CURVE SMOOTH",
"423 482 OFFCURVE",
"471 441 OFFCURVE",
"471 350 CURVE SMOOTH",
"471 0 LINE"
);
}
);
};
hints = (
{
place = "{144, 55}";
},
{
place = "{470, 55}";
},
{
horizontal = 1;
place = "{482, 54}";
},
{
horizontal = 1;
place = "{592, 49}";
},
{
horizontal = 1;
place = "{712, -20}";
target = down;
type = TopGhost;
},
{
horizontal = 1;
place = "{0, 21}";
target = up;
type = BottomGhost;
}
);
layerId = UUID0;
paths = (
{
closed = 1;
nodes = (
"526 0 LINE",
"526 350 LINE SMOOTH",
"526 473 OFFCURVE",
"458 536 OFFCURVE",
"345 536 CURVE SMOOTH",
"291 536 OFFCURVE",
"240 517 OFFCURVE",
"199 470 CURVE",
"199 591 LINE",
"362 591 LINE",
"362 641 LINE",
"199 641 LINE",
"199 713 LINE",
"144 713 LINE",
"144 641 LINE",
"75 641 LINE",
"75 591 LINE",
"144 591 LINE",
"144 0 LINE",
"199 0 LINE",
"199 350 LINE SMOOTH",
"199 430 OFFCURVE",
"264 482 OFFCURVE",
"345 482 CURVE SMOOTH",
"423 482 OFFCURVE",
"471 441 OFFCURVE",
"471 350 CURVE SMOOTH",
"471 0 LINE"
);
}
);
width = 600;
},
{
hints = (
{
place = "{119, 95}";
},
{
place = "{415, 96}";
},
{
horizontal = 1;
place = "{431, 93}";
},
{
horizontal = 1;
place = "{571, 90}";
},
{
horizontal = 1;
place = "{713, -20}";
target = down;
type = TopGhost;
},
{
horizontal = 1;
place = "{0, 21}";
target = up;
type = BottomGhost;
}
);
layerId = "64F0AA26-A009-41C1-A946-C445650DA9E2";
paths = (
{
closed = 1;
nodes = (
"511 0 LINE",
"511 341 LINE SMOOTH",
"511 460 OFFCURVE",
"448 532 OFFCURVE",
"325 532 CURVE SMOOTH",
"288 532 OFFCURVE",
"244 520 OFFCURVE",
"215 495 CURVE",
"215 571 LINE",
"364 571 LINE",
"364 661 LINE",
"215 661 LINE",
"215 713 LINE",
"119 713 LINE",
"119 661 LINE",
"58 661 LINE",
"58 571 LINE",
"119 571 LINE",
"119 0 LINE",
"215 0 LINE",
"215 343 LINE SMOOTH",
"215 400 OFFCURVE",
"263 438 OFFCURVE",
"323 438 CURVE SMOOTH",
"405 438 OFFCURVE",
"415 384 OFFCURVE",
"415 340 CURVE SMOOTH",
"415 0 LINE"
);
}
);
width = 600;
}
);
unicode = 0127;
},
{
glyphname = i;
lastChange = "2017-10-07 14:26:38 +0000";
layers = (
{
background = {
paths = (
{
closed = 1;
nodes = (
"87 473 LINE",
"248 473 LINE",
"248 54 LINE",
"88 54 LINE",
"88 0 LINE",
"462 0 LINE",
"462 54 LINE",
"303 54 LINE",
"303 527 LINE",
"87 527 LINE"
);
},
{
closed = 1;
nodes = (
"313 632 LINE",
"313 721 LINE",
"236 721 LINE",
"236 632 LINE"
);
}
);
};
hints = (
{
place = "{248, 55}";
},
{
horizontal = 1;
place = "{0, 54}";
},
{
horizontal = 1;
place = "{473, 54}";
},
{
horizontal = 1;
place = "{632, 89}";
}
);
layerId = UUID0;
paths = (
{
closed = 1;
nodes = (
"87 473 LINE",
"248 473 LINE",
"248 54 LINE",
"88 54 LINE",
"88 0 LINE",
"462 0 LINE",
"462 54 LINE",
"303 54 LINE",
"303 527 LINE",
"87 527 LINE"
);
},
{
closed = 1;
nodes = (
"313 632 LINE",
"313 721 LINE",
"236 721 LINE",
"236 632 LINE"
);
}
);
width = 550;
},
{
background = {
paths = (
{
closed = 1;
nodes = (
"334 593 LINE",
"334 718 LINE",
"219 718 LINE",
"219 593 LINE"
);
}
);
};
hints = (
{
place = "{82, 243}";
},
{
place = "{229, 96}";
},
{
horizontal = 1;
place = "{0, 94}";
},
{
horizontal = 1;
place = "{431, 94}";
},
{
horizontal = 1;
place = "{595, 125}";
}
);
layerId = "64F0AA26-A009-41C1-A946-C445650DA9E2";
paths = (
{
closed = 1;
nodes = (
"81 431 LINE",
"229 431 LINE",
"229 94 LINE",
"82 94 LINE",
"82 0 LINE",
"470 0 LINE",
"470 94 LINE",
"325 94 LINE",
"325 525 LINE",
"81 525 LINE"
);
},
{
closed = 1;
nodes = (
"334 595 LINE",
"334 720 LINE",
"219 720 LINE",
"219 595 LINE"
);
}
);
width = 550;
}
);
unicode = 0069;
},
{
glyphname = dotlessi;
lastChange = "2017-10-07 14:26:38 +0000";
layers = (
{
hints = (
{
place = "{250, 54}";
},
{
horizontal = 1;
place = "{0, 21}";
target = up;
type = BottomGhost;
},
{
horizontal = 1;
place = "{527, -20}";
target = down;
type = TopGhost;
}
);
layerId = UUID0;
paths = (
{
closed = 1;
nodes = (
"88 473 LINE",
"249 473 LINE",
"249 54 LINE",
"89 54 LINE",
"89 0 LINE",
"463 0 LINE",
"463 54 LINE",
"304 54 LINE",
"304 527 LINE",
"88 527 LINE"
);
}
);
width = 550;
},
{
hints = (
{
place = "{229, 96}";
},
{
horizontal = 1;
place = "{0, 94}";
},
{
horizontal = 1;
place = "{431, 94}";
}
);
layerId = "64F0AA26-A009-41C1-A946-C445650DA9E2";
paths = (
{
closed = 1;
nodes = (
"81 431 LINE",
"229 431 LINE",
"229 94 LINE",
"82 94 LINE",
"82 0 LINE",
"470 0 LINE",
"470 94 LINE",
"325 94 LINE",
"325 525 LINE",
"81 525 LINE"
);
}
);
width = 550;
}
);
unicode = 0131;
},
{
glyphname = ij;
lastChange = "2017-10-07 14:26:38 +0000";
layers = (
{
hints = (
{
place = "{688, 55}";
},
{
place = "{281, 55}";
},
{
horizontal = 1;
place = "{-226, 54}";
},
{
horizontal = 1;
place = "{0, 54}";
},
{
horizontal = 1;
place = "{473, 54}";
},
{
horizontal = 1;
place = "{632, 89}";
}
);
layerId = UUID0;
paths = (
{
closed = 1;
nodes = (
"119 473 LINE",
"280 473 LINE",
"280 54 LINE",
"120 54 LINE",
"120 0 LINE",
"494 0 LINE",
"494 54 LINE",
"335 54 LINE",
"335 527 LINE",
"119 527 LINE"
);
},
{
closed = 1;
nodes = (
"345 632 LINE",
"345 721 LINE",
"268 721 LINE",
"268 632 LINE"
);
},
{
closed = 1;
nodes = (
"433 -75 LINE SMOOTH",
"433 -178 OFFCURVE",
"507 -226 OFFCURVE",
"588 -226 CURVE SMOOTH",
"669 -226 OFFCURVE",
"743 -178 OFFCURVE",
"743 -75 CURVE SMOOTH",
"743 527 LINE",
"491 527 LINE",
"491 473 LINE",
"688 473 LINE",
"688 -80 LINE SMOOTH",
"688 -145 OFFCURVE",
"636 -172 OFFCURVE",
"588 -172 CURVE SMOOTH",
"540 -172 OFFCURVE",
"488 -145 OFFCURVE",
"488 -80 CURVE SMOOTH",
"488 -61 LINE",
"433 -61 LINE"
);
},
{
closed = 1;
nodes = (
"753 632 LINE",
"753 721 LINE",
"676 721 LINE",
"676 632 LINE"
);
}
);
width = 900;
},
{
components = (
{
name = i;
transform = "{1, 0, 0, 1, 26, 0}";
},
{
name = j;
transform = "{1, 0, 0, 1, 335, 0}";
}
);
layerId = "64F0AA26-A009-41C1-A946-C445650DA9E2";
width = 900;
}
);
unicode = 0133;
},
{
glyphname = j;
lastChange = "2017-10-07 14:26:38 +0000";
layers = (
{
hints = (
{
place = "{84, 55}";
},
{
place = "{339, 55}";
},
{
horizontal = 1;
place = "{-226, 54}";
},
{
horizontal = 1;
place = "{473, 54}";
},
{
horizontal = 1;
place = "{632, 89}";
}
);
layerId = UUID0;
paths = (
{
closed = 1;
nodes = (
"84 -75 LINE",
"84 -178 OFFCURVE",
"158 -226 OFFCURVE",
"239 -226 CURVE SMOOTH",
"320 -226 OFFCURVE",
"394 -178 OFFCURVE",
"394 -75 CURVE SMOOTH",
"394 527 LINE",
"142 527 LINE",
"142 473 LINE",
"339 473 LINE",
"339 -80 LINE SMOOTH",
"339 -145 OFFCURVE",
"287 -172 OFFCURVE",
"239 -172 CURVE SMOOTH",
"191 -172 OFFCURVE",
"139 -145 OFFCURVE",
"139 -80 CURVE SMOOTH",
"139 -61 LINE",
"84 -61 LINE"
);
},
{
closed = 1;
nodes = (
"404 632 LINE",
"404 721 LINE",
"327 721 LINE",
"327 632 LINE"
);
}
);
width = 550;
},
{
hints = (
{
place = "{74, 96}";
},
{
place = "{307, 96}";
},
{
horizontal = 1;
place = "{-222, 94}";
},
{
horizontal = 1;
place = "{431, 94}";
},
{
horizontal = 1;
place = "{595, 125}";
}
);
layerId = "64F0AA26-A009-41C1-A946-C445650DA9E2";
paths = (
{
closed = 1;
nodes = (
"74 -66 LINE",
"74 -175 OFFCURVE",
"153 -226 OFFCURVE",
"239 -226 CURVE SMOOTH",
"324 -226 OFFCURVE",
"403 -175 OFFCURVE",
"403 -66 CURVE",
"403 525 LINE",
"127 525 LINE",
"127 431 LINE",
"307 431 LINE",
"307 -71 LINE",
"307 -114 OFFCURVE",
"271 -132 OFFCURVE",
"239 -132 CURVE SMOOTH",
"206 -132 OFFCURVE",
"170 -114 OFFCURVE",
"170 -71 CURVE",
"170 -36 LINE",
"74 -36 LINE"
);
},
{
closed = 1;
nodes = (
"412 595 LINE",
"412 720 LINE",
"297 720 LINE",
"297 595 LINE"
);
}
);
width = 550;
}
);
unicode = 006A;
},
{
glyphname = jcircumflex;
lastChange = "2017-10-07 14:26:38 +0000";
layers = (
{
components = (
{
name = circumflex;
transform = "{1, 0, 0, 1, 30, -11}";
}
);
hints = (
{
place = "{339, 55}";
},
{
horizontal = 1;
place = "{-226, 54}";
},
{
horizontal = 1;
place = "{527, -20}";
target = down;
type = TopGhost;
}
);
layerId = UUID0;
paths = (
{
closed = 1;
nodes = (
"84 -75 LINE SMOOTH",
"84 -178 OFFCURVE",
"158 -226 OFFCURVE",
"239 -226 CURVE SMOOTH",
"320 -226 OFFCURVE",
"394 -178 OFFCURVE",
"394 -75 CURVE SMOOTH",
"394 527 LINE",
"142 527 LINE",
"142 473 LINE",
"339 473 LINE",
"339 -80 LINE SMOOTH",
"339 -145 OFFCURVE",
"287 -172 OFFCURVE",
"239 -172 CURVE SMOOTH",
"191 -172 OFFCURVE",
"139 -145 OFFCURVE",
"139 -80 CURVE SMOOTH",
"139 -61 LINE",
"84 -61 LINE"
);
}
);
width = 550;
},
{
components = (
{
name = circumflex;
transform = "{1, 0, 0, 1, 0, -11}";
}
);
hints = (
{
place = "{74, 96}";
},
{
place = "{307, 96}";
},
{
horizontal = 1;
place = "{-225, 94}";
},
{
horizontal = 1;
place = "{431, 94}";
}
);
layerId = "64F0AA26-A009-41C1-A946-C445650DA9E2";
paths = (
{
closed = 1;
nodes = (
"74 -65 LINE SMOOTH",
"74 -174 OFFCURVE",
"153 -225 OFFCURVE",
"239 -225 CURVE SMOOTH",
"324 -225 OFFCURVE",
"403 -174 OFFCURVE",
"403 -65 CURVE SMOOTH",
"403 525 LINE",
"127 525 LINE",
"127 431 LINE",
"307 431 LINE",
"307 -70 LINE SMOOTH",
"307 -113 OFFCURVE",
"271 -131 OFFCURVE",
"239 -131 CURVE SMOOTH",
"206 -131 OFFCURVE",
"170 -113 OFFCURVE",
"170 -70 CURVE SMOOTH",
"170 -35 LINE",
"74 -35 LINE"
);
}
);
width = 550;
}
);
unicode = 0135;
},
{
color = (0,243,255,1);
glyphname = k;
lastChange = "2017-10-07 14:26:38 +0000";
layers = (
{
background = {
paths = (
{
closed = 1;
nodes = (
"476 0 LINE",
"275 309 LINE",
"475 527 LINE",
"403 527 LINE",
"145 242 LINE",
"145 712 LINE",
"90 712 LINE",
"90 0 LINE",
"145 0 LINE",
"145 166 LINE",
"239 269 LINE",
"411 0 LINE"
);
}
);
};
hints = (
{
place = "{90, 55}";
},
{
horizontal = 1;
place = "{0, 21}";
target = up;
type = BottomGhost;
},
{
horizontal = 1;
place = "{713, -20}";
target = down;
type = TopGhost;
}
);
layerId = UUID0;
paths = (
{
closed = 1;
nodes = (
"482 0 LINE",
"276 312 LINE",
"473 527 LINE",
"404 527 LINE",
"145 252 LINE",
"145 713 LINE",
"90 713 LINE",
"90 0 LINE",
"145 0 LINE",
"145 174 LINE",
"238 272 LINE",
"416 0 LINE"
);
}
);
width = 550;
},
{
background = {
paths = (
{
closed = 1;
nodes = (
"492 0 LINE",
"295 305 LINE",
"494 525 LINE",
"368 525 LINE",
"166 302 LINE",
"166 713 LINE",
"70 713 LINE",
"70 0 LINE",
"166 0 LINE",
"166 166 LINE",
"229 234 LINE",
"376 0 LINE"
);
}
);
};
hints = (
{
place = "{70, 96}";
},
{
horizontal = 1;
place = "{0, 21}";
target = up;
type = BottomGhost;
},
{
horizontal = 1;
place = "{525, -20}";
target = down;
type = TopGhost;
},
{
horizontal = 1;
place = "{713, -20}";
target = down;
type = TopGhost;
}
);
layerId = "64F0AA26-A009-41C1-A946-C445650DA9E2";
paths = (
{
closed = 1;
nodes = (
"495 0 LINE",
"298 305 LINE",
"494 525 LINE",
"368 525 LINE",
"166 302 LINE",
"166 713 LINE",
"70 713 LINE",
"70 0 LINE",
"166 0 LINE",
"166 166 LINE",
"229 234 LINE",
"376 0 LINE"
);
}
);
width = 550;
}
);
unicode = 006B;
},
{
glyphname = kgreenlandic;
lastChange = "2017-10-07 14:26:38 +0000";
layers = (
{
background = {
paths = (
{
closed = 1;
nodes = (
"482 0 LINE",
"275 318 LINE",
"473 527 LINE",
"404 527 LINE",
"145 252 LINE",
"145 526 LINE",
"90 526 LINE",
"90 0 LINE",
"145 0 LINE",
"145 178 LINE",
"238 276 LINE",
"416 0 LINE"
);
}
);
};
hints = (
{
place = "{90, 55}";
},
{
horizontal = 1;
place = "{474, 53}";
},
{
horizontal = 1;
place = "{0, 21}";
target = up;
type = BottomGhost;
}
);
layerId = UUID0;
paths = (
{
closed = 1;
nodes = (
"484 0 LINE",
"277 317 LINE",
"396 445 LINE",
"421 470 OFFCURVE",
"432 474 OFFCURVE",
"467 474 CURVE SMOOTH",
"478 474 LINE",
"478 527 LINE",
"432 527 OFFCURVE",
"399 521 OFFCURVE",
"373 494 CURVE SMOOTH",
"145 254 LINE",
"145 527 LINE",
"90 527 LINE",
"90 0 LINE",
"145 0 LINE",
"145 178 LINE",
"238 274 LINE",
"418 0 LINE"
);
}
);
width = 550;
},
{
layerId = "64F0AA26-A009-41C1-A946-C445650DA9E2";
width = 600;
}
);
unicode = 0138;
},
{
color = (0,243,255,1);
glyphname = l;
lastChange = "2017-10-07 14:26:38 +0000";
layers = (
{
hints = (
{
place = "{248, 55}";
},
{
horizontal = 1;
place = "{0, 54}";
},
{
horizontal = 1;
place = "{713, -54}";
}
);
layerId = UUID0;
paths = (
{
closed = 1;
nodes = (
"95 659 LINE",
"248 659 LINE",
"248 54 LINE",
"88 54 LINE",
"88 0 LINE",
"462 0 LINE",
"462 54 LINE",
"303 54 LINE",
"303 713 LINE",
"95 713 LINE"
);
}
);
width = 550;
},
{
hints = (
{
place = "{229, 96}";
},
{
horizontal = 1;
place = "{0, 94}";
},
{
horizontal = 1;
place = "{619, 94}";
}
);
layerId = "64F0AA26-A009-41C1-A946-C445650DA9E2";
paths = (
{
closed = 1;
nodes = (
"89 619 LINE",
"229 619 LINE",
"229 94 LINE",
"82 94 LINE",
"82 0 LINE",
"470 0 LINE",
"470 94 LINE",
"325 94 LINE",
"325 713 LINE",
"89 713 LINE"
);
}
);
width = 550;
}
);
unicode = 006C;
},
{
glyphname = lslash;
lastChange = "2017-10-07 14:26:38 +0000";
layers = (
{
hints = (
{
place = "{270, 55}";
},
{
horizontal = 1;
place = "{0, 54}";
},
{
horizontal = 1;
place = "{259, 50}";
},
{
horizontal = 1;
place = "{713, -20}";
target = down;
type = TopGhost;
}
);
layerId = UUID0;
paths = (
{
closed = 1;
nodes = (
"270 131 LINE",
"270 38 OFFCURVE",
"324 0 OFFCURVE",
"390 0 CURVE SMOOTH",
"408 0 LINE",
"408 54 LINE",
"395 54 LINE SMOOTH",
"357 54 OFFCURVE",
"325 71 OFFCURVE",
"325 126 CURVE SMOOTH",
"325 259 LINE",
"443 259 LINE",
"443 309 LINE",
"325 309 LINE",
"325 713 LINE",
"270 713 LINE",
"270 309 LINE",
"156 309 LINE",
"156 259 LINE",
"270 259 LINE"
);
}
);
width = 600;
},
{
hints = (
{
place = "{252, 95}";
},
{
horizontal = 1;
place = "{0, 94}";
},
{
horizontal = 1;
place = "{245, 90}";
},
{
horizontal = 1;
place = "{694, -20}";
target = down;
type = TopGhost;
}
);
layerId = "64F0AA26-A009-41C1-A946-C445650DA9E2";
paths = (
{
closed = 1;
nodes = (
"252 141 LINE",
"252 40 OFFCURVE",
"311 0 OFFCURVE",
"384 0 CURVE SMOOTH",
"423 0 LINE",
"423 94 LINE",
"388 94 LINE SMOOTH",
"366 94 OFFCURVE",
"347 104 OFFCURVE",
"347 137 CURVE SMOOTH",
"347 245 LINE",
"454 245 LINE",
"454 335 LINE",
"347 335 LINE",
"347 694 LINE",
"252 694 LINE",
"252 335 LINE",
"149 335 LINE",
"149 245 LINE",
"252 245 LINE"
);
}
);
width = 600;
}
);
unicode = 0142;
},
{
color = (0,243,255,1);
glyphname = m;
lastChange = "2017-10-07 14:26:38 +0000";
layers = (
{
background = {
paths = (
{
closed = 1;
nodes = (
"583 388 LINE SMOOTH",
"583 455 OFFCURVE",
"548 536 OFFCURVE",
"460 536 CURVE SMOOTH",
"416 536 OFFCURVE",
"363 522 OFFCURVE",
"329 455 CURVE",
"314 500 OFFCURVE",
"281 536 OFFCURVE",
"230 536 CURVE SMOOTH",
"188 536 OFFCURVE",
"152 526 OFFCURVE",
"121 474 CURVE",
"121 528 LINE",
"66 528 LINE",
"66 0 LINE",
"121 0 LINE",
"121 337 LINE SMOOTH",
"121 430 OFFCURVE",
"148 482 OFFCURVE",
"224 482 CURVE SMOOTH",
"278 482 OFFCURVE",
"297 430 OFFCURVE",
"297 378 CURVE SMOOTH",
"297 0 LINE",
"352 0 LINE",
"352 338 LINE SMOOTH",
"352 429 OFFCURVE",
"380 482 OFFCURVE",
"456 482 CURVE SMOOTH",
"514 482 OFFCURVE",
"528 434 OFFCURVE",
"528 381 CURVE SMOOTH",
"528 0 LINE",
"583 0 LINE"
);
}
);
};
hints = (
{
place = "{66, 55}";
},
{
place = "{297, 55}";
},
{
place = "{528, 55}";
},
{
horizontal = 1;
place = "{473, 54}";
},
{
horizontal = 1;
place = "{0, 21}";
target = up;
type = BottomGhost;
}
);
layerId = UUID0;
paths = (
{
closed = 1;
nodes = (
"583 388 LINE SMOOTH",
"583 470 OFFCURVE",
"545 536 OFFCURVE",
"455 536 CURVE SMOOTH",
"411 536 OFFCURVE",
"369 522 OFFCURVE",
"333 462 CURVE",
"316 508 OFFCURVE",
"279 536 OFFCURVE",
"230 536 CURVE SMOOTH",
"188 536 OFFCURVE",
"152 527 OFFCURVE",
"121 475 CURVE",
"121 527 LINE",
"66 527 LINE",
"66 0 LINE",
"121 0 LINE",
"121 337 LINE SMOOTH",
"121 430 OFFCURVE",
"148 482 OFFCURVE",
"224 482 CURVE SMOOTH",
"278 482 OFFCURVE",
"297 430 OFFCURVE",
"297 378 CURVE SMOOTH",
"297 0 LINE",
"352 0 LINE",
"352 338 LINE SMOOTH",
"352 429 OFFCURVE",
"376 482 OFFCURVE",
"451 482 CURVE SMOOTH",
"511 482 OFFCURVE",
"528 434 OFFCURVE",
"528 381 CURVE SMOOTH",
"528 0 LINE",
"583 0 LINE"
);
}
);
width = 650;
},
{
hints = (
{
place = "{65, 96}";
},
{
place = "{278, 95}";
},
{
place = "{489, 96}";
},
{
horizontal = 1;
place = "{431, 94}";
},
{
horizontal = 1;
place = "{0, 21}";
target = up;
type = BottomGhost;
}
);
layerId = "64F0AA26-A009-41C1-A946-C445650DA9E2";
paths = (
{
closed = 1;
nodes = (
"585 377 LINE",
"585 448 OFFCURVE",
"545 532 OFFCURVE",
"448 532 CURVE SMOOTH",
"410 532 OFFCURVE",
"379 524 OFFCURVE",
"346 482 CURVE",
"324 515 OFFCURVE",
"302 532 OFFCURVE",
"253 532 CURVE SMOOTH",
"215 532 OFFCURVE",
"181 515 OFFCURVE",
"161 495 CURVE",
"161 523 LINE",
"65 523 LINE",
"65 0 LINE",
"161 0 LINE",
"161 333 LINE",
"161 403 OFFCURVE",
"176 439 OFFCURVE",
"229 439 CURVE SMOOTH",
"262 439 OFFCURVE",
"278 406 OFFCURVE",
"278 370 CURVE",
"278 0 LINE",
"373 0 LINE",
"373 334 LINE",
"373 402 OFFCURVE",
"388 439 OFFCURVE",
"438 439 CURVE SMOOTH",
"474 439 OFFCURVE",
"489 409 OFFCURVE",
"489 373 CURVE",
"489 0 LINE",
"585 0 LINE"
);
}
);
width = 650;
}
);
unicode = 006D;
},
{
color = (0,243,255,1);
glyphname = n;
lastChange = "2017-10-07 14:26:38 +0000";
layers = (
{
background = {
paths = (
{
closed = 1;
nodes = (
"468 0 LINE",
"468 350 LINE SMOOTH",
"468 473 OFFCURVE",
"400 536 OFFCURVE",
"287 536 CURVE SMOOTH",
"233 536 OFFCURVE",
"182 517 OFFCURVE",
"141 470 CURVE",
"141 713 LINE",
"86 713 LINE",
"86 0 LINE",
"141 0 LINE",
"141 350 LINE SMOOTH",
"141 430 OFFCURVE",
"206 482 OFFCURVE",
"287 482 CURVE SMOOTH",
"365 482 OFFCURVE",
"413 441 OFFCURVE",
"413 350 CURVE SMOOTH",
"413 0 LINE"
);
}
);
};
hints = (
{
place = "{86, 55}";
},
{
place = "{413, 55}";
},
{
horizontal = 1;
place = "{473, 54}";
},
{
horizontal = 1;
place = "{0, 21}";
target = up;
type = BottomGhost;
}
);
layerId = UUID0;
paths = (
{
closed = 1;
nodes = (
"468 0 LINE",
"468 350 LINE SMOOTH",
"468 473 OFFCURVE",
"400 536 OFFCURVE",
"287 536 CURVE SMOOTH",
"233 536 OFFCURVE",
"182 517 OFFCURVE",
"141 470 CURVE",
"141 527 LINE",
"86 527 LINE",
"86 0 LINE",
"141 0 LINE",
"141 350 LINE SMOOTH",
"141 430 OFFCURVE",
"206 482 OFFCURVE",
"287 482 CURVE SMOOTH",
"365 482 OFFCURVE",
"413 441 OFFCURVE",
"413 350 CURVE SMOOTH",
"413 0 LINE"
);
}
);
width = 550;
},
{
hints = (
{
place = "{79, 96}";
},
{
place = "{375, 96}";
},
{
horizontal = 1;
place = "{431, 94}";
},
{
horizontal = 1;
place = "{0, 21}";
target = up;
type = BottomGhost;
}
);
layerId = "64F0AA26-A009-41C1-A946-C445650DA9E2";
paths = (
{
closed = 1;
nodes = (
"471 0 LINE",
"471 341 LINE SMOOTH",
"471 460 OFFCURVE",
"407 532 OFFCURVE",
"285 532 CURVE SMOOTH",
"249 532 OFFCURVE",
"205 519 OFFCURVE",
"175 495 CURVE",
"175 523 LINE",
"79 523 LINE",
"79 0 LINE",
"175 0 LINE",
"175 343 LINE SMOOTH",
"175 400 OFFCURVE",
"223 438 OFFCURVE",
"283 438 CURVE SMOOTH",
"365 438 OFFCURVE",
"375 384 OFFCURVE",
"375 340 CURVE SMOOTH",
"375 0 LINE"
);
}
);
width = 550;
}
);
unicode = 006E;
},
{
glyphname = napostrophe;
lastChange = "2017-10-07 14:26:38 +0000";
layers = (
{
components = (
{
name = n;
transform = "{1, 0, 0, 1, 48, 0}";
},
{
name = quotesingle;
transform = "{1, 0, 0, 1, -140, 0}";
}
);
layerId = UUID0;
width = 600;
},
{
components = (
{
name = n;
transform = "{1, 0, 0, 1, 49, 0}";
}
);
layerId = "64F0AA26-A009-41C1-A946-C445650DA9E2";
paths = (
{
closed = 1;
nodes = (
"63 505 LINE",
"63 713 LINE",
"-32 713 LINE",
"-32 505 LINE"
);
}
);
width = 600;
}
);
unicode = 0149;
},
{
glyphname = eng;
lastChange = "2017-10-07 14:26:38 +0000";
layers = (
{
hints = (
{
place = "{84, 55}";
},
{
place = "{411, 55}";
},
{
horizontal = 1;
place = "{-226, 54}";
},
{
horizontal = 1;
place = "{473, 54}";
},
{
horizontal = 1;
place = "{0, 21}";
target = up;
type = BottomGhost;
}
);
layerId = UUID0;
paths = (
{
closed = 1;
nodes = (
"466 350 LINE SMOOTH",
"466 466 OFFCURVE",
"402 536 OFFCURVE",
"285 536 CURVE SMOOTH",
"231 536 OFFCURVE",
"175 518 OFFCURVE",
"139 464 CURVE",
"139 527 LINE",
"84 527 LINE",
"84 0 LINE",
"139 0 LINE",
"139 352 LINE SMOOTH",
"139 429 OFFCURVE",
"204 482 OFFCURVE",
"285 482 CURVE SMOOTH",
"393 482 OFFCURVE",
"411 409 OFFCURVE",
"411 350 CURVE SMOOTH",
"411 -100 LINE SMOOTH",
"411 -155 OFFCURVE",
"379 -172 OFFCURVE",
"341 -172 CURVE SMOOTH",
"328 -172 LINE",
"328 -226 LINE",
"346 -226 LINE SMOOTH",
"412 -226 OFFCURVE",
"466 -188 OFFCURVE",
"466 -95 CURVE"
);
}
);
width = 550;
},
{
hints = (
{
place = "{78, 96}";
},
{
place = "{374, 96}";
},
{
horizontal = 1;
place = "{-206, 94}";
},
{
horizontal = 1;
place = "{431, 94}";
},
{
horizontal = 1;
place = "{0, 21}";
target = up;
type = BottomGhost;
}
);
layerId = "64F0AA26-A009-41C1-A946-C445650DA9E2";
paths = (
{
closed = 1;
nodes = (
"470 -64 LINE",
"470 341 LINE SMOOTH",
"470 460 OFFCURVE",
"406 532 OFFCURVE",
"284 532 CURVE SMOOTH",
"248 532 OFFCURVE",
"204 519 OFFCURVE",
"174 495 CURVE",
"174 523 LINE",
"78 523 LINE",
"78 0 LINE",
"174 0 LINE",
"174 343 LINE SMOOTH",
"174 400 OFFCURVE",
"222 438 OFFCURVE",
"282 438 CURVE SMOOTH",
"364 438 OFFCURVE",
"374 384 OFFCURVE",
"374 340 CURVE SMOOTH",
"374 -69 LINE SMOOTH",
"374 -102 OFFCURVE",
"355 -112 OFFCURVE",
"333 -112 CURVE SMOOTH",
"299 -112 LINE",
"299 -206 LINE",
"337 -206 LINE SMOOTH",
"410 -206 OFFCURVE",
"468 -166 OFFCURVE",
"468 -64 CURVE"
);
}
);
width = 550;
}
);
unicode = 014B;
},
{
glyphname = o;
lastChange = "2017-10-07 14:26:38 +0000";
layers = (
{
hints = (
{
place = "{81, 55}";
},
{
place = "{413, 55}";
},
{
horizontal = 1;
place = "{0, 54}";
},
{
horizontal = 1;
place = "{473, 54}";
}
);
layerId = UUID0;
paths = (
{
closed = 1;
nodes = (
"468 350 LINE SMOOTH",
"468 465 OFFCURVE",
"392 536 OFFCURVE",
"275 536 CURVE SMOOTH",
"159 536 OFFCURVE",
"81 463 OFFCURVE",
"81 350 CURVE SMOOTH",
"81 177 LINE SMOOTH",
"81 61 OFFCURVE",
"157 -10 OFFCURVE",
"275 -10 CURVE SMOOTH",
"390 -10 OFFCURVE",
"468 63 OFFCURVE",
"468 177 CURVE"
);
},
{
closed = 1;
nodes = (
"413 177 LINE",
"413 93 OFFCURVE",
"360 44 OFFCURVE",
"275 44 CURVE SMOOTH",
"163 44 OFFCURVE",
"136 117 OFFCURVE",
"136 177 CURVE SMOOTH",
"136 350 LINE SMOOTH",
"136 434 OFFCURVE",
"189 482 OFFCURVE",
"275 482 CURVE SMOOTH",
"386 482 OFFCURVE",
"413 410 OFFCURVE",
"413 350 CURVE SMOOTH"
);
}
);
width = 550;
},
{
hints = (
{
place = "{76, 96}";
},
{
place = "{378, 96}";
},
{
horizontal = 1;
place = "{0, 94}";
},
{
horizontal = 1;
place = "{431, 94}";
}
);
layerId = "64F0AA26-A009-41C1-A946-C445650DA9E2";
paths = (
{
closed = 1;
nodes = (
"474 341 LINE SMOOTH",
"474 459 OFFCURVE",
"394 532 OFFCURVE",
"275 532 CURVE SMOOTH",
"157 532 OFFCURVE",
"76 457 OFFCURVE",
"76 341 CURVE SMOOTH",
"76 183 LINE SMOOTH",
"76 65 OFFCURVE",
"155 -9 OFFCURVE",
"275 -9 CURVE SMOOTH",
"392 -9 OFFCURVE",
"474 67 OFFCURVE",
"474 183 CURVE"
);
},
{
closed = 1;
nodes = (
"378 182 LINE",
"378 121 OFFCURVE",
"339 85 OFFCURVE",
"275 85 CURVE SMOOTH",
"192 85 OFFCURVE",
"172 137 OFFCURVE",
"172 182 CURVE SMOOTH",
"172 340 LINE SMOOTH",
"172 402 OFFCURVE",
"210 438 OFFCURVE",
"275 438 CURVE SMOOTH",
"357 438 OFFCURVE",
"378 384 OFFCURVE",
"378 340 CURVE SMOOTH"
);
}
);
width = 550;
}
);
unicode = 006F;
},
{
color = (255,137,0,1);
glyphname = ohorn;
lastChange = "2017-10-07 14:26:38 +0000";
layers = (
{
background = {
paths = (
{
closed = 1;
nodes = (
"453 350 LINE SMOOTH",
"453 465 OFFCURVE",
"377 536 OFFCURVE",
"260 536 CURVE SMOOTH",
"144 536 OFFCURVE",
"66 463 OFFCURVE",
"66 350 CURVE SMOOTH",
"66 177 LINE SMOOTH",
"66 61 OFFCURVE",
"142 -10 OFFCURVE",
"260 -10 CURVE SMOOTH",
"375 -10 OFFCURVE",
"453 63 OFFCURVE",
"453 177 CURVE"
);
},
{
closed = 1;
nodes = (
"398 177 LINE SMOOTH",
"398 93 OFFCURVE",
"345 44 OFFCURVE",
"260 44 CURVE SMOOTH",
"148 44 OFFCURVE",
"121 117 OFFCURVE",
"121 177 CURVE SMOOTH",
"121 350 LINE SMOOTH",
"121 434 OFFCURVE",
"174 482 OFFCURVE",
"260 482 CURVE SMOOTH",
"371 482 OFFCURVE",
"398 410 OFFCURVE",
"398 350 CURVE SMOOTH"
);
},
{
closed = 1;
nodes = (
"488 526 LINE",
"488 465 LINE SMOOTH",
"488 426 OFFCURVE",
"473 405 OFFCURVE",
"424 405 CURVE SMOOTH",
"400 405 LINE",
"404 352 LINE",
"419 352 LINE SMOOTH",
"512 352 OFFCURVE",
"541 396 OFFCURVE",
"541 462 CURVE SMOOTH",
"541 526 LINE"
);
}
);
};
hints = (
{
place = "{66, 55}";
},
{
place = "{398, 55}";
},
{
horizontal = 1;
place = "{0, 54}";
},
{
horizontal = 1;
place = "{473, 54}";
}
);
layerId = UUID0;
paths = (
{
closed = 1;
nodes = (
"488 526 LINE",
"488 465 LINE SMOOTH",
"488 432 OFFCURVE",
"477 413 OFFCURVE",
"446 407 CURVE",
"424 488 OFFCURVE",
"356 536 OFFCURVE",
"260 536 CURVE SMOOTH",
"144 536 OFFCURVE",
"66 463 OFFCURVE",
"66 350 CURVE SMOOTH",
"66 177 LINE SMOOTH",
"66 61 OFFCURVE",
"142 -10 OFFCURVE",
"260 -10 CURVE SMOOTH",
"375 -10 OFFCURVE",
"453 63 OFFCURVE",
"453 177 CURVE SMOOTH",
"453 350 LINE",
"453 354 LINE",
"519 364 OFFCURVE",
"541 405 OFFCURVE",
"541 462 CURVE SMOOTH",
"541 526 LINE"
);
},
{
closed = 1;
nodes = (
"398 177 LINE SMOOTH",
"398 93 OFFCURVE",
"345 44 OFFCURVE",
"260 44 CURVE SMOOTH",
"148 44 OFFCURVE",
"121 117 OFFCURVE",
"121 177 CURVE SMOOTH",
"121 350 LINE SMOOTH",
"121 434 OFFCURVE",
"174 482 OFFCURVE",
"260 482 CURVE SMOOTH",
"371 482 OFFCURVE",
"398 410 OFFCURVE",
"398 350 CURVE SMOOTH"
);
}
);
width = 550;
},
{
background = {
paths = (
{
closed = 1;
nodes = (
"454 341 LINE SMOOTH",
"454 459 OFFCURVE",
"374 532 OFFCURVE",
"255 532 CURVE SMOOTH",
"137 532 OFFCURVE",
"56 457 OFFCURVE",
"56 341 CURVE SMOOTH",
"56 183 LINE SMOOTH",
"56 65 OFFCURVE",
"135 -10 OFFCURVE",
"255 -10 CURVE SMOOTH",
"372 -10 OFFCURVE",
"454 67 OFFCURVE",
"454 183 CURVE"
);
},
{
closed = 1;
nodes = (
"358 182 LINE SMOOTH",
"358 121 OFFCURVE",
"319 84 OFFCURVE",
"255 84 CURVE SMOOTH",
"172 84 OFFCURVE",
"152 137 OFFCURVE",
"152 182 CURVE SMOOTH",
"152 340 LINE SMOOTH",
"152 402 OFFCURVE",
"190 438 OFFCURVE",
"255 438 CURVE SMOOTH",
"337 438 OFFCURVE",
"358 384 OFFCURVE",
"358 340 CURVE SMOOTH"
);
},
{
closed = 1;
nodes = (
"468 525 LINE",
"468 475 LINE SMOOTH",
"468 440 OFFCURVE",
"451 415 OFFCURVE",
"414 415 CURVE SMOOTH",
"379 415 LINE",
"385 342 LINE",
"409 342 LINE SMOOTH",
"502 342 OFFCURVE",
"541 392 OFFCURVE",
"541 474 CURVE SMOOTH",
"541 525 LINE"
);
}
);
};
hints = (
{
place = "{56, 96}";
},
{
place = "{358, 96}";
},
{
horizontal = 1;
place = "{0, 94}";
},
{
horizontal = 1;
place = "{431, 94}";
}
);
layerId = "64F0AA26-A009-41C1-A946-C445650DA9E2";
paths = (
{
closed = 1;
nodes = (
"468 525 LINE",
"468 475 LINE SMOOTH",
"468 449 OFFCURVE",
"459 429 OFFCURVE",
"439 420 CURVE",
"411 491 OFFCURVE",
"344 532 OFFCURVE",
"255 532 CURVE SMOOTH",
"137 532 OFFCURVE",
"56 457 OFFCURVE",
"56 341 CURVE SMOOTH",
"56 183 LINE SMOOTH",
"56 65 OFFCURVE",
"135 -10 OFFCURVE",
"255 -10 CURVE SMOOTH",
"372 -10 OFFCURVE",
"454 67 OFFCURVE",
"454 183 CURVE SMOOTH",
"454 341 LINE",
"454 347 LINE",
"514 361 OFFCURVE",
"541 406 OFFCURVE",
"541 474 CURVE SMOOTH",
"541 525 LINE"
);
},
{
closed = 1;
nodes = (
"358 182 LINE SMOOTH",
"358 121 OFFCURVE",
"319 84 OFFCURVE",
"255 84 CURVE SMOOTH",
"172 84 OFFCURVE",
"152 137 OFFCURVE",
"152 182 CURVE SMOOTH",
"152 340 LINE SMOOTH",
"152 402 OFFCURVE",
"190 438 OFFCURVE",
"255 438 CURVE SMOOTH",
"337 438 OFFCURVE",
"358 384 OFFCURVE",
"358 340 CURVE SMOOTH"
);
}
);
width = 550;
}
);
unicode = 01A1;
},
{
glyphname = oslash;
lastChange = "2017-10-07 14:26:38 +0000";
layers = (
{
hints = (
{
place = "{81, 55}";
},
{
place = "{413, 55}";
},
{
horizontal = 1;
place = "{-10, 54}";
},
{
horizontal = 1;
place = "{482, 54}";
},
{
horizontal = 1;
place = "{564, -20}";
target = down;
type = TopGhost;
},
{
horizontal = 1;
place = "{-39, 21}";
target = up;
type = BottomGhost;
}
);
layerId = UUID0;
paths = (
{
closed = 1;
nodes = (
"468 350 LINE SMOOTH",
"468 423 OFFCURVE",
"437 478 OFFCURVE",
"385 508 CURVE",
"405 564 LINE",
"351 564 LINE",
"338 528 LINE",
"318 533 OFFCURVE",
"297 536 OFFCURVE",
"275 536 CURVE SMOOTH",
"159 536 OFFCURVE",
"81 463 OFFCURVE",
"81 350 CURVE SMOOTH",
"81 177 LINE SMOOTH",
"81 101 OFFCURVE",
"113 44 OFFCURVE",
"169 14 CURVE",
"149 -39 LINE",
"205 -39 LINE",
"218 -4 LINE",
"236 -8 OFFCURVE",
"255 -10 OFFCURVE",
"275 -10 CURVE SMOOTH",
"390 -10 OFFCURVE",
"468 63 OFFCURVE",
"468 177 CURVE"
);
},
{
closed = 1;
nodes = (
"136 350 LINE SMOOTH",
"136 434 OFFCURVE",
"189 482 OFFCURVE",
"275 482 CURVE SMOOTH",
"292 482 OFFCURVE",
"307 480 OFFCURVE",
"321 477 CURVE",
"186 67 LINE",
"147 93 OFFCURVE",
"136 138 OFFCURVE",
"136 177 CURVE"
);
},
{
closed = 1;
nodes = (
"413 177 LINE",
"413 93 OFFCURVE",
"360 44 OFFCURVE",
"275 44 CURVE SMOOTH",
"260 44 OFFCURVE",
"247 45 OFFCURVE",
"235 47 CURVE",
"368 455 LINE",
"403 429 OFFCURVE",
"413 387 OFFCURVE",
"413 350 CURVE SMOOTH"
);
}
);
width = 550;
},
{
background = {
paths = (
{
closed = 1;
nodes = (
"474 341 LINE SMOOTH",
"474 459 OFFCURVE",
"394 532 OFFCURVE",
"275 532 CURVE SMOOTH",
"157 532 OFFCURVE",
"76 457 OFFCURVE",
"76 341 CURVE SMOOTH",
"76 183 LINE SMOOTH",
"76 65 OFFCURVE",
"155 -10 OFFCURVE",
"275 -10 CURVE SMOOTH",
"392 -10 OFFCURVE",
"474 67 OFFCURVE",
"474 183 CURVE"
);
},
{
closed = 1;
nodes = (
"378 182 LINE SMOOTH",
"378 121 OFFCURVE",
"339 84 OFFCURVE",
"275 84 CURVE SMOOTH",
"192 84 OFFCURVE",
"172 137 OFFCURVE",
"172 182 CURVE SMOOTH",
"172 340 LINE SMOOTH",
"172 402 OFFCURVE",
"210 438 OFFCURVE",
"275 438 CURVE SMOOTH",
"357 438 OFFCURVE",
"378 384 OFFCURVE",
"378 340 CURVE SMOOTH"
);
},
{
closed = 1;
nodes = (
"451 577 LINE",
"396 577 LINE",
"95 -52 LINE",
"151 -52 LINE"
);
}
);
};
hints = (
{
place = "{76, 96}";
},
{
place = "{378, 96}";
},
{
horizontal = 1;
place = "{0, 94}";
},
{
horizontal = 1;
place = "{430, 94}";
}
);
layerId = "64F0AA26-A009-41C1-A946-C445650DA9E2";
paths = (
{
closed = 1;
nodes = (
"451 577 LINE",
"396 577 LINE",
"366 515 LINE",
"339 526 OFFCURVE",
"309 532 OFFCURVE",
"275 532 CURVE SMOOTH",
"157 532 OFFCURVE",
"76 457 OFFCURVE",
"76 341 CURVE SMOOTH",
"76 183 LINE SMOOTH",
"76 120 OFFCURVE",
"98 70 OFFCURVE",
"137 36 CURVE",
"95 -52 LINE",
"151 -52 LINE",
"180 9 LINE",
"207 -3 OFFCURVE",
"239 -10 OFFCURVE",
"275 -10 CURVE SMOOTH",
"392 -10 OFFCURVE",
"474 67 OFFCURVE",
"474 183 CURVE SMOOTH",
"474 341 LINE SMOOTH",
"474 405 OFFCURVE",
"450 456 OFFCURVE",
"409 489 CURVE"
);
},
{
closed = 1;
nodes = (
"378 182 LINE SMOOTH",
"378 121 OFFCURVE",
"339 84 OFFCURVE",
"275 84 CURVE SMOOTH",
"252 84 OFFCURVE",
"235 88 OFFCURVE",
"221 94 CURVE",
"364 395 LINE",
"374 378 OFFCURVE",
"378 358 OFFCURVE",
"378 340 CURVE SMOOTH"
);
},
{
closed = 1;
nodes = (
"172 340 LINE SMOOTH",
"172 402 OFFCURVE",
"210 438 OFFCURVE",
"275 438 CURVE SMOOTH",
"295 438 OFFCURVE",
"311 434 OFFCURVE",
"325 429 CURVE",
"182 131 LINE",
"174 147 OFFCURVE",
"172 165 OFFCURVE",
"172 182 CURVE"
);
}
);
width = 550;
}
);
unicode = 00F8;
},
{
glyphname = oe;
lastChange = "2017-10-07 14:26:38 +0000";
layers = (
{
background = {
paths = (
{
closed = 1;
nodes = (
"447 250 LINE",
"773 250 LINE",
"773 350 LINE SMOOTH",
"773 465 OFFCURVE",
"700 536 OFFCURVE",
"583 536 CURVE SMOOTH",
"509 536 OFFCURVE",
"452 506 OFFCURVE",
"420 455 CURVE",
"389 506 OFFCURVE",
"332 536 OFFCURVE",
"257 536 CURVE SMOOTH",
"141 536 OFFCURVE",
"66 463 OFFCURVE",
"66 350 CURVE SMOOTH",
"66 177 LINE SMOOTH",
"66 61 OFFCURVE",
"139 -10 OFFCURVE",
"257 -10 CURVE SMOOTH",
"330 -10 OFFCURVE",
"387 19 OFFCURVE",
"419 70 CURVE",
"450 19 OFFCURVE",
"507 -10 OFFCURVE",
"583 -10 CURVE SMOOTH",
"693 -10 OFFCURVE",
"766 57 OFFCURVE",
"772 162 CURVE",
"717 162 LINE",
"712 87 OFFCURVE",
"663 44 OFFCURVE",
"583 44 CURVE SMOOTH",
"476 44 OFFCURVE",
"449 110 OFFCURVE",
"447 168 CURVE"
);
},
{
closed = 1;
nodes = (
"392 171 LINE",
"389 91 OFFCURVE",
"340 44 OFFCURVE",
"257 44 CURVE SMOOTH",
"145 44 OFFCURVE",
"121 117 OFFCURVE",
"121 177 CURVE SMOOTH",
"121 350 LINE SMOOTH",
"121 434 OFFCURVE",
"171 482 OFFCURVE",
"257 482 CURVE SMOOTH",
"362 482 OFFCURVE",
"389 417 OFFCURVE",
"392 359 CURVE"
);
},
{
closed = 1;
nodes = (
"718 303 LINE",
"447 303 LINE",
"447 356 LINE",
"449 436 OFFCURVE",
"499 482 OFFCURVE",
"583 482 CURVE SMOOTH",
"694 482 OFFCURVE",
"718 410 OFFCURVE",
"718 350 CURVE SMOOTH"
);
}
);
};
hints = (
{
place = "{66, 55}";
},
{
place = "{397, 55}";
},
{
place = "{729, 56}";
},
{
horizontal = 1;
place = "{0, 54}";
},
{
horizontal = 1;
place = "{250, 53}";
},
{
horizontal = 1;
place = "{472, 54}";
}
);
layerId = UUID0;
paths = (
{
closed = 1;
nodes = (
"784 350 LINE SMOOTH",
"784 465 OFFCURVE",
"708 536 OFFCURVE",
"591 536 CURVE SMOOTH",
"516 536 OFFCURVE",
"457 505 OFFCURVE",
"425 454 CURVE",
"393 506 OFFCURVE",
"335 536 OFFCURVE",
"259 536 CURVE SMOOTH",
"143 536 OFFCURVE",
"65 463 OFFCURVE",
"65 350 CURVE SMOOTH",
"65 177 LINE SMOOTH",
"65 61 OFFCURVE",
"141 -10 OFFCURVE",
"259 -10 CURVE SMOOTH",
"333 -10 OFFCURVE",
"391 20 OFFCURVE",
"424 72 CURVE",
"456 19 OFFCURVE",
"515 -10 OFFCURVE",
"591 -10 CURVE SMOOTH",
"701 -10 OFFCURVE",
"777 57 OFFCURVE",
"783 162 CURVE",
"728 162 LINE",
"723 87 OFFCURVE",
"671 44 OFFCURVE",
"591 44 CURVE SMOOTH",
"479 44 OFFCURVE",
"452 117 OFFCURVE",
"452 177 CURVE SMOOTH",
"452 250 LINE",
"784 250 LINE"
);
},
{
closed = 1;
nodes = (
"397 177 LINE SMOOTH",
"397 93 OFFCURVE",
"344 44 OFFCURVE",
"259 44 CURVE SMOOTH",
"147 44 OFFCURVE",
"120 117 OFFCURVE",
"120 177 CURVE SMOOTH",
"120 350 LINE SMOOTH",
"120 434 OFFCURVE",
"173 482 OFFCURVE",
"259 482 CURVE SMOOTH",
"364 482 OFFCURVE",
"394 417 OFFCURVE",
"397 359 CURVE"
);
},
{
closed = 1;
nodes = (
"729 303 LINE",
"452 303 LINE",
"452 356 LINE SMOOTH",
"454 436 OFFCURVE",
"507 482 OFFCURVE",
"591 482 CURVE SMOOTH",
"702 482 OFFCURVE",
"729 410 OFFCURVE",
"729 350 CURVE SMOOTH"
);
}
);
width = 850;
},
{
background = {
paths = (
{
closed = 1;
nodes = (
"467 228 LINE",
"764 228 LINE",
"764 341 LINE SMOOTH",
"764 459 OFFCURVE",
"688 532 OFFCURVE",
"568 532 CURVE SMOOTH",
"506 532 OFFCURVE",
"455 512 OFFCURVE",
"420 473 CURVE",
"385 510 OFFCURVE",
"334 532 OFFCURVE",
"272 532 CURVE SMOOTH",
"152 532 OFFCURVE",
"75 457 OFFCURVE",
"75 341 CURVE SMOOTH",
"75 183 LINE SMOOTH",
"75 65 OFFCURVE",
"150 -10 OFFCURVE",
"272 -10 CURVE SMOOTH",
"336 -10 OFFCURVE",
"385 9 OFFCURVE",
"419 48 CURVE",
"452 10 OFFCURVE",
"503 -10 OFFCURVE",
"568 -10 CURVE SMOOTH",
"675 -10 OFFCURVE",
"749 60 OFFCURVE",
"762 172 CURVE",
"666 172 LINE",
"656 117 OFFCURVE",
"620 85 OFFCURVE",
"568 85 CURVE SMOOTH",
"489 85 OFFCURVE",
"467 134 OFFCURVE",
"467 176 CURVE SMOOTH"
);
},
{
closed = 1;
nodes = (
"372 179 LINE SMOOTH",
"372 120 OFFCURVE",
"334 85 OFFCURVE",
"272 85 CURVE SMOOTH",
"188 85 OFFCURVE",
"170 138 OFFCURVE",
"170 183 CURVE SMOOTH",
"170 341 LINE SMOOTH",
"170 403 OFFCURVE",
"208 439 OFFCURVE",
"272 439 CURVE SMOOTH",
"348 439 OFFCURVE",
"369 391 OFFCURVE",
"372 347 CURVE"
);
},
{
closed = 1;
nodes = (
"669 321 LINE",
"467 321 LINE",
"467 346 LINE SMOOTH",
"468 405 OFFCURVE",
"505 439 OFFCURVE",
"568 439 CURVE SMOOTH",
"650 439 OFFCURVE",
"669 385 OFFCURVE",
"669 341 CURVE SMOOTH"
);
}
);
};
hints = (
{
place = "{76, 96}";
},
{
place = "{378, 96}";
},
{
place = "{682, 96}";
},
{
horizontal = 1;
place = "{0, 94}";
},
{
horizontal = 1;
place = "{229, 91}";
},
{
horizontal = 1;
place = "{431, 94}";
}
);
layerId = "64F0AA26-A009-41C1-A946-C445650DA9E2";
paths = (
{
closed = 1;
nodes = (
"778 341 LINE SMOOTH",
"778 459 OFFCURVE",
"697 532 OFFCURVE",
"578 532 CURVE SMOOTH",
"515 532 OFFCURVE",
"462 510 OFFCURVE",
"426 473 CURVE",
"391 511 OFFCURVE",
"339 532 OFFCURVE",
"275 532 CURVE SMOOTH",
"157 532 OFFCURVE",
"76 457 OFFCURVE",
"76 341 CURVE SMOOTH",
"76 183 LINE SMOOTH",
"76 65 OFFCURVE",
"155 -10 OFFCURVE",
"275 -10 CURVE SMOOTH",
"337 -10 OFFCURVE",
"390 12 OFFCURVE",
"425 50 CURVE",
"460 11 OFFCURVE",
"513 -10 OFFCURVE",
"578 -10 CURVE SMOOTH",
"686 -10 OFFCURVE",
"762 59 OFFCURVE",
"776 172 CURVE",
"678 172 LINE",
"669 117 OFFCURVE",
"632 84 OFFCURVE",
"578 84 CURVE SMOOTH",
"495 84 OFFCURVE",
"474 137 OFFCURVE",
"474 182 CURVE",
"474 229 LINE",
"778 229 LINE"
);
},
{
closed = 1;
nodes = (
"378 182 LINE",
"378 121 OFFCURVE",
"339 84 OFFCURVE",
"275 84 CURVE SMOOTH",
"192 84 OFFCURVE",
"172 137 OFFCURVE",
"172 182 CURVE SMOOTH",
"172 340 LINE SMOOTH",
"172 402 OFFCURVE",
"210 438 OFFCURVE",
"275 438 CURVE SMOOTH",
"353 438 OFFCURVE",
"376 389 OFFCURVE",
"378 346 CURVE SMOOTH"
);
},
{
closed = 1;
nodes = (
"682 320 LINE",
"474 320 LINE",
"474 341 LINE SMOOTH",
"474 403 OFFCURVE",
"513 438 OFFCURVE",
"578 438 CURVE SMOOTH",
"660 438 OFFCURVE",
"682 385 OFFCURVE",
"682 341 CURVE SMOOTH"
);
}
);
width = 850;
}
);
unicode = 0153;
},
{
color = (0,243,255,1);
glyphname = p;
lastChange = "2017-10-07 14:26:38 +0000";
layers = (
{
hints = (
{
place = "{84, 55}";
},
{
place = "{410, 55}";
},
{
horizontal = 1;
place = "{0, 54}";
},
{
horizontal = 1;
place = "{473, 54}";
},
{
horizontal = 1;
place = "{-217, 21}";
target = up;
type = BottomGhost;
}
);
layerId = UUID0;
paths = (
{
closed = 1;
nodes = (
"465 350 LINE SMOOTH",
"465 463 OFFCURVE",
"390 536 OFFCURVE",
"274 536 CURVE SMOOTH",
"221 536 OFFCURVE",
"171 521 OFFCURVE",
"139 476 CURVE",
"139 527 LINE",
"84 527 LINE",
"84 -217 LINE",
"139 -217 LINE",
"139 53 LINE",
"168 9 OFFCURVE",
"221 -10 OFFCURVE",
"274 -10 CURVE SMOOTH",
"392 -10 OFFCURVE",
"465 61 OFFCURVE",
"465 177 CURVE"
);
},
{
closed = 1;
nodes = (
"410 177 LINE",
"410 117 OFFCURVE",
"386 44 OFFCURVE",
"274 44 CURVE SMOOTH",
"189 44 OFFCURVE",
"139 93 OFFCURVE",
"139 177 CURVE SMOOTH",
"139 350 LINE SMOOTH",
"139 410 OFFCURVE",
"163 482 OFFCURVE",
"274 482 CURVE SMOOTH",
"360 482 OFFCURVE",
"410 434 OFFCURVE",
"410 350 CURVE SMOOTH"
);
}
);
width = 550;
},
{
background = {
paths = (
{
closed = 1;
nodes = (
"468 341 LINE SMOOTH",
"468 457 OFFCURVE",
"391 532 OFFCURVE",
"273 532 CURVE SMOOTH",
"230 532 OFFCURVE",
"193 514 OFFCURVE",
"172 491 CURVE",
"172 525 LINE",
"76 525 LINE",
"76 -226 LINE",
"172 -226 LINE",
"172 33 LINE",
"190 13 OFFCURVE",
"233 -10 OFFCURVE",
"273 -10 CURVE SMOOTH",
"393 -10 OFFCURVE",
"468 65 OFFCURVE",
"468 183 CURVE"
);
},
{
closed = 1;
nodes = (
"372 182 LINE SMOOTH",
"372 137 OFFCURVE",
"356 84 OFFCURVE",
"273 84 CURVE SMOOTH",
"210 84 OFFCURVE",
"172 121 OFFCURVE",
"172 182 CURVE SMOOTH",
"172 340 LINE SMOOTH",
"172 384 OFFCURVE",
"190 438 OFFCURVE",
"273 438 CURVE SMOOTH",
"336 438 OFFCURVE",
"372 402 OFFCURVE",
"372 340 CURVE SMOOTH"
);
},
{
closed = 1;
nodes = (
"467 341 LINE SMOOTH",
"467 457 OFFCURVE",
"390 532 OFFCURVE",
"272 532 CURVE SMOOTH",
"229 532 OFFCURVE",
"192 514 OFFCURVE",
"171 491 CURVE",
"171 525 LINE",
"76 525 LINE",
"76 -226 LINE",
"171 -226 LINE",
"171 33 LINE",
"189 13 OFFCURVE",
"232 -10 OFFCURVE",
"272 -10 CURVE SMOOTH",
"392 -10 OFFCURVE",
"467 65 OFFCURVE",
"467 183 CURVE"
);
},
{
closed = 1;
nodes = (
"372 183 LINE SMOOTH",
"372 138 OFFCURVE",
"355 83 OFFCURVE",
"272 83 CURVE SMOOTH",
"209 83 OFFCURVE",
"171 122 OFFCURVE",
"171 183 CURVE SMOOTH",
"171 341 LINE SMOOTH",
"171 385 OFFCURVE",
"189 439 OFFCURVE",
"272 439 CURVE SMOOTH",
"335 439 OFFCURVE",
"372 403 OFFCURVE",
"372 341 CURVE SMOOTH"
);
}
);
};
hints = (
{
place = "{76, 96}";
},
{
place = "{378, 96}";
},
{
horizontal = 1;
place = "{0, 94}";
},
{
horizontal = 1;
place = "{431, 94}";
},
{
horizontal = 1;
place = "{-222, 21}";
target = up;
type = BottomGhost;
}
);
layerId = "64F0AA26-A009-41C1-A946-C445650DA9E2";
paths = (
{
closed = 1;
nodes = (
"378 181 LINE SMOOTH",
"378 137 OFFCURVE",
"358 85 OFFCURVE",
"276 85 CURVE SMOOTH",
"213 85 OFFCURVE",
"172 119 OFFCURVE",
"172 181 CURVE SMOOTH",
"172 339 LINE SMOOTH",
"172 384 OFFCURVE",
"193 438 OFFCURVE",
"276 438 CURVE SMOOTH",
"339 438 OFFCURVE",
"378 400 OFFCURVE",
"378 339 CURVE SMOOTH"
);
},
{
closed = 1;
nodes = (
"474 339 LINE SMOOTH",
"474 455 OFFCURVE",
"393 532 OFFCURVE",
"276 532 CURVE SMOOTH",
"236 532 OFFCURVE",
"188 510 OFFCURVE",
"172 490 CURVE",
"172 523 LINE",
"76 523 LINE",
"76 -222 LINE",
"172 -222 LINE",
"172 33 LINE",
"189 11 OFFCURVE",
"234 -9 OFFCURVE",
"276 -9 CURVE SMOOTH",
"395 -9 OFFCURVE",
"474 63 OFFCURVE",
"474 181 CURVE SMOOTH"
);
}
);
width = 550;
}
);
unicode = 0070;
},
{
glyphname = thorn;
lastChange = "2017-10-07 14:26:38 +0000";
layers = (
{
hints = (
{
place = "{248, 50}";
},
{
place = "{84, 55}";
},
{
place = "{409, 55}";
},
{
horizontal = 1;
place = "{-58, 21}";
target = up;
type = BottomGhost;
},
{
horizontal = 1;
place = "{770, -20}";
target = down;
type = TopGhost;
},
{
horizontal = 1;
place = "{-10, 54}";
},
{
horizontal = 1;
place = "{482, 54}";
},
{
horizontal = 1;
place = "{712, -20}";
target = down;
type = TopGhost;
}
);
layerId = UUID0;
paths = (
{
closed = 1;
nodes = (
"464 350 LINE SMOOTH",
"464 465 OFFCURVE",
"391 536 OFFCURVE",
"274 536 CURVE SMOOTH",
"220 536 OFFCURVE",
"176 518 OFFCURVE",
"139 474 CURVE",
"139 712 LINE",
"84 712 LINE",
"84 -226 LINE",
"139 -226 LINE",
"139 52 LINE",
"168 10 OFFCURVE",
"220 -10 OFFCURVE",
"274 -10 CURVE SMOOTH",
"389 -10 OFFCURVE",
"464 63 OFFCURVE",
"464 177 CURVE"
);
},
{
closed = 1;
nodes = (
"409 177 LINE",
"409 93 OFFCURVE",
"359 44 OFFCURVE",
"274 44 CURVE SMOOTH",
"162 44 OFFCURVE",
"139 117 OFFCURVE",
"139 177 CURVE SMOOTH",
"139 350 LINE SMOOTH",
"139 434 OFFCURVE",
"188 482 OFFCURVE",
"274 482 CURVE SMOOTH",
"385 482 OFFCURVE",
"409 410 OFFCURVE",
"409 350 CURVE SMOOTH"
);
}
);
width = 550;
},
{
background = {
paths = (
{
closed = 1;
nodes = (
"466 341 LINE SMOOTH",
"466 459 OFFCURVE",
"391 532 OFFCURVE",
"272 532 CURVE SMOOTH",
"236 532 OFFCURVE",
"192 515 OFFCURVE",
"171 489 CURVE",
"171 693 LINE",
"76 693 LINE",
"76 -226 LINE",
"171 -226 LINE",
"171 34 LINE",
"191 9 OFFCURVE",
"237 -10 OFFCURVE",
"272 -10 CURVE SMOOTH",
"389 -10 OFFCURVE",
"466 67 OFFCURVE",
"466 183 CURVE"
);
},
{
closed = 1;
nodes = (
"372 183 LINE SMOOTH",
"372 122 OFFCURVE",
"335 85 OFFCURVE",
"272 85 CURVE SMOOTH",
"188 85 OFFCURVE",
"171 138 OFFCURVE",
"171 183 CURVE SMOOTH",
"171 341 LINE SMOOTH",
"171 403 OFFCURVE",
"208 439 OFFCURVE",
"272 439 CURVE SMOOTH",
"354 439 OFFCURVE",
"372 385 OFFCURVE",
"372 341 CURVE SMOOTH"
);
}
);
};
hints = (
{
place = "{76, 96}";
},
{
place = "{378, 96}";
},
{
horizontal = 1;
place = "{0, 94}";
},
{
horizontal = 1;
place = "{430, 94}";
},
{
horizontal = 1;
place = "{694, -20}";
target = down;
type = TopGhost;
},
{
horizontal = 1;
place = "{-191, 21}";
target = up;
type = BottomGhost;
}
);
layerId = "64F0AA26-A009-41C1-A946-C445650DA9E2";
paths = (
{
closed = 1;
nodes = (
"378 181 LINE SMOOTH",
"378 137 OFFCURVE",
"358 84 OFFCURVE",
"276 84 CURVE SMOOTH",
"213 84 OFFCURVE",
"172 119 OFFCURVE",
"172 181 CURVE SMOOTH",
"172 339 LINE SMOOTH",
"172 384 OFFCURVE",
"193 438 OFFCURVE",
"276 438 CURVE SMOOTH",
"339 438 OFFCURVE",
"378 400 OFFCURVE",
"378 339 CURVE SMOOTH"
);
},
{
closed = 1;
nodes = (
"474 339 LINE SMOOTH",
"474 455 OFFCURVE",
"393 532 OFFCURVE",
"276 532 CURVE SMOOTH",
"236 532 OFFCURVE",
"188 510 OFFCURVE",
"172 490 CURVE",
"172 694 LINE",
"76 694 LINE",
"76 -191 LINE",
"172 -191 LINE",
"172 33 LINE",
"189 11 OFFCURVE",
"234 -10 OFFCURVE",
"276 -10 CURVE SMOOTH",
"395 -10 OFFCURVE",
"474 63 OFFCURVE",
"474 181 CURVE SMOOTH"
);
}
);
width = 550;
}
);
unicode = 00FE;
},
{
color = (0,243,255,1);
glyphname = q;
lastChange = "2017-10-07 14:26:38 +0000";
layers = (
{
hints = (
{
place = "{85, 55}";
},
{
place = "{410, 55}";
},
{
horizontal = 1;
place = "{0, 54}";
},
{
horizontal = 1;
place = "{473, 54}";
},
{
horizontal = 1;
place = "{-217, 21}";
target = up;
type = BottomGhost;
}
);
layerId = UUID0;
paths = (
{
closed = 1;
nodes = (
"140 350 LINE",
"140 434 OFFCURVE",
"190 482 OFFCURVE",
"276 482 CURVE SMOOTH",
"387 482 OFFCURVE",
"410 410 OFFCURVE",
"410 350 CURVE SMOOTH",
"410 177 LINE SMOOTH",
"410 93 OFFCURVE",
"361 44 OFFCURVE",
"276 44 CURVE SMOOTH",
"164 44 OFFCURVE",
"140 117 OFFCURVE",
"140 177 CURVE SMOOTH"
);
},
{
closed = 1;
nodes = (
"85 177 LINE",
"85 61 OFFCURVE",
"158 -10 OFFCURVE",
"276 -10 CURVE SMOOTH",
"329 -10 OFFCURVE",
"375 4 OFFCURVE",
"410 53 CURVE",
"410 -217 LINE",
"465 -217 LINE",
"465 527 LINE",
"410 527 LINE",
"410 476 LINE",
"378 518 OFFCURVE",
"329 536 OFFCURVE",
"276 536 CURVE SMOOTH",
"160 536 OFFCURVE",
"85 463 OFFCURVE",
"85 350 CURVE SMOOTH"
);
}
);
width = 550;
},
{
background = {
paths = (
{
closed = 1;
nodes = (
"179 340 LINE SMOOTH",
"179 402 OFFCURVE",
"216 438 OFFCURVE",
"279 438 CURVE SMOOTH",
"361 438 OFFCURVE",
"378 384 OFFCURVE",
"378 340 CURVE SMOOTH",
"378 182 LINE SMOOTH",
"378 121 OFFCURVE",
"341 84 OFFCURVE",
"279 84 CURVE SMOOTH",
"196 84 OFFCURVE",
"179 137 OFFCURVE",
"179 182 CURVE SMOOTH"
);
},
{
closed = 1;
nodes = (
"83 183 LINE SMOOTH",
"83 65 OFFCURVE",
"159 -10 OFFCURVE",
"279 -10 CURVE SMOOTH",
"320 -10 OFFCURVE",
"360 13 OFFCURVE",
"378 33 CURVE",
"378 -226 LINE",
"474 -226 LINE",
"474 525 LINE",
"378 525 LINE",
"378 500 LINE",
"352 520 OFFCURVE",
"313 532 OFFCURVE",
"279 532 CURVE SMOOTH",
"161 532 OFFCURVE",
"83 457 OFFCURVE",
"83 341 CURVE SMOOTH"
);
}
);
};
hints = (
{
place = "{76, 96}";
},
{
place = "{378, 96}";
},
{
horizontal = 1;
place = "{0, 94}";
},
{
horizontal = 1;
place = "{431, 94}";
},
{
horizontal = 1;
place = "{-222, 21}";
target = up;
type = BottomGhost;
}
);
layerId = "64F0AA26-A009-41C1-A946-C445650DA9E2";
paths = (
{
closed = 1;
nodes = (
"172 339 LINE",
"172 400 OFFCURVE",
"211 438 OFFCURVE",
"274 438 CURVE SMOOTH",
"357 438 OFFCURVE",
"378 384 OFFCURVE",
"378 339 CURVE SMOOTH",
"378 181 LINE SMOOTH",
"378 119 OFFCURVE",
"337 85 OFFCURVE",
"274 85 CURVE SMOOTH",
"192 85 OFFCURVE",
"172 137 OFFCURVE",
"172 181 CURVE SMOOTH"
);
},
{
closed = 1;
nodes = (
"76 181 LINE",
"76 63 OFFCURVE",
"155 -9 OFFCURVE",
"274 -9 CURVE SMOOTH",
"316 -9 OFFCURVE",
"361 11 OFFCURVE",
"378 33 CURVE",
"378 -222 LINE",
"474 -222 LINE",
"474 523 LINE",
"378 523 LINE",
"378 490 LINE",
"362 510 OFFCURVE",
"314 532 OFFCURVE",
"274 532 CURVE SMOOTH",
"157 532 OFFCURVE",
"76 455 OFFCURVE",
"76 339 CURVE SMOOTH"
);
}
);
width = 550;
}
);
unicode = 0071;
},
{
color = (0,243,255,1);
glyphname = r;
lastChange = "2017-10-07 14:26:38 +0000";
layers = (
{
background = {
paths = (
{
closed = 1;
nodes = (
"-64 384 LINE",
"-64 487 OFFCURVE",
"-138 535 OFFCURVE",
"-219 535 CURVE SMOOTH",
"-300 535 OFFCURVE",
"-374 487 OFFCURVE",
"-374 384 CURVE SMOOTH",
"-374 63 LINE",
"-479 63 LINE",
"-479 9 LINE",
"-374 9 LINE",
"-374 -177 LINE",
"-319 -177 LINE",
"-319 9 LINE",
"-119 9 LINE",
"-119 63 LINE",
"-319 63 LINE",
"-319 389 LINE SMOOTH",
"-319 454 OFFCURVE",
"-267 481 OFFCURVE",
"-219 481 CURVE SMOOTH",
"-171 481 OFFCURVE",
"-119 454 OFFCURVE",
"-119 389 CURVE SMOOTH",
"-119 370 LINE",
"-64 370 LINE"
);
},
{
closed = 1;
nodes = (
"-258 535 OFFCURVE",
"-319 514 OFFCURVE",
"-347 464 CURVE",
"-347 526 LINE",
"-402 526 LINE",
"-402 0 LINE",
"-347 0 LINE",
"-347 341 LINE SMOOTH",
"-347 440 OFFCURVE",
"-268 481 OFFCURVE",
"-221 481 CURVE SMOOTH",
"-170 481 OFFCURVE",
"-118 455 OFFCURVE",
"-118 385 CURVE SMOOTH",
"-118 370 LINE",
"-63 370 LINE",
"-63 380 LINE SMOOTH",
"-63 488 OFFCURVE",
"-137 535 OFFCURVE",
"-221 535 CURVE SMOOTH"
);
},
{
closed = 1;
nodes = (
"270 535 OFFCURVE",
"209 514 OFFCURVE",
"181 464 CURVE",
"181 527 LINE",
"126 527 LINE",
"126 0 LINE",
"181 0 LINE",
"181 341 LINE SMOOTH",
"181 440 OFFCURVE",
"260 481 OFFCURVE",
"307 481 CURVE SMOOTH",
"358 481 OFFCURVE",
"417 455 OFFCURVE",
"417 385 CURVE SMOOTH",
"417 370 LINE",
"472 370 LINE",
"472 380 LINE SMOOTH",
"472 488 OFFCURVE",
"391 535 OFFCURVE",
"307 535 CURVE SMOOTH"
);
}
);
};
hints = (
{
place = "{126, 55}";
},
{
place = "{417, 55}";
},
{
horizontal = 1;
place = "{473, 54}";
},
{
horizontal = 1;
place = "{0, 21}";
target = up;
type = BottomGhost;
}
);
layerId = UUID0;
paths = (
{
closed = 1;
nodes = (
"275 536 OFFCURVE",
"209 514 OFFCURVE",
"181 464 CURVE",
"181 527 LINE",
"126 527 LINE",
"126 0 LINE",
"181 0 LINE",
"181 341 LINE SMOOTH",
"181 440 OFFCURVE",
"265 482 OFFCURVE",
"312 482 CURVE SMOOTH",
"363 482 OFFCURVE",
"417 455 OFFCURVE",
"417 385 CURVE SMOOTH",
"417 370 LINE",
"472 370 LINE",
"472 380 LINE SMOOTH",
"472 488 OFFCURVE",
"396 536 OFFCURVE",
"312 536 CURVE SMOOTH"
);
}
);
width = 550;
},
{
hints = (
{
place = "{120, 96}";
},
{
place = "{379, 96}";
},
{
horizontal = 1;
place = "{431, 94}";
},
{
horizontal = 1;
place = "{0, 21}";
target = up;
type = BottomGhost;
}
);
layerId = "64F0AA26-A009-41C1-A946-C445650DA9E2";
paths = (
{
closed = 1;
nodes = (
"281 532 OFFCURVE",
"236 518 OFFCURVE",
"216 492 CURVE",
"216 523 LINE",
"120 523 LINE",
"120 0 LINE",
"216 0 LINE",
"216 332 LINE",
"216 406 OFFCURVE",
"272 438 OFFCURVE",
"307 438 CURVE SMOOTH",
"348 438 OFFCURVE",
"392 419 OFFCURVE",
"392 368 CURVE",
"392 353 LINE",
"488 353 LINE",
"488 363 LINE",
"488 478 OFFCURVE",
"408 532 OFFCURVE",
"312 532 CURVE SMOOTH"
);
}
);
width = 550;
}
);
unicode = 0072;
},
{
color = (0,243,255,1);
glyphname = s;
lastChange = "2017-10-07 14:26:38 +0000";
layers = (
{
hints = (
{
place = "{90, 55}";
},
{
place = "{412, 55}";
},
{
horizontal = 1;
place = "{0, 54}";
},
{
horizontal = 1;
place = "{473, 54}";
}
);
layerId = UUID0;
paths = (
{
closed = 1;
nodes = (
"467 219 OFFCURVE",
"421 262 OFFCURVE",
"359 280 CURVE SMOOTH",
"314 293 OFFCURVE",
"251 305 OFFCURVE",
"216 313 CURVE SMOOTH",
"174 323 OFFCURVE",
"145 352 OFFCURVE",
"145 387 CURVE SMOOTH",
"145 463 OFFCURVE",
"208 482 OFFCURVE",
"268 482 CURVE SMOOTH",
"359 482 OFFCURVE",
"404 441 OFFCURVE",
"405 373 CURVE",
"460 373 LINE",
"459 477 OFFCURVE",
"381 536 OFFCURVE",
"270 536 CURVE SMOOTH",
"175 536 OFFCURVE",
"90 492 OFFCURVE",
"90 387 CURVE SMOOTH",
"90 322 OFFCURVE",
"140 275 OFFCURVE",
"202 261 CURVE SMOOTH",
"241 252 OFFCURVE",
"297 241 OFFCURVE",
"341 228 CURVE SMOOTH",
"382 216 OFFCURVE",
"412 195 OFFCURVE",
"412 152 CURVE SMOOTH",
"412 64 OFFCURVE",
"341 45 OFFCURVE",
"273 45 CURVE SMOOTH",
"191 45 OFFCURVE",
"137 84 OFFCURVE",
"137 156 CURVE",
"82 156 LINE",
"82 53 OFFCURVE",
"162 -9 OFFCURVE",
"273 -9 CURVE SMOOTH",
"377 -9 OFFCURVE",
"467 35 OFFCURVE",
"467 152 CURVE SMOOTH"
);
}
);
width = 550;
},
{
background = {
paths = (
{
closed = 1;
nodes = (
"474 231 OFFCURVE",
"423 280 OFFCURVE",
"362 300 CURVE SMOOTH",
"320 314 OFFCURVE",
"267 318 OFFCURVE",
"228 329 CURVE SMOOTH",
"198 337 OFFCURVE",
"185 354 OFFCURVE",
"185 374 CURVE SMOOTH",
"185 425 OFFCURVE",
"227 437 OFFCURVE",
"271 437 CURVE SMOOTH",
"330 437 OFFCURVE",
"362 411 OFFCURVE",
"370 363 CURVE",
"467 363 LINE",
"457 471 OFFCURVE",
"379 531 OFFCURVE",
"273 531 CURVE SMOOTH",
"175 531 OFFCURVE",
"89 486 OFFCURVE",
"89 373 CURVE SMOOTH",
"89 304 OFFCURVE",
"137 255 OFFCURVE",
"203 238 CURVE SMOOTH",
"245 227 OFFCURVE",
"286 225 OFFCURVE",
"329 211 CURVE SMOOTH",
"359 202 OFFCURVE",
"378 182 OFFCURVE",
"378 157 CURVE SMOOTH",
"378 96 OFFCURVE",
"325 85 OFFCURVE",
"275 85 CURVE SMOOTH",
"217 85 OFFCURVE",
"179 115 OFFCURVE",
"173 172 CURVE",
"78 172 LINE",
"84 59 OFFCURVE",
"164 -8 OFFCURVE",
"275 -8 CURVE SMOOTH",
"381 -8 OFFCURVE",
"474 36 OFFCURVE",
"474 159 CURVE SMOOTH"
);
}
);
};
hints = (
{
place = "{89, 96}";
},
{
place = "{378, 96}";
},
{
horizontal = 1;
place = "{0, 95}";
},
{
horizontal = 1;
place = "{432, 93}";
}
);
layerId = "64F0AA26-A009-41C1-A946-C445650DA9E2";
paths = (
{
closed = 1;
nodes = (
"474 231 OFFCURVE",
"423 276 OFFCURVE",
"362 296 CURVE SMOOTH",
"320 310 OFFCURVE",
"269 321 OFFCURVE",
"230 332 CURVE SMOOTH",
"200 340 OFFCURVE",
"185 356 OFFCURVE",
"185 376 CURVE SMOOTH",
"185 427 OFFCURVE",
"227 438 OFFCURVE",
"271 438 CURVE SMOOTH",
"330 438 OFFCURVE",
"362 413 OFFCURVE",
"370 365 CURVE",
"467 365 LINE",
"457 473 OFFCURVE",
"379 532 OFFCURVE",
"273 532 CURVE SMOOTH",
"175 532 OFFCURVE",
"89 487 OFFCURVE",
"89 374 CURVE SMOOTH",
"89 305 OFFCURVE",
"139 258 OFFCURVE",
"205 241 CURVE SMOOTH",
"247 230 OFFCURVE",
"286 221 OFFCURVE",
"329 207 CURVE SMOOTH",
"359 198 OFFCURVE",
"378 182 OFFCURVE",
"378 157 CURVE SMOOTH",
"378 96 OFFCURVE",
"326 84 OFFCURVE",
"276 84 CURVE SMOOTH",
"218 84 OFFCURVE",
"179 113 OFFCURVE",
"173 170 CURVE",
"78 170 LINE",
"84 57 OFFCURVE",
"165 -9 OFFCURVE",
"276 -9 CURVE SMOOTH",
"382 -9 OFFCURVE",
"474 37 OFFCURVE",
"474 160 CURVE SMOOTH"
);
}
);
width = 550;
}
);
unicode = 0073;
},
{
glyphname = germandbls;
lastChange = "2017-10-07 14:26:38 +0000";
layers = (
{
hints = (
{
place = "{85, 55}";
},
{
place = "{419, 55}";
},
{
horizontal = 1;
place = "{0, 54}";
},
{
horizontal = 1;
place = "{369, 54}";
},
{
horizontal = 1;
place = "{659, 54}";
}
);
layerId = UUID0;
paths = (
{
closed = 1;
nodes = (
"474 240 LINE SMOOTH",
"474 282 OFFCURVE",
"461 369 OFFCURVE",
"371 400 CURVE",
"424 418 OFFCURVE",
"448 479 OFFCURVE",
"448 534 CURVE SMOOTH",
"448 594 OFFCURVE",
"422 719 OFFCURVE",
"268 719 CURVE SMOOTH",
"112 719 OFFCURVE",
"85 595 OFFCURVE",
"85 536 CURVE SMOOTH",
"85 0 LINE",
"140 0 LINE",
"140 533 LINE SMOOTH",
"140 647 OFFCURVE",
"221 665 OFFCURVE",
"268 665 CURVE SMOOTH",
"314 665 OFFCURVE",
"393 647 OFFCURVE",
"393 533 CURVE SMOOTH",
"393 466 OFFCURVE",
"362 423 OFFCURVE",
"301 423 CURVE",
"275 423 LINE",
"275 369 LINE",
"298 369 LINE SMOOTH",
"345 369 OFFCURVE",
"419 351 OFFCURVE",
"419 237 CURVE SMOOTH",
"419 186 LINE SMOOTH",
"419 73 OFFCURVE",
"336 54 OFFCURVE",
"289 54 CURVE SMOOTH",
"239 54 LINE",
"239 0 LINE",
"291 0 LINE SMOOTH",
"444 0 OFFCURVE",
"474 124 OFFCURVE",
"474 186 CURVE"
);
}
);
width = 550;
},
{
hints = (
{
place = "{89, 95}";
},
{
place = "{408, 96}";
},
{
horizontal = 1;
place = "{0, 94}";
},
{
horizontal = 1;
place = "{347, 93}";
},
{
horizontal = 1;
place = "{619, 94}";
}
);
layerId = "64F0AA26-A009-41C1-A946-C445650DA9E2";
paths = (
{
closed = 1;
nodes = (
"239 94 LINE",
"239 0 LINE",
"310 0 LINE SMOOTH",
"472 0 OFFCURVE",
"504 131 OFFCURVE",
"504 196 CURVE SMOOTH",
"504 247 LINE SMOOTH",
"504 284 OFFCURVE",
"486 368 OFFCURVE",
"420 399 CURVE",
"457 420 OFFCURVE",
"480 479 OFFCURVE",
"480 523 CURVE SMOOTH",
"480 587 OFFCURVE",
"448 717 OFFCURVE",
"286 717 CURVE SMOOTH",
"122 717 OFFCURVE",
"89 588 OFFCURVE",
"89 525 CURVE SMOOTH",
"89 0 LINE",
"185 0 LINE",
"185 522 LINE SMOOTH",
"185 610 OFFCURVE",
"250 623 OFFCURVE",
"286 623 CURVE SMOOTH",
"321 623 OFFCURVE",
"384 610 OFFCURVE",
"384 522 CURVE SMOOTH",
"384 471 OFFCURVE",
"361 440 OFFCURVE",
"316 440 CURVE SMOOTH",
"273 440 LINE",
"273 347 LINE",
"317 347 LINE SMOOTH",
"353 347 OFFCURVE",
"408 333 OFFCURVE",
"408 244 CURVE SMOOTH",
"408 196 LINE SMOOTH",
"408 109 OFFCURVE",
"345 94 OFFCURVE",
"308 94 CURVE SMOOTH"
);
}
);
width = 600;
}
);
unicode = 00DF;
},
{
glyphname = longs;
lastChange = "2017-10-07 14:26:38 +0000";
layers = (
{
hints = (
{
place = "{237, 55}";
},
{
horizontal = 1;
place = "{472, 54}";
},
{
horizontal = 1;
place = "{659, 54}";
},
{
horizontal = 1;
place = "{0, 21}";
target = up;
type = BottomGhost;
}
);
layerId = UUID0;
paths = (
{
closed = 1;
nodes = (
"292 581 LINE",
"292 641 OFFCURVE",
"332 659 OFFCURVE",
"363 659 CURVE SMOOTH",
"410 659 LINE",
"410 713 LINE",
"373 713 LINE SMOOTH",
"280 713 OFFCURVE",
"237 657 OFFCURVE",
"237 569 CURVE SMOOTH",
"237 526 LINE",
"142 526 LINE",
"142 472 LINE",
"237 472 LINE",
"237 0 LINE",
"292 0 LINE"
);
}
);
width = 550;
},
{
hints = (
{
place = "{218, 95}";
},
{
horizontal = 1;
place = "{429, 95}";
},
{
horizontal = 1;
place = "{600, 94}";
},
{
horizontal = 1;
place = "{0, 21}";
target = up;
type = BottomGhost;
}
);
layerId = "64F0AA26-A009-41C1-A946-C445650DA9E2";
paths = (
{
closed = 1;
nodes = (
"313 552 LINE",
"313 590 OFFCURVE",
"337 600 OFFCURVE",
"355 600 CURVE SMOOTH",
"421 600 LINE",
"421 694 LINE",
"364 694 LINE SMOOTH",
"265 694 OFFCURVE",
"218 634 OFFCURVE",
"218 540 CURVE SMOOTH",
"218 524 LINE",
"131 524 LINE",
"131 429 LINE",
"218 429 LINE",
"218 0 LINE",
"313 0 LINE"
);
}
);
width = 550;
}
);
unicode = 017F;
},
{
glyphname = t;
lastChange = "2017-10-07 14:26:38 +0000";
layers = (
{
hints = (
{
place = "{172, 55}";
},
{
horizontal = 1;
place = "{0, 54}";
},
{
horizontal = 1;
place = "{472, 54}";
},
{
horizontal = 1;
place = "{712, -20}";
target = down;
type = TopGhost;
}
);
layerId = UUID0;
paths = (
{
closed = 1;
nodes = (
"482 165 LINE",
"427 165 LINE",
"427 146 LINE SMOOTH",
"427 81 OFFCURVE",
"375 54 OFFCURVE",
"327 54 CURVE SMOOTH",
"279 54 OFFCURVE",
"227 81 OFFCURVE",
"227 146 CURVE SMOOTH",
"227 472 LINE",
"427 472 LINE",
"427 526 LINE",
"227 526 LINE",
"227 712 LINE",
"172 712 LINE",
"172 526 LINE",
"67 526 LINE",
"67 472 LINE",
"172 472 LINE",
"172 151 LINE SMOOTH",
"172 48 OFFCURVE",
"246 0 OFFCURVE",
"327 0 CURVE SMOOTH",
"408 0 OFFCURVE",
"482 48 OFFCURVE",
"482 151 CURVE SMOOTH"
);
}
);
width = 550;
},
{
hints = (
{
place = "{159, 96}";
},
{
horizontal = 1;
place = "{0, 94}";
},
{
horizontal = 1;
place = "{431, 94}";
},
{
horizontal = 1;
place = "{696, -20}";
target = down;
type = TopGhost;
}
);
layerId = "64F0AA26-A009-41C1-A946-C445650DA9E2";
paths = (
{
closed = 1;
nodes = (
"488 184 LINE",
"392 184 LINE",
"392 156 LINE",
"392 113 OFFCURVE",
"356 94 OFFCURVE",
"324 94 CURVE SMOOTH",
"291 94 OFFCURVE",
"255 113 OFFCURVE",
"255 156 CURVE",
"255 431 LINE",
"438 431 LINE",
"438 525 LINE",
"255 525 LINE",
"255 696 LINE",
"159 696 LINE",
"159 525 LINE",
"63 525 LINE",
"63 431 LINE",
"159 431 LINE",
"159 161 LINE",
"159 51 OFFCURVE",
"238 0 OFFCURVE",
"324 0 CURVE SMOOTH",
"409 0 OFFCURVE",
"488 51 OFFCURVE",
"488 161 CURVE"
);
}
);
width = 550;
}
);
unicode = 0074;
},
{
glyphname = tbar;
lastChange = "2017-10-07 14:26:38 +0000";
layers = (
{
background = {
paths = (
{
closed = 1;
nodes = (
"158 472 LINE",
"263 472 LINE",
"263 309 LINE",
"157 309 LINE",
"157 259 LINE",
"263 259 LINE",
"263 131 LINE SMOOTH",
"263 38 OFFCURVE",
"317 0 OFFCURVE",
"383 0 CURVE SMOOTH",
"440 0 LINE",
"440 54 LINE",
"388 54 LINE SMOOTH",
"350 54 OFFCURVE",
"318 71 OFFCURVE",
"318 126 CURVE SMOOTH",
"318 259 LINE",
"444 259 LINE",
"444 309 LINE",
"318 309 LINE",
"318 472 LINE",
"438 472 LINE",
"438 526 LINE",
"318 526 LINE",
"318 712 LINE",
"263 712 LINE",
"263 526 LINE",
"158 526 LINE"
);
}
);
};
hints = (
{
place = "{173, 55}";
},
{
place = "{428, 55}";
},
{
horizontal = 1;
place = "{0, 54}";
},
{
horizontal = 1;
place = "{289, 50}";
},
{
horizontal = 1;
place = "{472, 54}";
},
{
horizontal = 1;
place = "{712, -20}";
target = down;
type = TopGhost;
}
);
layerId = UUID0;
paths = (
{
closed = 1;
nodes = (
"483 165 LINE",
"428 165 LINE",
"428 146 LINE SMOOTH",
"428 81 OFFCURVE",
"376 54 OFFCURVE",
"328 54 CURVE SMOOTH",
"280 54 OFFCURVE",
"228 81 OFFCURVE",
"228 146 CURVE SMOOTH",
"228 289 LINE",
"424 289 LINE",
"424 339 LINE",
"228 339 LINE",
"228 472 LINE",
"428 472 LINE",
"428 526 LINE",
"228 526 LINE",
"228 712 LINE",
"173 712 LINE",
"173 526 LINE",
"68 526 LINE",
"68 472 LINE",
"173 472 LINE",
"173 339 LINE",
"67 339 LINE",
"67 289 LINE",
"173 289 LINE",
"173 151 LINE SMOOTH",
"173 48 OFFCURVE",
"247 0 OFFCURVE",
"328 0 CURVE SMOOTH",
"409 0 OFFCURVE",
"483 48 OFFCURVE",
"483 151 CURVE SMOOTH"
);
}
);
width = 550;
},
{
background = {
paths = (
{
closed = 1;
nodes = (
"144 429 LINE",
"239 429 LINE",
"239 326 LINE",
"143 326 LINE",
"143 236 LINE",
"239 236 LINE",
"239 141 LINE SMOOTH",
"239 40 OFFCURVE",
"298 0 OFFCURVE",
"371 0 CURVE SMOOTH",
"445 0 LINE",
"445 94 LINE",
"376 94 LINE SMOOTH",
"353 94 OFFCURVE",
"334 104 OFFCURVE",
"334 137 CURVE SMOOTH",
"334 236 LINE",
"448 236 LINE",
"448 326 LINE",
"334 326 LINE",
"334 429 LINE",
"444 429 LINE",
"444 524 LINE",
"334 524 LINE",
"334 693 LINE",
"239 693 LINE",
"239 524 LINE",
"144 524 LINE"
);
}
);
};
hints = (
{
place = "{239, 95}";
},
{
horizontal = 1;
place = "{0, 94}";
},
{
horizontal = 1;
place = "{255, 90}";
},
{
horizontal = 1;
place = "{429, 95}";
},
{
horizontal = 1;
place = "{693, -20}";
target = down;
type = TopGhost;
}
);
layerId = "64F0AA26-A009-41C1-A946-C445650DA9E2";
paths = (
{
closed = 1;
nodes = (
"488 184 LINE",
"392 184 LINE",
"392 156 LINE SMOOTH",
"392 113 OFFCURVE",
"356 94 OFFCURVE",
"324 94 CURVE SMOOTH",
"291 94 OFFCURVE",
"255 113 OFFCURVE",
"255 156 CURVE SMOOTH",
"255 256 LINE",
"437 256 LINE",
"437 346 LINE",
"255 346 LINE",
"255 431 LINE",
"438 431 LINE",
"438 525 LINE",
"255 525 LINE",
"255 695 LINE",
"159 695 LINE",
"159 525 LINE",
"63 525 LINE",
"63 431 LINE",
"159 431 LINE",
"159 346 LINE",
"62 346 LINE",
"62 256 LINE",
"159 256 LINE",
"159 161 LINE SMOOTH",
"159 51 OFFCURVE",
"238 0 OFFCURVE",
"324 0 CURVE SMOOTH",
"409 0 OFFCURVE",
"488 51 OFFCURVE",
"488 161 CURVE SMOOTH"
);
}
);
width = 550;
}
);
unicode = 0167;
},
{
glyphname = tcaron;
lastChange = "2017-10-07 14:26:38 +0000";
layers = (
{
components = (
{
name = t;
transform = "{1, 0, 0, 1, 17, 0}";
},
{
name = quotesingle;
transform = "{1.03636, 0, 0, 0.99462, 354, 4}";
}
);
layerId = UUID0;
width = 600;
},
{
components = (
{
name = t;
}
);
layerId = "64F0AA26-A009-41C1-A946-C445650DA9E2";
paths = (
{
closed = 1;
nodes = (
"608 505 LINE",
"608 713 LINE",
"513 713 LINE",
"513 505 LINE"
);
}
);
width = 600;
}
);
unicode = 0165;
},
{
color = 2;
glyphname = u;
lastChange = "2017-10-07 14:26:38 +0000";
layers = (
{
hints = (
{
place = "{82, 55}";
},
{
place = "{411, 55}";
},
{
horizontal = 1;
place = "{-9, 54}";
},
{
horizontal = 1;
place = "{527, -20}";
target = down;
type = TopGhost;
},
{
horizontal = 1;
place = "{0, 21}";
target = up;
type = BottomGhost;
}
);
layerId = UUID0;
paths = (
{
closed = 1;
nodes = (
"466 0 LINE",
"466 527 LINE",
"411 527 LINE",
"411 171 LINE SMOOTH",
"411 94 OFFCURVE",
"354 44 OFFCURVE",
"274 44 CURVE SMOOTH",
"163 44 OFFCURVE",
"137 117 OFFCURVE",
"137 177 CURVE SMOOTH",
"137 527 LINE",
"82 527 LINE",
"82 177 LINE SMOOTH",
"82 59 OFFCURVE",
"155 -9 OFFCURVE",
"274 -9 CURVE SMOOTH",
"327 -9 OFFCURVE",
"375 5 OFFCURVE",
"411 53 CURVE",
"411 0 LINE"
);
}
);
width = 550;
},
{
hints = (
{
place = "{77, 96}";
},
{
place = "{375, 96}";
},
{
horizontal = 1;
place = "{0, 94}";
},
{
horizontal = 1;
place = "{525, -20}";
target = down;
type = TopGhost;
}
);
layerId = "64F0AA26-A009-41C1-A946-C445650DA9E2";
paths = (
{
closed = 1;
nodes = (
"471 0 LINE",
"471 525 LINE",
"375 525 LINE",
"375 178 LINE SMOOTH",
"375 121 OFFCURVE",
"333 85 OFFCURVE",
"273 85 CURVE SMOOTH",
"190 85 OFFCURVE",
"173 138 OFFCURVE",
"173 183 CURVE SMOOTH",
"173 525 LINE",
"77 525 LINE",
"77 183 LINE SMOOTH",
"77 66 OFFCURVE",
"153 -9 OFFCURVE",
"273 -9 CURVE SMOOTH",
"314 -9 OFFCURVE",
"356 13 OFFCURVE",
"375 34 CURVE",
"375 0 LINE"
);
}
);
width = 550;
}
);
unicode = 0075;
},
{
color = (255,137,0,1);
glyphname = uhorn;
lastChange = "2017-10-07 14:26:38 +0000";
layers = (
{
background = {
paths = (
{
closed = 1;
nodes = (
"428 0 LINE",
"428 527 LINE",
"373 527 LINE",
"373 171 LINE SMOOTH",
"373 94 OFFCURVE",
"316 45 OFFCURVE",
"236 45 CURVE SMOOTH",
"125 45 OFFCURVE",
"99 117 OFFCURVE",
"99 177 CURVE SMOOTH",
"99 527 LINE",
"44 527 LINE",
"44 177 LINE SMOOTH",
"44 62 OFFCURVE",
"118 -9 OFFCURVE",
"236 -9 CURVE SMOOTH",
"289 -9 OFFCURVE",
"337 5 OFFCURVE",
"373 53 CURVE",
"373 0 LINE"
);
},
{
closed = 1;
nodes = (
"502 526 LINE",
"502 467 LINE SMOOTH",
"502 434 OFFCURVE",
"487 404 OFFCURVE",
"438 404 CURVE SMOOTH",
"414 404 LINE",
"418 352 LINE",
"433 352 LINE SMOOTH",
"526 352 OFFCURVE",
"555 399 OFFCURVE",
"555 465 CURVE SMOOTH",
"555 526 LINE"
);
}
);
};
hints = (
{
place = "{44, 55}";
},
{
place = "{373, 55}";
},
{
horizontal = 1;
place = "{0, 54}";
},
{
horizontal = 1;
place = "{527, -20}";
target = down;
type = TopGhost;
}
);
layerId = UUID0;
paths = (
{
closed = 1;
nodes = (
"428 0 LINE",
"428 352 LINE",
"433 352 LINE SMOOTH",
"526 352 OFFCURVE",
"555 399 OFFCURVE",
"555 465 CURVE SMOOTH",
"555 526 LINE",
"502 526 LINE",
"502 467 LINE SMOOTH",
"502 434 OFFCURVE",
"487 404 OFFCURVE",
"438 404 CURVE SMOOTH",
"428 404 LINE",
"428 527 LINE",
"373 527 LINE",
"373 171 LINE SMOOTH",
"373 94 OFFCURVE",
"316 45 OFFCURVE",
"236 45 CURVE SMOOTH",
"125 45 OFFCURVE",
"99 117 OFFCURVE",
"99 177 CURVE SMOOTH",
"99 527 LINE",
"44 527 LINE",
"44 177 LINE SMOOTH",
"44 62 OFFCURVE",
"118 -9 OFFCURVE",
"236 -9 CURVE SMOOTH",
"289 -9 OFFCURVE",
"337 5 OFFCURVE",
"373 53 CURVE",
"373 0 LINE"
);
}
);
width = 550;
},
{
background = {
paths = (
{
closed = 1;
nodes = (
"428 0 LINE",
"428 525 LINE",
"332 525 LINE",
"332 178 LINE SMOOTH",
"332 121 OFFCURVE",
"290 85 OFFCURVE",
"230 85 CURVE SMOOTH",
"147 85 OFFCURVE",
"130 138 OFFCURVE",
"130 183 CURVE SMOOTH",
"130 525 LINE",
"34 525 LINE",
"34 183 LINE SMOOTH",
"34 66 OFFCURVE",
"110 -9 OFFCURVE",
"230 -9 CURVE SMOOTH",
"271 -9 OFFCURVE",
"313 13 OFFCURVE",
"332 34 CURVE",
"332 0 LINE"
);
},
{
closed = 1;
nodes = (
"482 525 LINE",
"482 475 LINE SMOOTH",
"482 440 OFFCURVE",
"465 415 OFFCURVE",
"428 415 CURVE SMOOTH",
"393 415 LINE",
"399 342 LINE",
"423 342 LINE SMOOTH",
"516 342 OFFCURVE",
"555 392 OFFCURVE",
"555 474 CURVE SMOOTH",
"555 525 LINE"
);
}
);
};
hints = (
{
place = "{34, 96}";
},
{
place = "{332, 96}";
},
{
horizontal = 1;
place = "{0, 94}";
},
{
horizontal = 1;
place = "{525, -20}";
target = down;
type = TopGhost;
}
);
layerId = "64F0AA26-A009-41C1-A946-C445650DA9E2";
paths = (
{
closed = 1;
nodes = (
"428 0 LINE",
"428 342 LINE",
"517 343 OFFCURVE",
"555 393 OFFCURVE",
"555 474 CURVE SMOOTH",
"555 525 LINE",
"482 525 LINE",
"482 475 LINE SMOOTH",
"482 440 OFFCURVE",
"465 415 OFFCURVE",
"428 415 CURVE",
"428 525 LINE",
"332 525 LINE",
"332 178 LINE SMOOTH",
"332 121 OFFCURVE",
"290 85 OFFCURVE",
"230 85 CURVE SMOOTH",
"147 85 OFFCURVE",
"130 138 OFFCURVE",
"130 183 CURVE SMOOTH",
"130 525 LINE",
"34 525 LINE",
"34 183 LINE SMOOTH",
"34 66 OFFCURVE",
"110 -9 OFFCURVE",
"230 -9 CURVE SMOOTH",
"271 -9 OFFCURVE",
"313 13 OFFCURVE",
"332 34 CURVE",
"332 0 LINE"
);
}
);
width = 550;
}
);
unicode = 01B0;
},
{
color = (31,255,0,1);
glyphname = uni01DD;
lastChange = "2017-10-07 14:26:38 +0000";
layers = (
{
hints = (
{
place = "{81, 55}";
},
{
place = "{413, 55}";
},
{
horizontal = 1;
place = "{0, 54}";
},
{
horizontal = 1;
place = "{223, 53}";
},
{
horizontal = 1;
place = "{473, 54}";
}
);
layerId = UUID0;
paths = (
{
closed = 1;
nodes = (
"81 176 LINE",
"81 61 OFFCURVE",
"157 -10 OFFCURVE",
"274 -10 CURVE SMOOTH",
"390 -10 OFFCURVE",
"468 63 OFFCURVE",
"468 176 CURVE SMOOTH",
"468 349 LINE SMOOTH",
"468 465 OFFCURVE",
"392 536 OFFCURVE",
"274 536 CURVE SMOOTH",
"164 536 OFFCURVE",
"88 469 OFFCURVE",
"82 364 CURVE",
"137 364 LINE",
"142 439 OFFCURVE",
"194 482 OFFCURVE",
"274 482 CURVE SMOOTH",
"386 482 OFFCURVE",
"413 409 OFFCURVE",
"413 349 CURVE SMOOTH",
"413 276 LINE",
"81 276 LINE"
);
},
{
closed = 1;
nodes = (
"136 223 LINE",
"413 223 LINE",
"413 176 LINE SMOOTH",
"413 92 OFFCURVE",
"360 44 OFFCURVE",
"274 44 CURVE SMOOTH",
"163 44 OFFCURVE",
"136 116 OFFCURVE",
"136 176 CURVE"
);
}
);
width = 550;
},
{
components = (
{
name = e;
transform = "{-1, 0, 0, -1, 550, 522}";
}
);
layerId = "64F0AA26-A009-41C1-A946-C445650DA9E2";
width = 550;
}
);
unicode = 01DD;
},
{
glyphname = v;
lastChange = "2017-10-07 14:26:38 +0000";
layers = (
{
background = {
paths = (
{
closed = 1;
nodes = (
"263 51 LINE",
"131 527 LINE",
"74 527 LINE",
"222 0 LINE",
"328 0 LINE",
"476 527 LINE",
"419 527 LINE",
"287 51 LINE"
);
}
);
};
hints = (
{
horizontal = 1;
place = "{527, -20}";
target = down;
type = TopGhost;
},
{
horizontal = 1;
place = "{0, 21}";
target = up;
type = BottomGhost;
}
);
layerId = UUID0;
paths = (
{
closed = 1;
nodes = (
"268 51 LINE",
"131 527 LINE",
"74 527 LINE",
"227 0 LINE",
"324 0 LINE",
"476 527 LINE",
"419 527 LINE",
"283 51 LINE"
);
}
);
width = 550;
},
{
hints = (
{
horizontal = 1;
place = "{525, -20}";
target = down;
type = TopGhost;
},
{
horizontal = 1;
place = "{0, 21}";
target = up;
type = BottomGhost;
}
);
layerId = "64F0AA26-A009-41C1-A946-C445650DA9E2";
paths = (
{
closed = 1;
nodes = (
"64 525 LINE",
"212 0 LINE",
"342 0 LINE",
"490 525 LINE",
"391 525 LINE",
"277 114 LINE",
"164 525 LINE"
);
}
);
width = 550;
}
);
unicode = 0076;
},
{
glyphname = w;
lastChange = "2017-10-07 14:26:38 +0000";
layers = (
{
background = {
paths = (
{
closed = 1;
nodes = (
"587 527 LINE",
"529 527 LINE",
"442 55 LINE",
"348 417 LINE",
"300 417 LINE",
"208 55 LINE",
"119 527 LINE",
"62 527 LINE",
"170 0 LINE",
"241 0 LINE",
"324 335 LINE",
"407 0 LINE",
"480 0 LINE"
);
},
{
closed = 1;
nodes = (
"587 527 LINE",
"530 527 LINE",
"447 55 LINE",
"348 417 LINE",
"300 417 LINE",
"202 55 LINE",
"118 527 LINE",
"62 527 LINE",
"164 0 LINE",
"235 0 LINE",
"324 333 LINE",
"412 0 LINE",
"485 0 LINE"
);
}
);
};
hints = (
{
horizontal = 1;
place = "{527, -20}";
target = down;
type = TopGhost;
},
{
horizontal = 1;
place = "{0, 21}";
target = up;
type = BottomGhost;
}
);
layerId = UUID0;
paths = (
{
closed = 1;
nodes = (
"587 527 LINE",
"530 527 LINE",
"447 64 LINE",
"348 430 LINE",
"300 430 LINE",
"202 64 LINE",
"118 527 LINE",
"62 527 LINE",
"164 0 LINE",
"235 0 LINE",
"324 337 LINE",
"412 0 LINE",
"485 0 LINE"
);
}
);
width = 650;
},
{
background = {
paths = (
{
closed = 1;
nodes = (
"1323 525 LINE",
"1222 525 LINE",
"1158 180 LINE",
"1093 427 LINE",
"1015 427 LINE",
"952 181 LINE",
"887 525 LINE",
"787 525 LINE",
"895 0 LINE",
"996 0 LINE",
"1054 233 LINE",
"1112 0 LINE",
"1216 0 LINE"
);
},
{
closed = 1;
nodes = (
"1323 525 LINE",
"1222 525 LINE",
"1157 178 LINE",
"1093 427 LINE",
"1015 427 LINE",
"953 179 LINE",
"887 525 LINE",
"787 525 LINE",
"895 0 LINE",
"996 0 LINE",
"1054 235 LINE",
"1112 0 LINE",
"1216 0 LINE"
);
},
{
closed = 1;
nodes = (
"159 0 LINE",
"263 0 LINE",
"326 235 LINE",
"389 0 LINE",
"490 0 LINE",
"593 525 LINE",
"493 525 LINE",
"432 179 LINE",
"365 427 LINE",
"287 427 LINE",
"218 178 LINE",
"158 525 LINE",
"57 525 LINE"
);
}
);
};
hints = (
{
horizontal = 1;
place = "{525, -20}";
target = down;
type = TopGhost;
},
{
horizontal = 1;
place = "{0, 21}";
target = up;
type = BottomGhost;
}
);
layerId = "64F0AA26-A009-41C1-A946-C445650DA9E2";
paths = (
{
closed = 1;
nodes = (
"593 525 LINE",
"492 525 LINE",
"432 161 LINE",
"363 427 LINE",
"286 427 LINE",
"218 162 LINE",
"158 525 LINE",
"57 525 LINE",
"156 0 LINE",
"258 0 LINE",
"325 252 LINE",
"392 0 LINE",
"495 0 LINE"
);
}
);
width = 650;
}
);
unicode = 0077;
},
{
glyphname = x;
lastChange = "2017-10-07 14:26:38 +0000";
layers = (
{
background = {
paths = (
{
closed = 1;
nodes = (
"475 0 LINE",
"306 263 LINE",
"474 527 LINE",
"410 527 LINE",
"275 307 LINE",
"139 527 LINE",
"75 527 LINE",
"243 264 LINE",
"74 0 LINE",
"138 0 LINE",
"276 216 LINE",
"409 0 LINE"
);
}
);
};
hints = (
{
horizontal = 1;
place = "{0, 21}";
target = up;
type = BottomGhost;
},
{
horizontal = 1;
place = "{527, -20}";
target = down;
type = TopGhost;
}
);
layerId = UUID0;
paths = (
{
closed = 1;
nodes = (
"409 527 LINE",
"276 313 LINE",
"138 527 LINE",
"74 527 LINE",
"243 265 LINE",
"74 0 LINE",
"138 0 LINE",
"275 220 LINE",
"411 0 LINE",
"475 0 LINE",
"306 266 LINE",
"475 527 LINE"
);
}
);
width = 550;
},
{
hints = (
{
horizontal = 1;
place = "{0, 21}";
target = up;
type = BottomGhost;
},
{
horizontal = 1;
place = "{525, -20}";
target = down;
type = TopGhost;
}
);
layerId = "64F0AA26-A009-41C1-A946-C445650DA9E2";
paths = (
{
closed = 1;
nodes = (
"496 0 LINE",
"326 262 LINE",
"493 525 LINE",
"385 525 LINE",
"273 345 LINE",
"160 525 LINE",
"50 525 LINE",
"218 263 LINE",
"50 0 LINE",
"160 0 LINE",
"274 179 LINE",
"384 0 LINE"
);
}
);
width = 550;
}
);
unicode = 0078;
},
{
glyphname = y;
lastChange = "2017-10-07 14:26:38 +0000";
layers = (
{
background = {
paths = (
{
closed = 1;
nodes = (
"280 0 LINE",
"250 -106 LINE SMOOTH",
"235 -162 OFFCURVE",
"207 -172 OFFCURVE",
"160 -172 CURVE SMOOTH",
"122 -172 LINE",
"122 -226 LINE",
"147 -226 LINE SMOOTH",
"227 -226 OFFCURVE",
"275 -211 OFFCURVE",
"305 -103 CURVE",
"473 527 LINE",
"416 527 LINE",
"292 51 LINE",
"264 51 LINE",
"134 527 LINE",
"77 527 LINE",
"225 0 LINE"
);
},
{
closed = 1;
nodes = (
"268 51 LINE",
"131 527 LINE",
"74 527 LINE",
"227 0 LINE",
"324 0 LINE",
"476 527 LINE",
"419 527 LINE",
"283 51 LINE"
);
}
);
};
hints = (
{
horizontal = 1;
place = "{-226, 54}";
},
{
horizontal = 1;
place = "{527, -20}";
target = down;
type = TopGhost;
},
{
horizontal = 1;
place = "{0, 21}";
target = up;
type = BottomGhost;
}
);
layerId = UUID0;
paths = (
{
closed = 1;
nodes = (
"274 0 LINE",
"242 -106 LINE SMOOTH",
"227 -162 OFFCURVE",
"206 -172 OFFCURVE",
"159 -172 CURVE SMOOTH",
"121 -172 LINE",
"121 -226 LINE",
"146 -226 LINE SMOOTH",
"226 -226 OFFCURVE",
"266 -211 OFFCURVE",
"296 -103 CURVE",
"476 527 LINE",
"419 527 LINE",
"286 51 LINE",
"267 51 LINE",
"131 527 LINE",
"73 527 LINE",
"226 0 LINE"
);
}
);
width = 550;
},
{
hints = (
{
horizontal = 1;
place = "{-226, 54}";
},
{
horizontal = 1;
place = "{525, -20}";
target = down;
type = TopGhost;
},
{
horizontal = 1;
place = "{0, 21}";
target = up;
type = BottomGhost;
}
);
layerId = "64F0AA26-A009-41C1-A946-C445650DA9E2";
paths = (
{
closed = 1;
nodes = (
"247 0 LINE",
"224 -89 LINE SMOOTH",
"215 -123 OFFCURVE",
"195 -132 OFFCURVE",
"165 -132 CURVE SMOOTH",
"108 -132 LINE",
"108 -226 LINE",
"153 -226 LINE SMOOTH",
"238 -226 OFFCURVE",
"290 -211 OFFCURVE",
"320 -97 CURVE SMOOTH",
"485 525 LINE",
"385 525 LINE",
"277 115 LINE",
"165 525 LINE",
"62 525 LINE",
"211 0 LINE"
);
}
);
width = 550;
}
);
unicode = 0079;
},
{
glyphname = z;
lastChange = "2017-10-07 14:26:38 +0000";
layers = (
{
background = {
paths = (
{
closed = 1;
nodes = (
"455 0 LINE",
"455 54 LINE",
"151 54 LINE",
"433 471 LINE",
"433 526 LINE",
"104 526 LINE",
"104 472 LINE",
"376 472 LINE",
"94 55 LINE",
"94 0 LINE"
);
}
);
};
hints = (
{
horizontal = 1;
place = "{0, 54}";
},
{
horizontal = 1;
place = "{472, 54}";
}
);
layerId = UUID0;
paths = (
{
closed = 1;
nodes = (
"455 0 LINE",
"455 54 LINE",
"155 54 LINE",
"433 473 LINE",
"433 526 LINE",
"104 526 LINE",
"104 472 LINE",
"372 472 LINE",
"94 53 LINE",
"94 0 LINE"
);
}
);
width = 550;
},
{
hints = (
{
horizontal = 1;
place = "{0, 94}";
},
{
horizontal = 1;
place = "{431, 94}";
}
);
layerId = "64F0AA26-A009-41C1-A946-C445650DA9E2";
paths = (
{
closed = 1;
nodes = (
"460 0 LINE",
"460 94 LINE",
"203 94 LINE",
"440 445 LINE",
"440 525 LINE",
"95 525 LINE",
"95 431 LINE",
"323 431 LINE",
"87 80 LINE",
"87 0 LINE"
);
}
);
width = 550;
}
);
unicode = 007A;
},
{
glyphname = fi;
lastChange = "2017-10-07 14:26:38 +0000";
layers = (
{
hints = (
{
place = "{164, 55}";
},
{
place = "{467, 55}";
},
{
horizontal = 1;
place = "{472, 54}";
},
{
horizontal = 1;
place = "{659, 54}";
},
{
horizontal = 1;
place = "{0, 21}";
target = up;
type = BottomGhost;
}
);
layerId = UUID0;
paths = (
{
closed = 1;
nodes = (
"522 0 LINE",
"522 526 LINE",
"219 526 LINE",
"219 581 LINE SMOOTH",
"219 641 OFFCURVE",
"259 659 OFFCURVE",
"290 659 CURVE SMOOTH",
"337 659 LINE",
"337 713 LINE",
"300 713 LINE SMOOTH",
"207 713 OFFCURVE",
"164 657 OFFCURVE",
"164 569 CURVE SMOOTH",
"164 526 LINE",
"69 526 LINE",
"69 472 LINE",
"164 472 LINE",
"164 0 LINE",
"219 0 LINE",
"219 472 LINE",
"467 472 LINE",
"467 0 LINE"
);
},
{
closed = 1;
nodes = (
"530 631 LINE",
"530 720 LINE",
"458 720 LINE",
"458 631 LINE"
);
}
);
width = 600;
},
{
hints = (
{
place = "{129, 97}";
},
{
place = "{450, 96}";
},
{
horizontal = 1;
place = "{431, 94}";
},
{
horizontal = 1;
place = "{0, 21}";
target = up;
type = BottomGhost;
},
{
horizontal = 1;
place = "{615, 98}";
}
);
layerId = "64F0AA26-A009-41C1-A946-C445650DA9E2";
paths = (
{
closed = 1;
nodes = (
"546 0 LINE",
"546 525 LINE",
"225 525 LINE",
"225 571 LINE SMOOTH",
"225 609 OFFCURVE",
"247 619 OFFCURVE",
"266 619 CURVE SMOOTH",
"331 619 LINE",
"331 713 LINE",
"275 713 LINE SMOOTH",
"175 713 OFFCURVE",
"129 653 OFFCURVE",
"129 559 CURVE SMOOTH",
"129 525 LINE",
"43 525 LINE",
"43 431 LINE",
"129 431 LINE",
"129 0 LINE",
"225 0 LINE",
"225 431 LINE",
"450 431 LINE",
"450 0 LINE"
);
},
{
closed = 1;
nodes = (
"552 592 LINE",
"552 718 LINE",
"442 718 LINE",
"442 592 LINE"
);
}
);
width = 600;
}
);
unicode = FB01;
},
{
glyphname = fl;
lastChange = "2017-10-07 14:26:38 +0000";
layers = (
{
hints = (
{
place = "{132, 55}";
},
{
place = "{425, 55}";
},
{
horizontal = 1;
place = "{0, 54}";
},
{
horizontal = 1;
place = "{472, 54}";
},
{
horizontal = 1;
place = "{659, 54}";
}
);
layerId = UUID0;
paths = (
{
closed = 1;
nodes = (
"425 131 LINE",
"425 38 OFFCURVE",
"479 0 OFFCURVE",
"545 0 CURVE SMOOTH",
"563 0 LINE",
"563 54 LINE",
"550 54 LINE SMOOTH",
"512 54 OFFCURVE",
"480 71 OFFCURVE",
"480 126 CURVE SMOOTH",
"480 713 LINE",
"425 713 LINE",
"425 526 LINE",
"187 526 LINE",
"187 581 LINE SMOOTH",
"187 641 OFFCURVE",
"227 659 OFFCURVE",
"258 659 CURVE SMOOTH",
"305 659 LINE",
"305 713 LINE",
"268 713 LINE SMOOTH",
"175 713 OFFCURVE",
"132 657 OFFCURVE",
"132 569 CURVE SMOOTH",
"132 526 LINE",
"37 526 LINE",
"37 472 LINE",
"132 472 LINE",
"132 0 LINE",
"187 0 LINE",
"187 472 LINE",
"425 472 LINE"
);
}
);
width = 600;
},
{
hints = (
{
place = "{125, 96}";
},
{
place = "{437, 96}";
},
{
horizontal = 1;
place = "{0, 94}";
},
{
horizontal = 1;
place = "{431, 94}";
},
{
horizontal = 1;
place = "{619, 94}";
}
);
layerId = "64F0AA26-A009-41C1-A946-C445650DA9E2";
paths = (
{
closed = 1;
nodes = (
"437 0 LINE",
"533 0 LINE",
"533 713 LINE",
"437 713 LINE",
"437 525 LINE",
"221 525 LINE",
"221 571 LINE SMOOTH",
"221 609 OFFCURVE",
"245 619 OFFCURVE",
"264 619 CURVE SMOOTH",
"328 619 LINE",
"328 713 LINE",
"271 713 LINE SMOOTH",
"172 713 OFFCURVE",
"125 654 OFFCURVE",
"125 560 CURVE SMOOTH",
"125 525 LINE",
"39 525 LINE",
"39 431 LINE",
"125 431 LINE",
"125 0 LINE",
"221 0 LINE",
"221 431 LINE",
"437 431 LINE"
);
}
);
width = 600;
}
);
unicode = FB02;
},
{
color = (235,0,255,1);
glyphname = ordfeminine;
lastChange = "2017-10-07 14:26:38 +0000";
layers = (
{
background = {
paths = (
{
closed = 1;
nodes = (
"308 601 LINE SMOOTH",
"308 677 OFFCURVE",
"259 725 OFFCURVE",
"181 725 CURVE SMOOTH",
"105 725 OFFCURVE",
"55 676 OFFCURVE",
"55 601 CURVE SMOOTH",
"55 491 LINE SMOOTH",
"55 414 OFFCURVE",
"104 367 OFFCURVE",
"181 367 CURVE SMOOTH",
"258 367 OFFCURVE",
"308 416 OFFCURVE",
"308 491 CURVE"
);
},
{
closed = 1;
nodes = (
"259 491 LINE SMOOTH",
"259 444 OFFCURVE",
"230 415 OFFCURVE",
"181 415 CURVE SMOOTH",
"119 415 OFFCURVE",
"104 456 OFFCURVE",
"104 491 CURVE SMOOTH",
"104 601 LINE SMOOTH",
"104 648 OFFCURVE",
"133 677 OFFCURVE",
"181 677 CURVE SMOOTH",
"244 677 OFFCURVE",
"259 635 OFFCURVE",
"259 601 CURVE SMOOTH"
);
}
);
};
hints = (
{
place = "{54, 46}";
},
{
place = "{260, 46}";
},
{
horizontal = 1;
place = "{373, 45}";
},
{
horizontal = 1;
place = "{523, 42}";
},
{
horizontal = 1;
place = "{671, 45}";
}
);
layerId = UUID0;
paths = (
{
closed = 1;
nodes = (
"306 611 LINE",
"306 695 OFFCURVE",
"244 725 OFFCURVE",
"184 725 CURVE SMOOTH",
"131 725 OFFCURVE",
"63 692 OFFCURVE",
"63 608 CURVE",
"109 608 LINE",
"109 661 OFFCURVE",
"145 680 OFFCURVE",
"185 680 CURVE SMOOTH",
"228 680 OFFCURVE",
"260 663 OFFCURVE",
"260 609 CURVE SMOOTH",
"260 573 LINE",
"160 573 LINE SMOOTH",
"95 573 OFFCURVE",
"49 540 OFFCURVE",
"49 476 CURVE SMOOTH",
"49 395 OFFCURVE",
"103 366 OFFCURVE",
"170 366 CURVE SMOOTH",
"207 366 OFFCURVE",
"237 381 OFFCURVE",
"260 404 CURVE",
"260 373 LINE",
"306 373 LINE"
);
},
{
closed = 1;
nodes = (
"260 485 LINE",
"260 434 OFFCURVE",
"216 411 OFFCURVE",
"172 411 CURVE SMOOTH",
"130 411 OFFCURVE",
"95 421 OFFCURVE",
"95 476 CURVE SMOOTH",
"95 515 OFFCURVE",
"120 531 OFFCURVE",
"161 531 CURVE SMOOTH",
"260 531 LINE"
);
}
);
width = 350;
},
{
background = {
paths = (
{
closed = 1;
nodes = (
"313 591 LINE SMOOTH",
"313 673 OFFCURVE",
"259 725 OFFCURVE",
"175 725 CURVE SMOOTH",
"92 725 OFFCURVE",
"39 672 OFFCURVE",
"39 591 CURVE SMOOTH",
"39 485 LINE SMOOTH",
"39 403 OFFCURVE",
"91 351 OFFCURVE",
"175 351 CURVE SMOOTH",
"258 351 OFFCURVE",
"313 404 OFFCURVE",
"313 485 CURVE"
);
},
{
closed = 1;
nodes = (
"230 482 LINE SMOOTH",
"230 454 OFFCURVE",
"206 432 OFFCURVE",
"175 432 CURVE SMOOTH",
"135 432 OFFCURVE",
"122 460 OFFCURVE",
"122 482 CURVE SMOOTH",
"122 595 LINE SMOOTH",
"122 624 OFFCURVE",
"145 644 OFFCURVE",
"175 644 CURVE SMOOTH",
"215 644 OFFCURVE",
"230 616 OFFCURVE",
"230 595 CURVE SMOOTH"
);
}
);
};
hints = (
{
place = "{19, 76}";
},
{
place = "{226, 77}";
},
{
horizontal = 1;
place = "{360, 74}";
},
{
horizontal = 1;
place = "{505, 70}";
},
{
horizontal = 1;
place = "{641, 75}";
}
);
layerId = "64F0AA26-A009-41C1-A946-C445650DA9E2";
paths = (
{
closed = 1;
nodes = (
"303 602 LINE",
"303 695 OFFCURVE",
"243 724 OFFCURVE",
"178 724 CURVE SMOOTH",
"124 724 OFFCURVE",
"61 689 OFFCURVE",
"52 599 CURVE",
"129 599 LINE",
"135 635 OFFCURVE",
"152 649 OFFCURVE",
"179 649 CURVE SMOOTH",
"209 649 OFFCURVE",
"226 634 OFFCURVE",
"226 600 CURVE",
"226 580 LINE",
"154 580 LINE",
"82 580 OFFCURVE",
"39 535 OFFCURVE",
"39 472 CURVE SMOOTH",
"39 388 OFFCURVE",
"90 354 OFFCURVE",
"159 354 CURVE SMOOTH",
"189 354 OFFCURVE",
"210 365 OFFCURVE",
"226 382 CURVE",
"226 360 LINE",
"303 360 LINE"
);
},
{
closed = 1;
nodes = (
"226 479 LINE",
"226 441 OFFCURVE",
"199 428 OFFCURVE",
"166 428 CURVE SMOOTH",
"136 428 OFFCURVE",
"115 437 OFFCURVE",
"115 472 CURVE SMOOTH",
"115 494 OFFCURVE",
"130 508 OFFCURVE",
"155 508 CURVE",
"226 508 LINE"
);
}
);
width = 350;
}
);
unicode = 00AA;
},
{
color = (235,0,255,1);
glyphname = ordmasculine;
lastChange = "2017-10-07 14:26:38 +0000";
layers = (
{
hints = (
{
place = "{48, 49}";
},
{
place = "{252, 49}";
},
{
horizontal = 1;
place = "{373, 48}";
},
{
horizontal = 1;
place = "{668, 48}";
}
);
layerId = UUID0;
paths = (
{
closed = 1;
nodes = (
"301 601 LINE SMOOTH",
"301 677 OFFCURVE",
"252 725 OFFCURVE",
"174 725 CURVE SMOOTH",
"98 725 OFFCURVE",
"48 676 OFFCURVE",
"48 601 CURVE SMOOTH",
"48 491 LINE SMOOTH",
"48 414 OFFCURVE",
"97 367 OFFCURVE",
"174 367 CURVE SMOOTH",
"251 367 OFFCURVE",
"301 416 OFFCURVE",
"301 491 CURVE"
);
},
{
closed = 1;
nodes = (
"252 491 LINE SMOOTH",
"252 444 OFFCURVE",
"223 415 OFFCURVE",
"174 415 CURVE SMOOTH",
"112 415 OFFCURVE",
"97 456 OFFCURVE",
"97 491 CURVE SMOOTH",
"97 601 LINE SMOOTH",
"97 648 OFFCURVE",
"126 677 OFFCURVE",
"174 677 CURVE SMOOTH",
"237 677 OFFCURVE",
"252 635 OFFCURVE",
"252 601 CURVE SMOOTH"
);
}
);
width = 350;
},
{
background = {
paths = (
{
closed = 1;
nodes = (
"312 567 LINE SMOOTH",
"312 648 OFFCURVE",
"258 698 OFFCURVE",
"176 698 CURVE SMOOTH",
"96 698 OFFCURVE",
"41 647 OFFCURVE",
"41 567 CURVE SMOOTH",
"41 463 LINE SMOOTH",
"41 381 OFFCURVE",
"94 332 OFFCURVE",
"176 332 CURVE SMOOTH",
"257 332 OFFCURVE",
"312 382 OFFCURVE",
"312 463 CURVE"
);
},
{
closed = 1;
nodes = (
"240 463 LINE SMOOTH",
"240 425 OFFCURVE",
"215 402 OFFCURVE",
"176 402 CURVE SMOOTH",
"123 402 OFFCURVE",
"111 435 OFFCURVE",
"111 463 CURVE SMOOTH",
"111 567 LINE SMOOTH",
"111 606 OFFCURVE",
"136 627 OFFCURVE",
"176 627 CURVE SMOOTH",
"228 627 OFFCURVE",
"240 595 OFFCURVE",
"240 567 CURVE SMOOTH"
);
}
);
};
hints = (
{
place = "{39, 83}";
},
{
place = "{230, 83}";
},
{
horizontal = 1;
place = "{360, 81}";
},
{
horizontal = 1;
place = "{637, 81}";
}
);
layerId = "64F0AA26-A009-41C1-A946-C445650DA9E2";
paths = (
{
closed = 1;
nodes = (
"313 590 LINE",
"313 672 OFFCURVE",
"259 724 OFFCURVE",
"175 724 CURVE SMOOTH",
"92 724 OFFCURVE",
"39 671 OFFCURVE",
"39 590 CURVE",
"39 485 LINE",
"39 403 OFFCURVE",
"91 351 OFFCURVE",
"175 351 CURVE SMOOTH",
"258 351 OFFCURVE",
"313 404 OFFCURVE",
"313 485 CURVE"
);
},
{
closed = 1;
nodes = (
"230 482 LINE",
"230 454 OFFCURVE",
"206 432 OFFCURVE",
"175 432 CURVE SMOOTH",
"135 432 OFFCURVE",
"122 460 OFFCURVE",
"122 482 CURVE",
"122 594 LINE",
"122 623 OFFCURVE",
"145 643 OFFCURVE",
"175 643 CURVE SMOOTH",
"215 643 OFFCURVE",
"230 615 OFFCURVE",
"230 594 CURVE"
);
}
);
width = 350;
}
);
unicode = 00BA;
},
{
glyphname = afii10017;
lastChange = "2017-10-07 14:26:38 +0000";
layers = (
{
background = {
paths = (
{
closed = 1;
nodes = (
"542 0 LINE",
"353 713 LINE",
"244 713 LINE",
"58 0 LINE",
"111 0 LINE",
"166 208 LINE",
"435 208 LINE",
"489 0 LINE"
);
},
{
closed = 1;
nodes = (
"421 261 LINE",
"179 261 LINE",
"283 664 LINE",
"317 664 LINE"
);
}
);
};
hints = (
{
horizontal = 1;
place = "{208, 53}";
},
{
horizontal = 1;
place = "{0, 21}";
target = up;
type = BottomGhost;
},
{
horizontal = 1;
place = "{713, -20}";
target = down;
type = TopGhost;
}
);
layerId = UUID0;
paths = (
{
closed = 1;
nodes = (
"554 0 LINE",
"344 713 LINE",
"253 713 LINE",
"47 0 LINE",
"101 0 LINE",
"162 208 LINE",
"439 208 LINE",
"499 0 LINE"
);
},
{
closed = 1;
nodes = (
"424 261 LINE",
"176 261 LINE",
"293 664 LINE",
"307 664 LINE"
);
}
);
width = 600;
},
{
hints = (
{
horizontal = 1;
place = "{194, 96}";
},
{
horizontal = 1;
place = "{0, 21}";
target = up;
type = BottomGhost;
},
{
horizontal = 1;
place = "{713, -20}";
target = down;
type = TopGhost;
}
);
layerId = "64F0AA26-A009-41C1-A946-C445650DA9E2";
paths = (
{
closed = 1;
nodes = (
"558 0 LINE",
"369 713 LINE",
"229 713 LINE",
"43 0 LINE",
"143 0 LINE",
"194 194 LINE",
"409 194 LINE",
"459 0 LINE"
);
},
{
closed = 1;
nodes = (
"384 290 LINE",
"217 290 LINE",
"302 608 LINE"
);
}
);
width = 600;
}
);
unicode = 0410;
},
{
glyphname = afii10018;
lastChange = "2017-10-07 14:26:38 +0000";
layers = (
{
hints = (
{
place = "{103, 55}";
},
{
place = "{441, 55}";
},
{
horizontal = 1;
place = "{0, 54}";
},
{
horizontal = 1;
place = "{368, 54}";
},
{
horizontal = 1;
place = "{659, 54}";
}
);
layerId = UUID0;
paths = (
{
closed = 1;
nodes = (
"496 237 LINE SMOOTH",
"496 298 OFFCURVE",
"466 422 OFFCURVE",
"313 422 CURVE SMOOTH",
"158 422 LINE",
"158 659 LINE",
"476 659 LINE",
"476 713 LINE",
"103 713 LINE",
"103 0 LINE",
"309 0 LINE SMOOTH",
"465 0 OFFCURVE",
"496 124 OFFCURVE",
"496 183 CURVE SMOOTH"
);
},
{
closed = 1;
nodes = (
"441 185 LINE SMOOTH",
"441 71 OFFCURVE",
"354 54 OFFCURVE",
"307 54 CURVE SMOOTH",
"158 54 LINE",
"158 368 LINE",
"309 368 LINE SMOOTH",
"356 368 OFFCURVE",
"441 350 OFFCURVE",
"441 236 CURVE SMOOTH"
);
}
);
width = 600;
},
{
hints = (
{
place = "{93, 98}";
},
{
place = "{407, 98}";
},
{
horizontal = 1;
place = "{0, 96}";
},
{
horizontal = 1;
place = "{345, 96}";
},
{
horizontal = 1;
place = "{617, 96}";
}
);
layerId = "64F0AA26-A009-41C1-A946-C445650DA9E2";
paths = (
{
closed = 1;
nodes = (
"505 245 LINE SMOOTH",
"505 310 OFFCURVE",
"473 441 OFFCURVE",
"312 441 CURVE SMOOTH",
"191 441 LINE",
"191 617 LINE",
"468 617 LINE",
"468 713 LINE",
"93 713 LINE",
"93 0 LINE",
"308 0 LINE SMOOTH",
"473 0 OFFCURVE",
"505 132 OFFCURVE",
"505 195 CURVE SMOOTH"
);
},
{
closed = 1;
nodes = (
"407 197 LINE SMOOTH",
"407 110 OFFCURVE",
"342 96 OFFCURVE",
"305 96 CURVE SMOOTH",
"191 96 LINE",
"191 345 LINE",
"307 345 LINE SMOOTH",
"344 345 OFFCURVE",
"407 332 OFFCURVE",
"407 244 CURVE SMOOTH"
);
}
);
width = 600;
}
);
unicode = 0411;
},
{
glyphname = afii10019;
lastChange = "2017-10-07 14:26:38 +0000";
layers = (
{
hints = (
{
place = "{101, 55}";
},
{
place = "{444, 55}";
},
{
horizontal = 1;
place = "{0, 55}";
},
{
horizontal = 1;
place = "{341, 54}";
},
{
horizontal = 1;
place = "{659, 54}";
}
);
layerId = UUID0;
paths = (
{
closed = 1;
nodes = (
"499 208 LINE SMOOTH",
"499 251 OFFCURVE",
"487 334 OFFCURVE",
"399 368 CURVE",
"472 404 OFFCURVE",
"487 480 OFFCURVE",
"487 522 CURVE SMOOTH",
"487 534 LINE SMOOTH",
"487 593 OFFCURVE",
"463 713 OFFCURVE",
"307 713 CURVE SMOOTH",
"101 713 LINE",
"101 0 LINE",
"312 0 LINE SMOOTH",
"468 0 OFFCURVE",
"499 124 OFFCURVE",
"499 183 CURVE"
);
},
{
closed = 1;
nodes = (
"432 524 LINE",
"432 410 OFFCURVE",
"364 395 OFFCURVE",
"311 395 CURVE SMOOTH",
"156 395 LINE",
"156 659 LINE",
"305 659 LINE SMOOTH",
"352 659 OFFCURVE",
"432 647 OFFCURVE",
"432 533 CURVE SMOOTH"
);
},
{
closed = 1;
nodes = (
"444 186 LINE",
"444 72 OFFCURVE",
"357 55 OFFCURVE",
"310 55 CURVE SMOOTH",
"156 55 LINE",
"156 341 LINE",
"315 341 LINE SMOOTH",
"369 341 OFFCURVE",
"444 321 OFFCURVE",
"444 207 CURVE SMOOTH"
);
}
);
width = 600;
},
{
hints = (
{
place = "{92, 98}";
},
{
place = "{411, 98}";
},
{
horizontal = 1;
place = "{0, 95}";
},
{
horizontal = 1;
place = "{319, 96}";
},
{
horizontal = 1;
place = "{618, 95}";
}
);
layerId = "64F0AA26-A009-41C1-A946-C445650DA9E2";
paths = (
{
closed = 1;
nodes = (
"509 218 LINE SMOOTH",
"509 255 OFFCURVE",
"495 332 OFFCURVE",
"432 368 CURVE",
"484 405 OFFCURVE",
"499 474 OFFCURVE",
"499 510 CURVE SMOOTH",
"499 522 LINE SMOOTH",
"499 585 OFFCURVE",
"472 713 OFFCURVE",
"307 713 CURVE SMOOTH",
"92 713 LINE",
"92 0 LINE",
"312 0 LINE SMOOTH",
"476 0 OFFCURVE",
"509 131 OFFCURVE",
"509 194 CURVE"
);
},
{
closed = 1;
nodes = (
"401 512 LINE",
"401 427 OFFCURVE",
"351 415 OFFCURVE",
"311 415 CURVE SMOOTH",
"190 415 LINE",
"190 618 LINE",
"305 618 LINE SMOOTH",
"341 618 OFFCURVE",
"401 607 OFFCURVE",
"401 521 CURVE SMOOTH"
);
},
{
closed = 1;
nodes = (
"411 196 LINE",
"411 109 OFFCURVE",
"347 95 OFFCURVE",
"310 95 CURVE SMOOTH",
"190 95 LINE",
"190 319 LINE",
"315 319 LINE SMOOTH",
"356 319 OFFCURVE",
"411 304 OFFCURVE",
"411 217 CURVE SMOOTH"
);
}
);
width = 600;
}
);
unicode = 0412;
},
{
glyphname = afii10020;
lastChange = "2017-10-07 14:26:38 +0000";
layers = (
{
hints = (
{
place = "{98, 55}";
},
{
horizontal = 1;
place = "{0, 54}";
},
{
horizontal = 1;
place = "{368, 54}";
},
{
horizontal = 1;
place = "{659, 54}";
}
);
layerId = UUID0;
paths = (
{
closed = 1;
nodes = (
"98 713 LINE",
"98 0 LINE",
"153 0 LINE",
"153 659 LINE",
"471 659 LINE",
"471 713 LINE"
);
}
);
width = 550;
},
{
hints = (
{
place = "{102, 98}";
},
{
horizontal = 1;
place = "{617, 96}";
},
{
horizontal = 1;
place = "{0, 21}";
target = up;
type = BottomGhost;
}
);
layerId = "64F0AA26-A009-41C1-A946-C445650DA9E2";
paths = (
{
closed = 1;
nodes = (
"102 713 LINE",
"102 0 LINE",
"200 0 LINE",
"200 617 LINE",
"497 617 LINE",
"497 713 LINE"
);
}
);
width = 600;
}
);
unicode = 0413;
},
{
glyphname = afii10050;
lastChange = "2017-10-07 14:26:38 +0000";
layers = (
{
background = {
paths = (
{
closed = 1;
nodes = (
"113 713 LINE",
"113 0 LINE",
"168 0 LINE",
"168 659 LINE",
"486 659 LINE",
"486 713 LINE"
);
},
{
closed = 1;
nodes = (
"431 826 LINE",
"431 713 LINE",
"336 713 LINE",
"281 659 LINE",
"486 659 LINE",
"486 826 LINE"
);
}
);
};
hints = (
{
place = "{113, 55}";
},
{
horizontal = 1;
place = "{0, 54}";
},
{
horizontal = 1;
place = "{713, -54}";
}
);
layerId = UUID0;
paths = (
{
closed = 1;
nodes = (
"431 826 LINE",
"431 713 LINE",
"113 713 LINE",
"113 0 LINE",
"168 0 LINE",
"168 659 LINE",
"486 659 LINE",
"486 826 LINE"
);
}
);
width = 600;
},
{
hints = (
{
place = "{102, 98}";
},
{
horizontal = 1;
place = "{617, 96}";
},
{
horizontal = 1;
place = "{0, 21}";
target = up;
type = BottomGhost;
}
);
layerId = "64F0AA26-A009-41C1-A946-C445650DA9E2";
paths = (
{
closed = 1;
nodes = (
"399 845 LINE",
"399 713 LINE",
"102 713 LINE",
"102 0 LINE",
"200 0 LINE",
"200 617 LINE",
"497 617 LINE",
"497 845 LINE"
);
}
);
width = 600;
}
);
unicode = 0490;
},
